<?xml version="1.0" encoding="UTF-8"?>
<svg xmlns="http://www.w3.org/2000/svg" version="1.1" xmlns:xlink="http://www.w3.org/1999/xlink" viewBox="0 0 2828 2812">
  <defs>
    <style>
      .cls-1 {
        fill: url(#linear-gradient-61);
      }

      .cls-2 {
        fill: url(#linear-gradient-15);
      }

      .cls-3 {
        fill: url(#linear-gradient-13);
      }

      .cls-4 {
        fill: url(#linear-gradient-28);
      }

      .cls-5 {
        fill: url(#linear-gradient-65);
      }

      .cls-6 {
        fill: url(#linear-gradient-69);
      }

      .cls-7 {
        fill: url(#linear-gradient-46);
      }

      .cls-8 {
        fill: #b7c0ce;
      }

      .cls-9 {
        fill: url(#linear-gradient-9);
      }

      .cls-9, .cls-10, .cls-11, .cls-12, .cls-13, .cls-14, .cls-15, .cls-16, .cls-17, .cls-18, .cls-19, .cls-20, .cls-21, .cls-22 {
        isolation: isolate;
      }

      .cls-9, .cls-10, .cls-12, .cls-13, .cls-14, .cls-15, .cls-16, .cls-18, .cls-19, .cls-20, .cls-23 {
        opacity: .3;
      }

      .cls-24 {
        fill: url(#linear-gradient-70);
      }

      .cls-25 {
        fill: url(#linear-gradient-60);
      }

      .cls-26 {
        fill: url(#linear-gradient-93);
      }

      .cls-27 {
        fill: url(#linear-gradient-95);
      }

      .cls-28 {
        fill: url(#linear-gradient-2);
      }

      .cls-29 {
        fill: url(#linear-gradient-87);
      }

      .cls-30 {
        fill: url(#linear-gradient-64);
      }

      .cls-31 {
        fill: url(#linear-gradient-56);
      }

      .cls-32 {
        fill: url(#linear-gradient-43);
      }

      .cls-33 {
        fill: url(#linear-gradient-25);
      }

      .cls-34 {
        fill: url(#linear-gradient-82);
      }

      .cls-35 {
        fill: url(#linear-gradient-10);
      }

      .cls-36 {
        fill: url(#linear-gradient-12);
      }

      .cls-37 {
        fill: url(#linear-gradient-40);
      }

      .cls-38 {
        fill: url(#linear-gradient-27);
      }

      .cls-39 {
        fill: url(#linear-gradient-37);
      }

      .cls-40 {
        fill: url(#linear-gradient-75);
      }

      .cls-41 {
        fill: url(#linear-gradient-55);
      }

      .cls-42, .cls-11, .cls-14, .cls-17 {
        fill: #fff;
      }

      .cls-43 {
        fill: url(#linear-gradient-39);
      }

      .cls-10 {
        fill: url(#linear-gradient-42);
      }

      .cls-44 {
        fill: url(#linear-gradient-89);
      }

      .cls-11 {
        opacity: .6;
      }

      .cls-45 {
        fill: url(#linear-gradient-52);
      }

      .cls-12, .cls-46 {
        fill: #ebeff2;
      }

      .cls-47 {
        fill: url(#linear-gradient-58);
      }

      .cls-48 {
        fill: url(#linear-gradient-47);
      }

      .cls-49 {
        fill: url(#linear-gradient-26);
      }

      .cls-50 {
        fill: url(#linear-gradient-74);
      }

      .cls-51, .cls-22 {
        opacity: .2;
      }

      .cls-52 {
        fill: url(#linear-gradient-97);
      }

      .cls-53 {
        fill: url(#linear-gradient-72);
      }

      .cls-54 {
        fill: url(#linear-gradient-4);
      }

      .cls-55 {
        fill: url(#linear-gradient-35);
      }

      .cls-56 {
        fill: url(#linear-gradient-30);
      }

      .cls-57 {
        fill: #e7ebef;
      }

      .cls-13 {
        fill: url(#linear-gradient-51);
      }

      .cls-58 {
        fill: url(#linear-gradient-73);
      }

      .cls-59 {
        fill: url(#linear-gradient-71);
      }

      .cls-60 {
        fill: url(#linear-gradient-44);
      }

      .cls-61 {
        fill: url(#linear-gradient-96);
      }

      .cls-62 {
        fill: url(#linear-gradient-49);
      }

      .cls-63 {
        fill: url(#linear-gradient-3);
      }

      .cls-64 {
        fill: url(#linear-gradient-34);
      }

      .cls-65 {
        fill: url(#linear-gradient-5);
      }

      .cls-66 {
        fill: url(#linear-gradient-38);
      }

      .cls-67 {
        fill: url(#linear-gradient-91);
      }

      .cls-68 {
        fill: url(#linear-gradient-22);
      }

      .cls-69 {
        fill: url(#linear-gradient-24);
      }

      .cls-70 {
        fill: url(#linear-gradient-94);
      }

      .cls-71 {
        fill: url(#linear-gradient-54);
      }

      .cls-72 {
        fill: url(#linear-gradient-92);
      }

      .cls-73 {
        fill: url(#linear-gradient-90);
      }

      .cls-74 {
        fill: url(#linear-gradient-33);
      }

      .cls-75 {
        fill: url(#linear-gradient-79);
      }

      .cls-76 {
        fill: url(#linear-gradient-78);
      }

      .cls-77 {
        fill: url(#linear-gradient-8);
      }

      .cls-15 {
        fill: url(#linear-gradient-31);
      }

      .cls-78 {
        fill: url(#linear-gradient-66);
      }

      .cls-79 {
        fill: url(#linear-gradient-57);
      }

      .cls-80 {
        fill: url(#linear-gradient-77);
      }

      .cls-16 {
        fill: url(#linear-gradient-76);
      }

      .cls-81 {
        fill: url(#linear-gradient-88);
      }

      .cls-17, .cls-82 {
        opacity: .7;
      }

      .cls-83 {
        fill: url(#linear-gradient-14);
      }

      .cls-84 {
        fill: url(#linear-gradient-62);
      }

      .cls-85 {
        fill: url(#linear-gradient-29);
      }

      .cls-18 {
        fill: url(#linear-gradient-68);
      }

      .cls-86 {
        fill: url(#linear-gradient-20);
      }

      .cls-87 {
        fill: url(#linear-gradient-67);
      }

      .cls-19, .cls-88 {
        fill: #d8dee8;
      }

      .cls-20 {
        fill: url(#linear-gradient-53);
      }

      .cls-89 {
        fill: url(#linear-gradient-17);
      }

      .cls-90 {
        fill: url(#linear-gradient-50);
      }

      .cls-91 {
        fill: url(#linear-gradient-7);
      }

      .cls-92 {
        fill: url(#linear-gradient-59);
      }

      .cls-93 {
        fill: url(#linear-gradient-11);
      }

      .cls-94 {
        fill: url(#linear-gradient-19);
      }

      .cls-95 {
        fill: url(#linear-gradient-80);
      }

      .cls-21, .cls-96 {
        opacity: .8;
      }

      .cls-21, .cls-97 {
        fill: #f4f7fa;
      }

      .cls-98 {
        fill: url(#linear-gradient-6);
      }

      .cls-99 {
        fill: url(#linear-gradient-83);
      }

      .cls-100 {
        fill: url(#linear-gradient-36);
      }

      .cls-101 {
        fill: url(#linear-gradient-21);
      }

      .cls-102 {
        fill: url(#linear-gradient-45);
      }

      .cls-103 {
        fill: url(#linear-gradient-81);
      }

      .cls-104 {
        fill: url(#linear-gradient-84);
      }

      .cls-105 {
        fill: url(#linear-gradient-48);
      }

      .cls-106 {
        fill: url(#linear-gradient-32);
      }

      .cls-107 {
        fill: url(#linear-gradient-86);
      }

      .cls-108 {
        fill: url(#linear-gradient-41);
      }

      .cls-109 {
        fill: url(#linear-gradient-16);
      }

      .cls-110 {
        fill: url(#linear-gradient);
      }

      .cls-22 {
        fill: url(#linear-gradient-85);
      }

      .cls-111 {
        fill: url(#linear-gradient-23);
      }

      .cls-112 {
        fill: #97a6b7;
      }

      .cls-113 {
        fill: url(#linear-gradient-63);
      }

      .cls-114 {
        opacity: .5;
      }

      .cls-115 {
        fill: url(#linear-gradient-18);
      }
    </style>
    <linearGradient id="linear-gradient" x1="10296.7" y1="256.7" x2="10361.1" y2="256.7" gradientTransform="translate(11021.1 894.9) rotate(-180) scale(1 -1)" gradientUnits="userSpaceOnUse">
      <stop offset="0" stop-color="#311944"/>
      <stop offset="1" stop-color="#6b3976"/>
    </linearGradient>
    <linearGradient id="linear-gradient-2" x1="10341" y1="253.1" x2="10394.3" y2="93.3" gradientTransform="translate(11021.1 894.9) rotate(-180) scale(1 -1)" gradientUnits="userSpaceOnUse">
      <stop offset="0" stop-color="#ffc444"/>
      <stop offset="1" stop-color="#f36f56"/>
    </linearGradient>
    <linearGradient id="linear-gradient-3" x1="10108.9" y1="232.9" x2="10173.3" y2="232.9" gradientTransform="translate(11021.1 894.9) rotate(-180) scale(1 -1)" gradientUnits="userSpaceOnUse">
      <stop offset="0" stop-color="#311944"/>
      <stop offset="1" stop-color="#6b3976"/>
    </linearGradient>
    <linearGradient id="linear-gradient-4" x1="10156.7" y1="231.7" x2="10215.4" y2="55.7" gradientTransform="translate(11021.1 894.9) rotate(-180) scale(1 -1)" gradientUnits="userSpaceOnUse">
      <stop offset="0" stop-color="#ffc444"/>
      <stop offset="1" stop-color="#f36f56"/>
    </linearGradient>
    <linearGradient id="linear-gradient-5" x1="-6578.7" y1="-433.8" x2="-6436.2" y2="103" gradientTransform="translate(7297 894.9)" gradientUnits="userSpaceOnUse">
      <stop offset="0" stop-color="#311944"/>
      <stop offset="1" stop-color="#6b3976"/>
    </linearGradient>
    <linearGradient id="linear-gradient-6" x1="-6754.3" y1="-83.9" x2="-6549.9" y2="-83.9" gradientTransform="translate(7297 894.9)" gradientUnits="userSpaceOnUse">
      <stop offset="0" stop-color="#311944"/>
      <stop offset="1" stop-color="#6b3976"/>
    </linearGradient>
    <linearGradient id="linear-gradient-7" x1="-6594" y1="-424.4" x2="-6242.7" y2="-752.4" gradientTransform="translate(7297 894.9)" gradientUnits="userSpaceOnUse">
      <stop offset="0" stop-color="#ff9085"/>
      <stop offset="1" stop-color="#fb6fbb"/>
    </linearGradient>
    <linearGradient id="linear-gradient-8" x1="-6473" y1="-532.1" x2="-6533.8" y2="-324.4" gradientTransform="translate(7297 894.9)" gradientUnits="userSpaceOnUse">
      <stop offset="0" stop-color="#ab316d"/>
      <stop offset="1" stop-color="#792d3d"/>
    </linearGradient>
    <linearGradient id="linear-gradient-9" x1="-6594.1" y1="-424.5" x2="-6242.9" y2="-752.5" gradientTransform="translate(7297 894.9)" gradientUnits="userSpaceOnUse">
      <stop offset="0" stop-color="#ff9085"/>
      <stop offset="1" stop-color="#fb6fbb"/>
    </linearGradient>
    <linearGradient id="linear-gradient-10" x1="-4775.6" y1="5532.1" x2="-4767.5" y2="5316.2" gradientTransform="translate(8199.7 -90) rotate(46.6)" gradientUnits="userSpaceOnUse">
      <stop offset="0" stop-color="#ab316d"/>
      <stop offset="1" stop-color="#792d3d"/>
    </linearGradient>
    <linearGradient id="linear-gradient-11" x1="11517.9" y1="3719.6" x2="11466.2" y2="3588.2" gradientTransform="translate(12666.6 3238.8) rotate(-147.5) scale(1 -1)" gradientUnits="userSpaceOnUse">
      <stop offset="0" stop-color="#444b8c"/>
      <stop offset="1" stop-color="#26264f"/>
    </linearGradient>
    <linearGradient id="linear-gradient-12" x1="-6680" y1="3061.3" x2="-6682.4" y2="3247.9" gradientTransform="translate(8361.7 688.2) rotate(28.9)" gradientUnits="userSpaceOnUse">
      <stop offset="0" stop-color="#ab316d"/>
      <stop offset="1" stop-color="#792d3d"/>
    </linearGradient>
    <linearGradient id="linear-gradient-13" x1="-6665.6" y1="-501.1" x2="-6314.4" y2="-829.1" gradientTransform="translate(7297 894.9)" gradientUnits="userSpaceOnUse">
      <stop offset="0" stop-color="#ff9085"/>
      <stop offset="1" stop-color="#fb6fbb"/>
    </linearGradient>
    <linearGradient id="linear-gradient-14" x1="1387.4" y1="1134.9" x2="1387.4" y2="1351.2" gradientTransform="translate(0 894.9)" gradientUnits="userSpaceOnUse">
      <stop offset=".5" stop-color="#ebeff2"/>
      <stop offset="1" stop-color="#fff"/>
    </linearGradient>
    <linearGradient id="linear-gradient-15" x1="1816.9" y1="-778" x2="339.4" y2="2177.1" gradientTransform="translate(0 894.9)" gradientUnits="userSpaceOnUse">
      <stop offset="0" stop-color="#e38ddd"/>
      <stop offset="1" stop-color="#9571f6"/>
    </linearGradient>
    <linearGradient id="linear-gradient-16" x1="1166.5" y1="-855.3" x2="1445.2" y2="259.4" gradientTransform="translate(0 894.9)" gradientUnits="userSpaceOnUse">
      <stop offset="0" stop-color="#e38ddd"/>
      <stop offset="1" stop-color="#9571f6"/>
    </linearGradient>
    <linearGradient id="linear-gradient-17" x1="1748.6" y1="-234.1" x2="1799.2" y2="503.7" gradientTransform="translate(0 894.9)" gradientUnits="userSpaceOnUse">
      <stop offset="0" stop-color="#e38ddd"/>
      <stop offset="1" stop-color="#9571f6"/>
    </linearGradient>
    <linearGradient id="linear-gradient-18" x1="1733.2" y1="94.3" x2="1860.4" y2="1949.7" gradientTransform="translate(0 894.9)" gradientUnits="userSpaceOnUse">
      <stop offset="0" stop-color="#e38ddd"/>
      <stop offset="1" stop-color="#9571f6"/>
    </linearGradient>
    <linearGradient id="linear-gradient-19" x1="-1459.5" y1="479" x2="-1700.3" y2="1633.2" gradientTransform="translate(2930.6 894.9)" gradientUnits="userSpaceOnUse">
      <stop offset="0" stop-color="#ffc444"/>
      <stop offset="1" stop-color="#f36f56"/>
    </linearGradient>
    <linearGradient id="linear-gradient-20" x1="7337" y1="1553.1" x2="7409.1" y2="1553.1" gradientTransform="translate(8627.6 812.6) rotate(178.3) scale(1 -1)" gradientUnits="userSpaceOnUse">
      <stop offset="0" stop-color="#444b8c"/>
      <stop offset="1" stop-color="#26264f"/>
    </linearGradient>
    <linearGradient id="linear-gradient-21" x1="7378" y1="499.1" x2="7454.6" y2="499.1" gradientTransform="translate(8553.9 122.7) rotate(164.6) scale(1 -1)" gradientUnits="userSpaceOnUse">
      <stop offset="0" stop-color="#444b8c"/>
      <stop offset="1" stop-color="#26264f"/>
    </linearGradient>
    <linearGradient id="linear-gradient-22" x1="-1381.7" y1="1543.4" x2="-1586" y2="1082.8" gradientTransform="translate(2930.6 894.9)" gradientUnits="userSpaceOnUse">
      <stop offset="0" stop-color="#aa80f9"/>
      <stop offset="1" stop-color="#6165d7"/>
    </linearGradient>
    <linearGradient id="linear-gradient-23" x1="-1720.1" y1="1041.4" x2="-1924.4" y2="580.8" gradientTransform="translate(3028.4 1216.3) rotate(-7)" gradientUnits="userSpaceOnUse">
      <stop offset="0" stop-color="#aa80f9"/>
      <stop offset="1" stop-color="#6165d7"/>
    </linearGradient>
    <linearGradient id="linear-gradient-24" x1="-1542.8" y1="461.6" x2="-1783.6" y2="1615.9" gradientTransform="translate(2930.6 894.9)" gradientUnits="userSpaceOnUse">
      <stop offset="0" stop-color="#ffc444"/>
      <stop offset="1" stop-color="#f36f56"/>
    </linearGradient>
    <linearGradient id="linear-gradient-25" x1="-1749.7" y1="1448.8" x2="-1658.4" y2="1014.7" gradientTransform="translate(2930.6 894.9)" gradientUnits="userSpaceOnUse">
      <stop offset="0" stop-color="#ffc444"/>
      <stop offset="1" stop-color="#f36f56"/>
    </linearGradient>
    <linearGradient id="linear-gradient-26" x1="-1707.7" y1="427.2" x2="-1948.5" y2="1581.5" gradientTransform="translate(2930.6 894.9)" gradientUnits="userSpaceOnUse">
      <stop offset="0" stop-color="#ffc444"/>
      <stop offset="1" stop-color="#f36f56"/>
    </linearGradient>
    <linearGradient id="linear-gradient-27" x1="-1502.5" y1="1071.6" x2="-1541.4" y2="961.2" gradientTransform="translate(2930.6 894.9)" gradientUnits="userSpaceOnUse">
      <stop offset="0" stop-color="#444b8c"/>
      <stop offset="1" stop-color="#3e4177"/>
    </linearGradient>
    <linearGradient id="linear-gradient-28" x1="-1672.7" y1="911.7" x2="-1658.4" y2="1010.4" gradientTransform="translate(2930.6 894.9)" gradientUnits="userSpaceOnUse">
      <stop offset="0" stop-color="#444b8c"/>
      <stop offset="1" stop-color="#3e4177"/>
    </linearGradient>
    <linearGradient id="linear-gradient-29" x1="-1389.6" y1="920.3" x2="-1465.6" y2="812.5" gradientTransform="translate(2930.6 894.9)" gradientUnits="userSpaceOnUse">
      <stop offset="0" stop-color="#444b8c"/>
      <stop offset="1" stop-color="#3e4177"/>
    </linearGradient>
    <linearGradient id="linear-gradient-30" x1="-1535.2" y1="1098.8" x2="-1369" y2="761.2" gradientTransform="translate(2930.6 894.9)" gradientUnits="userSpaceOnUse">
      <stop offset="0" stop-color="#444b8c"/>
      <stop offset="1" stop-color="#3e4177"/>
    </linearGradient>
    <linearGradient id="linear-gradient-31" x1="-1616.6" y1="882.1" x2="-1251.3" y2="882.1" gradientTransform="translate(2930.6 894.9)" gradientUnits="userSpaceOnUse">
      <stop offset="0" stop-color="#444b8c"/>
      <stop offset="1" stop-color="#3e4177"/>
    </linearGradient>
    <linearGradient id="linear-gradient-32" x1="7774.6" y1="-812.7" x2="7720.1" y2="-951.2" gradientTransform="translate(8874.9 -283.2) rotate(160.5) scale(1 -1)" gradientUnits="userSpaceOnUse">
      <stop offset="0" stop-color="#311944"/>
      <stop offset="1" stop-color="#6b3976"/>
    </linearGradient>
    <linearGradient id="linear-gradient-33" x1="7758.1" y1="-806.1" x2="7703.5" y2="-944.7" gradientTransform="translate(8874.9 -283.2) rotate(160.5) scale(1 -1)" gradientUnits="userSpaceOnUse">
      <stop offset="0" stop-color="#311944"/>
      <stop offset="1" stop-color="#6b3976"/>
    </linearGradient>
    <linearGradient id="linear-gradient-34" x1="8193.2" y1="150" x2="8449.9" y2="665.3" gradientTransform="translate(8820.4 894.9) rotate(-180) scale(1 -1)" gradientUnits="userSpaceOnUse">
      <stop offset="0" stop-color="#ffc444"/>
      <stop offset="1" stop-color="#f36f56"/>
    </linearGradient>
    <linearGradient id="linear-gradient-35" x1="337.2" y1="488.3" x2="586.6" y2="950.9" gradientTransform="translate(4.4 894.9)" gradientUnits="userSpaceOnUse">
      <stop offset="0" stop-color="#ffc444"/>
      <stop offset="1" stop-color="#f36f56"/>
    </linearGradient>
    <linearGradient id="linear-gradient-36" x1="268.7" y1="519.2" x2="511" y2="1005.4" gradientTransform="translate(4.4 894.9)" gradientUnits="userSpaceOnUse">
      <stop offset="0" stop-color="#ffc444"/>
      <stop offset="1" stop-color="#f36f56"/>
    </linearGradient>
    <linearGradient id="linear-gradient-37" x1="2757.5" y1="784" x2="2772.6" y2="975.5" gradientTransform="translate(-626.3 894.9)" gradientUnits="userSpaceOnUse">
      <stop offset="0" stop-color="#26264f"/>
      <stop offset="1" stop-color="#444b8c"/>
    </linearGradient>
    <linearGradient id="linear-gradient-38" x1="2793.2" y1="890.9" x2="2790.4" y2="693" gradientTransform="translate(-626.3 894.9)" gradientUnits="userSpaceOnUse">
      <stop offset="0" stop-color="#893976"/>
      <stop offset="1" stop-color="#311944"/>
    </linearGradient>
    <linearGradient id="linear-gradient-39" x1="3010.9" y1="761.6" x2="3026" y2="953.6" gradientTransform="translate(-626.3 894.9)" gradientUnits="userSpaceOnUse">
      <stop offset="0" stop-color="#26264f"/>
      <stop offset="1" stop-color="#444b8c"/>
    </linearGradient>
    <linearGradient id="linear-gradient-40" x1="3025.6" y1="887.3" x2="3022.9" y2="689.4" gradientTransform="translate(-626.3 894.9)" gradientUnits="userSpaceOnUse">
      <stop offset="0" stop-color="#893976"/>
      <stop offset="1" stop-color="#311944"/>
    </linearGradient>
    <linearGradient id="linear-gradient-41" x1="2124.6" y1="570.3" x2="2255.4" y2="570.3" gradientTransform="translate(0 894.9)" gradientUnits="userSpaceOnUse">
      <stop offset="0" stop-color="#ab316d"/>
      <stop offset="1" stop-color="#792d3d"/>
    </linearGradient>
    <linearGradient id="linear-gradient-42" x1="2133.7" y1="570.4" x2="2255.4" y2="570.4" gradientTransform="translate(0 894.9)" gradientUnits="userSpaceOnUse">
      <stop offset="0" stop-color="#ab316d"/>
      <stop offset="1" stop-color="#792d3d"/>
    </linearGradient>
    <linearGradient id="linear-gradient-43" x1="2161" y1="556.1" x2="2424.2" y2="556.1" gradientTransform="translate(0 894.9)" gradientUnits="userSpaceOnUse">
      <stop offset="0" stop-color="#ab316d"/>
      <stop offset="1" stop-color="#792d3d"/>
    </linearGradient>
    <linearGradient id="linear-gradient-44" x1="2794.2" y1="532.1" x2="3019.1" y2="737.9" gradientTransform="translate(-279.7 -376.5) rotate(14.3)" gradientUnits="userSpaceOnUse">
      <stop offset="0" stop-color="#26264f"/>
      <stop offset="1" stop-color="#444b8c"/>
    </linearGradient>
    <linearGradient id="linear-gradient-45" x1="1156.8" y1="-1572.9" x2="1203.6" y2="-1572.9" gradientTransform="translate(1292.1 2795.9) rotate(-25.5)" gradientUnits="userSpaceOnUse">
      <stop offset="0" stop-color="#893976"/>
      <stop offset="1" stop-color="#311944"/>
    </linearGradient>
    <linearGradient id="linear-gradient-46" x1="1383.6" y1="-1360.1" x2="1592.3" y2="-612.5" gradientTransform="translate(1292.1 2795.9) rotate(-25.5)" gradientUnits="userSpaceOnUse">
      <stop offset="0" stop-color="#aa80f9"/>
      <stop offset="1" stop-color="#6165d7"/>
    </linearGradient>
    <linearGradient id="linear-gradient-47" x1="2189.5" y1="-34.3" x2="2398.1" y2="713.4" gradientTransform="translate(0 894.9)" gradientUnits="userSpaceOnUse">
      <stop offset="0" stop-color="#aa80f9"/>
      <stop offset="1" stop-color="#6165d7"/>
    </linearGradient>
    <linearGradient id="linear-gradient-48" x1="2068.1" y1="112.7" x2="1986.1" y2="248.6" gradientTransform="translate(0 894.9)" gradientUnits="userSpaceOnUse">
      <stop offset="0" stop-color="#6165d7"/>
      <stop offset="1" stop-color="#aa80f9"/>
    </linearGradient>
    <linearGradient id="linear-gradient-49" x1="2123.8" y1="107.8" x2="1920.8" y2="215.9" gradientTransform="translate(0 894.9)" gradientUnits="userSpaceOnUse">
      <stop offset="0" stop-color="#ff9085"/>
      <stop offset="1" stop-color="#fb6fbb"/>
    </linearGradient>
    <linearGradient id="linear-gradient-50" x1="2031.5" y1="-29.7" x2="2007.4" y2="49.2" gradientTransform="translate(0 894.9)" gradientUnits="userSpaceOnUse">
      <stop offset="0" stop-color="#26264f"/>
      <stop offset="1" stop-color="#444b8c"/>
    </linearGradient>
    <linearGradient id="linear-gradient-51" x1="2115.9" y1="94.7" x2="1913.8" y2="202.3" gradientTransform="translate(0 894.9)" gradientUnits="userSpaceOnUse">
      <stop offset="0" stop-color="#ff9085"/>
      <stop offset="1" stop-color="#fb6fbb"/>
    </linearGradient>
    <linearGradient id="linear-gradient-52" x1="2089.9" y1="178.4" x2="2163.9" y2="178.4" gradientTransform="translate(0 894.9)" gradientUnits="userSpaceOnUse">
      <stop offset="0" stop-color="#893976"/>
      <stop offset="1" stop-color="#311944"/>
    </linearGradient>
    <linearGradient id="linear-gradient-53" x1="2056.3" y1="178.1" x2="2536.2" y2="178.1" gradientTransform="translate(0 894.9)" gradientUnits="userSpaceOnUse">
      <stop offset="0" stop-color="#aa80f9"/>
      <stop offset="1" stop-color="#6165d7"/>
    </linearGradient>
    <linearGradient id="linear-gradient-54" x1="2211.9" y1="-40.5" x2="2420.5" y2="707.2" gradientTransform="translate(0 894.9)" gradientUnits="userSpaceOnUse">
      <stop offset="0" stop-color="#aa80f9"/>
      <stop offset="1" stop-color="#6165d7"/>
    </linearGradient>
    <linearGradient id="linear-gradient-55" x1="2787.2" y1="-244.6" x2="2881.9" y2="-382" gradientTransform="translate(-579.1 1626.8) rotate(-11.9)" gradientUnits="userSpaceOnUse">
      <stop offset="0" stop-color="#893976"/>
      <stop offset="1" stop-color="#311944"/>
    </linearGradient>
    <linearGradient id="linear-gradient-56" x1="2775.7" y1="-311.2" x2="2942.9" y2="-411.9" gradientTransform="translate(-579.1 1626.8) rotate(-11.9)" gradientUnits="userSpaceOnUse">
      <stop offset="0" stop-color="#893976"/>
      <stop offset="1" stop-color="#311944"/>
    </linearGradient>
    <linearGradient id="linear-gradient-57" x1="3408.6" y1="1530.2" x2="3351.6" y2="1455.9" gradientTransform="translate(3724.1 894.9) rotate(-180) scale(1 -1)" gradientUnits="userSpaceOnUse">
      <stop offset="0" stop-color="#311944"/>
      <stop offset="1" stop-color="#893976"/>
    </linearGradient>
    <linearGradient id="linear-gradient-58" x1="3278.7" y1="1364.3" x2="3351.9" y2="1170.3" gradientTransform="translate(3724.1 894.9) rotate(-180) scale(1 -1)" gradientUnits="userSpaceOnUse">
      <stop offset="0" stop-color="#311944"/>
      <stop offset="1" stop-color="#893976"/>
    </linearGradient>
    <linearGradient id="linear-gradient-59" x1="3237.8" y1="1398.9" x2="3236.7" y2="1493.9" gradientTransform="translate(3724.1 894.9) rotate(-180) scale(1 -1)" gradientUnits="userSpaceOnUse">
      <stop offset="0" stop-color="#311944"/>
      <stop offset="1" stop-color="#893976"/>
    </linearGradient>
    <linearGradient id="linear-gradient-60" x1="117.6" y1="889.6" x2="553.2" y2="1185.4" gradientTransform="translate(0 894.9)" gradientUnits="userSpaceOnUse">
      <stop offset="0" stop-color="#311944"/>
      <stop offset="1" stop-color="#6b3976"/>
    </linearGradient>
    <linearGradient id="linear-gradient-61" x1="635.4" y1="1032.8" x2="650.9" y2="1282.2" gradientTransform="translate(0 894.9)" gradientUnits="userSpaceOnUse">
      <stop offset="0" stop-color="#e38ddd"/>
      <stop offset="1" stop-color="#9571f6"/>
    </linearGradient>
    <linearGradient id="linear-gradient-62" x1="2874" y1="1741.6" x2="2955" y2="1741.6" gradientTransform="translate(3724.1 894.9) rotate(-180) scale(1 -1)" gradientUnits="userSpaceOnUse">
      <stop offset="0" stop-color="#311944"/>
      <stop offset="1" stop-color="#6b3976"/>
    </linearGradient>
    <linearGradient id="linear-gradient-63" x1="2912.1" y1="1773.6" x2="3033" y2="1411" gradientTransform="translate(3724.1 894.9) rotate(-180) scale(1 -1)" gradientUnits="userSpaceOnUse">
      <stop offset="0" stop-color="#ffc444"/>
      <stop offset="1" stop-color="#f36f56"/>
    </linearGradient>
    <linearGradient id="linear-gradient-64" x1="2886.9" y1="1592.8" x2="2936.4" y2="1592.8" gradientTransform="translate(3724.1 894.9) rotate(-180) scale(1 -1)" gradientUnits="userSpaceOnUse">
      <stop offset="0" stop-color="#311944"/>
      <stop offset="1" stop-color="#6b3976"/>
    </linearGradient>
    <linearGradient id="linear-gradient-65" x1="2858.2" y1="1728.9" x2="2939.1" y2="1486.2" gradientTransform="translate(3724.1 894.9) rotate(-180) scale(1 -1)" gradientUnits="userSpaceOnUse">
      <stop offset="0" stop-color="#ffc444"/>
      <stop offset="1" stop-color="#f36f56"/>
    </linearGradient>
    <linearGradient id="linear-gradient-66" x1="2957.9" y1="1320" x2="3018.2" y2="1668.9" gradientTransform="translate(3724.1 894.9) rotate(-180) scale(1 -1)" gradientUnits="userSpaceOnUse">
      <stop offset="0" stop-color="#ab316d"/>
      <stop offset="1" stop-color="#792d3d"/>
    </linearGradient>
    <linearGradient id="linear-gradient-67" x1="3043.1" y1="1733.5" x2="3128.9" y2="1461.9" gradientTransform="translate(3724.1 894.9) rotate(-180) scale(1 -1)" gradientUnits="userSpaceOnUse">
      <stop offset="0" stop-color="#ab316d"/>
      <stop offset="1" stop-color="#792d3d"/>
    </linearGradient>
    <linearGradient id="linear-gradient-68" x1="3043.2" y1="1733.5" x2="3129" y2="1461.9" gradientTransform="translate(3724.1 894.9) rotate(-180) scale(1 -1)" gradientUnits="userSpaceOnUse">
      <stop offset="0" stop-color="#ab316d"/>
      <stop offset="1" stop-color="#792d3d"/>
    </linearGradient>
    <linearGradient id="linear-gradient-69" x1="3163.9" y1="1284.8" x2="3224.1" y2="1632.9" gradientTransform="translate(3724.1 894.9) rotate(-180) scale(1 -1)" gradientUnits="userSpaceOnUse">
      <stop offset="0" stop-color="#ab316d"/>
      <stop offset="1" stop-color="#792d3d"/>
    </linearGradient>
    <linearGradient id="linear-gradient-70" x1="3076.8" y1="1068.6" x2="3611.6" y2="1264.5" gradientTransform="translate(3724.1 894.9) rotate(-180) scale(1 -1)" gradientUnits="userSpaceOnUse">
      <stop offset="0" stop-color="#e38ddd"/>
      <stop offset="1" stop-color="#9571f6"/>
    </linearGradient>
    <linearGradient id="linear-gradient-71" x1="2210.8" y1="1239.1" x2="2216.9" y2="1075.3" gradientTransform="translate(-1489.4 338.9) rotate(10.3)" gradientUnits="userSpaceOnUse">
      <stop offset="0" stop-color="#ffc444"/>
      <stop offset="1" stop-color="#f36f56"/>
    </linearGradient>
    <linearGradient id="linear-gradient-72" x1="941.9" y1="-1939.9" x2="939.3" y2="-1727.8" gradientTransform="translate(643.4 3955.9) rotate(-30.6)" gradientUnits="userSpaceOnUse">
      <stop offset="0" stop-color="#ffc444"/>
      <stop offset="1" stop-color="#f36f56"/>
    </linearGradient>
    <linearGradient id="linear-gradient-73" x1="332.7" y1="1055.1" x2="348.5" y2="1309.9" gradientTransform="translate(0 894.9)" gradientUnits="userSpaceOnUse">
      <stop offset="0" stop-color="#e38ddd"/>
      <stop offset="1" stop-color="#9571f6"/>
    </linearGradient>
    <linearGradient id="linear-gradient-74" x1="588.6" y1="1109.6" x2="1057" y2="1109.6" gradientTransform="translate(0 894.9)" gradientUnits="userSpaceOnUse">
      <stop offset="0" stop-color="#444b8c"/>
      <stop offset="1" stop-color="#3e4177"/>
    </linearGradient>
    <linearGradient id="linear-gradient-75" x1="595.2" y1="1112.1" x2="1059.9" y2="1112.1" gradientTransform="translate(0 894.9)" gradientUnits="userSpaceOnUse">
      <stop offset="0" stop-color="#444b8c"/>
      <stop offset="1" stop-color="#3e4177"/>
    </linearGradient>
    <linearGradient id="linear-gradient-76" x1="595.2" y1="1195.6" x2="1015.6" y2="1195.6" gradientTransform="translate(0 894.9)" gradientUnits="userSpaceOnUse">
      <stop offset="0" stop-color="#444b8c"/>
      <stop offset="1" stop-color="#3e4177"/>
    </linearGradient>
    <linearGradient id="linear-gradient-77" x1="727.9" y1="1283.6" x2="825.1" y2="1283.6" gradientTransform="translate(0 894.9)" gradientUnits="userSpaceOnUse">
      <stop offset="0" stop-color="#444b8c"/>
      <stop offset="1" stop-color="#3e4177"/>
    </linearGradient>
    <linearGradient id="linear-gradient-78" x1="729.9" y1="1279" x2="826.3" y2="1279" gradientTransform="translate(0 894.9)" gradientUnits="userSpaceOnUse">
      <stop offset="0" stop-color="#444b8c"/>
      <stop offset="1" stop-color="#3e4177"/>
    </linearGradient>
    <linearGradient id="linear-gradient-79" x1="809.5" y1="1203.6" x2="929.9" y2="1203.6" gradientTransform="translate(0 894.9)" gradientUnits="userSpaceOnUse">
      <stop offset="0" stop-color="#444b8c"/>
      <stop offset="1" stop-color="#3e4177"/>
    </linearGradient>
    <linearGradient id="linear-gradient-80" x1="814.8" y1="1203.6" x2="935.1" y2="1203.6" gradientTransform="translate(0 894.9)" gradientUnits="userSpaceOnUse">
      <stop offset="0" stop-color="#444b8c"/>
      <stop offset="1" stop-color="#3e4177"/>
    </linearGradient>
    <linearGradient id="linear-gradient-81" x1="468" y1="1242" x2="484.6" y2="1299.3" gradientTransform="translate(0 894.9)" gradientUnits="userSpaceOnUse">
      <stop offset="0" stop-color="#ffc444"/>
      <stop offset="1" stop-color="#f36f56"/>
    </linearGradient>
    <linearGradient id="linear-gradient-82" x1="-6434.3" y1="-253.4" x2="-6083.1" y2="-581.5" gradientTransform="translate(7297 894.9)" gradientUnits="userSpaceOnUse">
      <stop offset="0" stop-color="#ff9085"/>
      <stop offset="1" stop-color="#fb6fbb"/>
    </linearGradient>
    <linearGradient id="linear-gradient-83" x1="1512.6" y1="-266.7" x2="562" y2="-293.1" gradientTransform="translate(0 894.9)" gradientUnits="userSpaceOnUse">
      <stop offset="0" stop-color="#ffc444"/>
      <stop offset="1" stop-color="#f36f56"/>
    </linearGradient>
    <linearGradient id="linear-gradient-84" x1="1236.6" y1="-772.5" x2="468.9" y2="809.1" gradientTransform="translate(0 894.9)" gradientUnits="userSpaceOnUse">
      <stop offset="0" stop-color="#ffc444"/>
      <stop offset="1" stop-color="#f36f56"/>
    </linearGradient>
    <linearGradient id="linear-gradient-85" x1="1133" y1="-558.3" x2="585.6" y2="569.5" gradientTransform="translate(0 894.9)" gradientUnits="userSpaceOnUse">
      <stop offset="0" stop-color="#ffc444"/>
      <stop offset="1" stop-color="#f36f56"/>
    </linearGradient>
    <linearGradient id="linear-gradient-86" x1="887.2" y1="-501.7" x2="789.2" y2="-504.5" gradientTransform="translate(0 894.9)" gradientUnits="userSpaceOnUse">
      <stop offset="0" stop-color="#ab316d"/>
      <stop offset="1" stop-color="#792d3d"/>
    </linearGradient>
    <linearGradient id="linear-gradient-87" x1="1162.3" y1="-489.1" x2="1064.4" y2="-491.8" gradientTransform="translate(0 894.9)" gradientUnits="userSpaceOnUse">
      <stop offset="0" stop-color="#ab316d"/>
      <stop offset="1" stop-color="#792d3d"/>
    </linearGradient>
    <linearGradient id="linear-gradient-88" x1="8239.3" y1="-390.1" x2="8464.1" y2="61.1" gradientTransform="translate(8820.4 894.9) rotate(-180) scale(1 -1)" gradientUnits="userSpaceOnUse">
      <stop offset="0" stop-color="#aa80f9"/>
      <stop offset="1" stop-color="#6165d7"/>
    </linearGradient>
    <linearGradient id="linear-gradient-89" x1="365.3" y1="-93.6" x2="583.8" y2="311.5" gradientTransform="translate(-34.3 894.9)" gradientUnits="userSpaceOnUse">
      <stop offset="0" stop-color="#aa80f9"/>
      <stop offset="1" stop-color="#6165d7"/>
    </linearGradient>
    <linearGradient id="linear-gradient-90" x1="305.3" y1="-66.7" x2="517.4" y2="359.1" gradientTransform="translate(-34.3 894.9)" gradientUnits="userSpaceOnUse">
      <stop offset="0" stop-color="#aa80f9"/>
      <stop offset="1" stop-color="#6165d7"/>
    </linearGradient>
    <linearGradient id="linear-gradient-91" x1="7816.8" y1="-380.4" x2="8075.4" y2="138.6" gradientTransform="translate(8820.4 894.9) rotate(-180) scale(1 -1)" gradientUnits="userSpaceOnUse">
      <stop offset="0" stop-color="#ff9085"/>
      <stop offset="1" stop-color="#fb6fbb"/>
    </linearGradient>
    <linearGradient id="linear-gradient-92" x1="667.6" y1="126.3" x2="918.7" y2="592.2" gradientTransform="translate(-34.3 894.9)" gradientUnits="userSpaceOnUse">
      <stop offset="0" stop-color="#ff9085"/>
      <stop offset="1" stop-color="#fb6fbb"/>
    </linearGradient>
    <linearGradient id="linear-gradient-93" x1="598.5" y1="157.3" x2="842.5" y2="647" gradientTransform="translate(-34.3 894.9)" gradientUnits="userSpaceOnUse">
      <stop offset="0" stop-color="#ff9085"/>
      <stop offset="1" stop-color="#fb6fbb"/>
    </linearGradient>
    <linearGradient id="linear-gradient-94" x1="2147.4" y1="-389.3" x2="2531.4" y2="-389.3" gradientTransform="translate(0 894.9)" gradientUnits="userSpaceOnUse">
      <stop offset="0" stop-color="#ffc444"/>
      <stop offset="1" stop-color="#f36f56"/>
    </linearGradient>
    <linearGradient id="linear-gradient-95" x1="2176.1" y1="-489.3" x2="2496.6" y2="-67.2" gradientTransform="translate(0 894.9)" gradientUnits="userSpaceOnUse">
      <stop offset="0" stop-color="#ffc444"/>
      <stop offset="1" stop-color="#f36f56"/>
    </linearGradient>
    <linearGradient id="linear-gradient-96" x1="2182.8" y1="1112.6" x2="1941.3" y2="2982.2" gradientTransform="translate(0 894.9)" gradientUnits="userSpaceOnUse">
      <stop offset="0" stop-color="#ff9085"/>
      <stop offset="1" stop-color="#fb6fbb"/>
    </linearGradient>
    <linearGradient id="linear-gradient-97" x1="2037.9" y1="1395.5" x2="1882" y2="2602.3" gradientTransform="translate(0 894.9)" gradientUnits="userSpaceOnUse">
      <stop offset="0" stop-color="#aa80f9"/>
      <stop offset="1" stop-color="#6165d7"/>
    </linearGradient>
  </defs>
  <!-- Generator: Adobe Illustrator 28.6.0, SVG Export Plug-In . SVG Version: 1.2.0 Build 709)  -->
  <g>
    <g id="Layer_1">
      <g id="Layer_1-2" data-name="Layer_1">
        <g id="Illustration">
          <g>
            <path class="cls-97" d="M2779.3,1203.4c-76.3-499.5-389.2-1113.3-1007.4-1177.5,0,0-469.4-57.1-932,29.4-274.6,51.4-515.4,204.2-667.7,423.9C19.8,699-31.1,966.9,30.7,1222.3c40.1,165.9,67.2,337.6,59.8,508-12.9,296.7-5.5,573.6,282.4,750.5,257.1,158,580.6,297.3,889.3,321.7,209.8,16.6,445-10.3,647.2-64.9,1030.3-278.3,946.3-1034.8,870-1534.3h0Z"/>
            <g>
              <g>
                <path class="cls-112" d="M2467.2,705.4l-56.8-10.6c3.1-38.2.9-75.9-6.2-112.2l53.2-18.8c14.5-5.1,22.2-21.5,17.2-36.5l-13.4-40c-5-15.1-21-23.3-35.6-18.3l-52.4,18c-16.3-35-37.3-67.9-62.7-97.4l36-41.7c10.3-12,9-30.5-3-41.5l-32.1-29.3c-12.1-11.1-30.5-10.4-41,1.7l-36,41.2c-32-22.9-67.7-41.9-106.6-55.7l10.3-55c3-16.2-7.7-32.5-24.1-36.3l-43.8-10.3c-16.6-3.9-32.5,6.2-35.6,22.6l-10.4,55.6c-41.9-4.3-83.4-2.5-123.4,4.8l-20.1-55.8c-5.9-16.4-24.1-25.7-40.6-20.8l-44.3,13.1c-16.7,5-25.4,22.4-19.4,38.9l20.9,57.1c-37.9,17.4-73.1,40-104.4,67.4l-49.4-41.6c-14-11.8-35-11-46.8,1.9l-31.6,34.3c-11.9,13-10.1,33,4.1,44.8l51.2,42.4c-22.7,33.5-40.8,70.7-53.1,110.7l-68.6-12.8c-18.5-3.4-36.1,7.7-39.3,25l-8.6,45.8c-3.2,17.2,9.2,33.8,27.7,37.1l70.6,12.3c-1.6,41.1,3,81.3,13.1,119.8l-68.8,23.6c-17.5,6-26.6,24.1-20.1,40.4l17.1,43.1c6.4,16.2,25.7,24.2,43.1,18.1l69.7-24.7c19.5,34.4,43.8,66,72.2,93.8l-47.8,54.7c-11.6,13.3-9.9,32.7,4,43.2l36.6,27.7c13.7,10.4,34.1,8,45.5-5.3l47.5-55c33.1,19.2,69.2,34.2,107.6,44.2l-12.9,68.8c-3.1,16.4,8.2,31.4,25.1,33.6l44.7,5.7c16.7,2.1,32.6-9.3,35.7-25.5l12.8-68.1c38.9.6,76.9-3.9,113.2-13l22.8,62.3c5.5,14.9,22.3,22,37.7,15.8l40.6-16.2c15.2-6.1,23.2-22.9,17.8-37.7l-22-61.2c33.3-17.5,64.1-39.2,91.5-64.4l48.4,40c11.9,9.8,29.8,7.7,39.9-4.6l27-32.8c10.1-12.3,8.9-30.2-2.9-40.1l-46.7-39.3c20.4-30.5,36.9-64,48.8-99.8l58.4,10.2c15.1,2.6,29.6-7.8,32.5-23.2l7.7-41.1c2.9-15.5-6.9-30.3-21.9-33.1h.2ZM1944.1,957.8c-169.1-25.3-285.2-182-253.8-349.2s196.7-273,363.9-237.3c161.5,34.4,264.5,188.8,235,345.8-29.5,157.1-181.8,265.2-345.2,240.7h0Z"/>
                <polygon class="cls-112" points="1896.1 177.3 1855.9 168.3 1835.2 202 1896.1 177.3"/>
                <polygon class="cls-112" points="2293.8 269.3 2340.3 278.5 2333.9 312.9 2293.8 269.3"/>
                <polygon class="cls-112" points="2440.3 468.5 2486.4 479.1 2469.9 502.9 2440.3 468.5"/>
                <polygon class="cls-112" points="2471.1 706.6 2517.3 719.2 2497.7 739 2471.1 706.6"/>
                <polygon class="cls-112" points="2332.6 1014 2376.9 1029 2389.5 992.9 2332.6 1014"/>
                <polygon class="cls-112" points="2126.9 1149 2166.4 1164.1 2175.3 1134.5 2126.9 1149"/>
                <polygon class="cls-112" points="1908.8 1183.1 1873.3 1169.7 1913.7 1128.7 1908.8 1183.1"/>
                <polygon class="cls-112" points="1717.4 1106.2 1676.3 1089.4 1716.8 1055.6 1717.4 1106.2"/>
                <polygon class="cls-112" points="1620.9 295.5 1665.3 305.2 1641.5 334.4 1620.9 295.5"/>
                <polygon class="cls-112" points="1466.5 628.7 1506.2 642.4 1509.3 608.3 1466.5 628.7"/>
                <polygon class="cls-112" points="1508.3 890 1547.1 904 1555.3 878.1 1508.3 890"/>
              </g>
              <path class="cls-88" d="M2512.3,717.7l-57.2-10.6c3.2-38.5.9-76.5-6.2-113.1l53.7-19c14.7-5.2,22.4-21.6,17.4-36.8l-13.5-40.4c-5.1-15.2-21.2-23.5-35.9-18.4l-52.9,18.1c-16.4-35.3-37.7-68.4-63.2-98.2l36.3-42c10.4-12.1,9.1-30.8-3-41.8l-32.3-29.6c-12.2-11.2-30.7-10.5-41.3,1.7l-36.3,41.5c-32.3-23.1-68.3-42.2-107.5-56.2l10.4-55.4c3.1-16.3-7.8-32.7-24.3-36.6l-44.2-10.4c-16.7-3.9-32.8,6.3-35.9,22.8l-10.5,56c-42.2-4.3-84.1-2.5-124.5,4.9l-20.2-56.2c-5.9-16.5-24.3-25.9-41-21l-44.6,13.2c-16.9,5-25.7,22.6-19.6,39.3l21.1,57.6c-38.2,17.5-73.7,40.4-105.3,67.9l-49.8-42c-14.1-11.9-35.3-11.1-47.2,1.9l-31.9,34.6c-12,13.1-10.1,33.3,4.2,45.1l51.7,42.7c-22.9,33.8-41.1,71.2-53.5,111.6l-69.2-12.9c-18.6-3.5-36.4,7.8-39.7,25.2l-8.7,46.2c-3.3,17.4,9.3,34.1,27.9,37.4l71.2,12.4c-1.6,41.4,3.1,82,13.2,120.8l-69.3,23.8c-17.7,6.1-26.8,24.3-20.3,40.7l17.2,43.5c6.4,16.3,25.9,24.4,43.4,18.2l70.3-24.8c19.7,34.7,44.2,66.5,72.8,94.6l-48.2,55.1c-11.7,13.4-9.9,32.9,4,43.5l36.9,28c13.8,10.5,34.3,8,45.9-5.3l47.9-55.4c33.4,19.3,69.8,34.5,108.5,44.6l-13,69.4c-3.1,16.5,8.2,31.7,25.3,33.8l45,5.7c16.8,2.1,32.9-9.4,36-25.7l12.9-68.6c39.3.6,77.6-3.9,114.2-13.1l23,62.9c5.5,15,22.5,22.2,38,16l40.9-16.3c15.3-6.1,23.3-23.1,18-38l-22.2-61.7c33.6-17.6,64.6-39.5,92.3-64.9l48.8,40.3c12,9.9,30,7.8,40.3-4.7l27.2-33c10.2-12.4,8.9-30.5-2.9-40.4l-47-39.7c20.5-30.8,37.2-64.5,49.2-100.6l58.9,10.3c15.2,2.7,29.8-7.8,32.8-23.4l7.8-41.5c2.9-15.6-6.9-30.5-22.1-33.3l-.2-.3ZM1984.9,972.1c-170.5-25.5-287.5-183.5-255.9-352.1,31.6-168.6,198.4-275.2,366.9-239.3,162.8,34.7,266.7,190.3,237,348.7-29.7,158.3-183.3,267.3-348,242.7h0Z"/>
            </g>
            <g>
              <path class="cls-110" d="M711.3,1151.6l-32.2-19.4h-14.5s-5,18.4-4.4,19.4c6.5,10.6,36.6,18.7,55.5,19.4,3.1,0,7.5,0,8.6-2.1,1.9-3.8-6.6-11.9-12.9-17.2h0Z"/>
              <path class="cls-28" d="M678.5,1111.2c0,11.3.4,19.2,3.3,22.7,2,2.5-17.1,8-17.2-1.6,0-6.3-1.1-17.2-2.1-20.4,5.3-.2,10.7-.5,16-.7Z"/>
            </g>
            <g>
              <path class="cls-63" d="M899,1127.8l-32.2-19.4h-14.5s-5,18.4-4.4,19.4c6.5,10.6,36.6,18.7,55.5,19.4,3.1,0,7.5,0,8.6-2.1,1.9-3.8-6.6-11.9-12.9-17.2h0Z"/>
              <path class="cls-54" d="M857,1087.4c4.7,9,9.6,19.1,12.5,22.6,2,2.5-13.9,7.4-17.2-1.6-2.7-7.3-10.3-17.1-11.3-20.2,5.3-.2,10.7-.5,16-.7h0Z"/>
            </g>
            <path class="cls-65" d="M850.4,559.3c-12.5,82.9-20.6,186-13.3,303.7,5.4,87,18.2,164.2,33.1,229.7-9.9,2.6-19.9,5.2-29.8,7.7-12.4-2.9-29.9-9.1-42-24.3-15.8-20-8.6-38.5-19.9-71.8-10.8-31.8-23.6-33.5-36.4-60.8-16.8-35.6-6.5-57.3-7.7-104.9-2-80.5-33.1-86.7-43.1-186.7-5.2-52.3-7.8-82.4,11-101.6,26.4-27,84.5-22.2,148,8.8v.2Z"/>
            <path class="cls-98" d="M781.9,542.6c-34,79.2-69.4,180.7-92.8,301.5-18.7,96.6-25.4,183.8-26.5,257.4h-33.1c-9.6-13.9-22.2-35.6-29.8-64.1-7.6-28.4-2.8-35.7-7.7-80.6-6.7-61.2-15.4-64-14.4-100.5,1.2-42,14-41.8,18.8-83.9,7.1-62.4-18.7-81.6-17.7-139.2.5-25.9,6.4-64.8,35.3-112.7,56,7.4,111.9,14.7,167.9,22.1Z"/>
            <path class="cls-91" d="M771.7,152.7c33.9-10.9,60.4-7.8,107.7-2.5,69,7.8,113.3,30.7,151.6,50.5,37.7,19.5,47.7,30.5,53,43.1,12.5,29.4-2.7,61.4-12.4,81.2-24.8,50.4-47.8,48.7-100.2,109.3-46.2,53.4-69.3,80.1-84.5,119.3-6.7,17.3-13.3,39.8-34.8,53-20.8,12.8-44.5,10-58,8.3-56.6-7.4-61.7-44-98.6-41.4-29.4,2-35.8,25.9-86.2,34-22.5,3.6-29.1,0-32.3-2.5-12.3-9.7-10.8-33,.8-80.4,17.9-72.8,33.9-96.4,48.9-154.1,15.6-59.9,3.6-54.6,16.6-88.6,4.4-11.4,40.1-101,128.4-129.2h0Z"/>
            <path class="cls-77" d="M773.6,412.4l25.6-11.2s9.8-13.9,17.7-16.3c7.9-2.3,36.3.9,36.3.9,0,0-2.8,11.2-8.4,13-5.6,1.9-22.8,3.3-25.6,8.8-2.8,5.6-13,9.8-16.7,7.9s-27.4,6-27.4,6l-1.4-9.3v.2Z"/>
            <path class="cls-9" d="M782.5,585.1c-11.8-14.4-5.4-31.6-21.5-46.4-26.2-24-73.7-6.2-76.2-14.9-3-10.4,68.2-25.4,76.2-66.3,3.6-18.5-9.8-21.7-8.3-46.4,1.4-23.2,15.9-42.3,44.7-79.5,22.8-29.4,29-31.8,29.8-43.1,2.6-33.9-40.2-57.5-58-69.6-21.7-14.8-44.4-22.5-65.6-26-39.5,36.4-57.4,81.1-60.4,89-13,34-1,28.7-16.6,88.6-15,57.7-31,81.3-48.9,154.1-11.7,47.4-13.1,70.6-.8,80.4,3.2,2.6,9.8,6.1,32.3,2.5,50.4-8.1,56.7-31.9,86.2-34,36.9-2.6,41.9,34,98.6,41.4,13.5,1.8,37.1,4.5,58-8.3,4.7-2.9,8.6-6.2,12.1-9.9-50.1,9.2-71.8.4-81.7-11.7h.1Z"/>
            <g>
              <path class="cls-35" d="M1013.9,116.8c-7.6,18.2-35.9,64.1-97.1,41.6-16.4-6-19.2-3.9-20.1-2.6-4.6,6.2,28.2,47.1,74.7,59.6,28.3,7.6,58.6,3.8,60.2-4.1,1.6-7.9-18.6-7.2-21-23.8-1.6-11.5,21.7-25.3,33.7-33.1-2-15.1-28.4-22.5-30.4-37.6Z"/>
              <g>
                <path class="cls-93" d="M1064.8,152.8c10.5-3.4,19-15.3,17.4-27-1.3-10-9.8-16.4-14.9-20.3-14.7-11.1-38.6-17.2-54.4-8.3-9.3,5.2-11.2,26.6-11.8,30.4-.6,4.2,1.5,7,2.5,11.1,1.4,5.6,3.5,14.5,6.7,29.2,2.5-2.2,5.9-4.9,10.1-7.5,1.6-1,8-4.8,15.1-6.8,14.3-4.1,19.2,2.5,29.2-.8h.1Z"/>
                <path class="cls-36" d="M1002.2,152.1s0,21.5,21.7,32.6c19.3,9.9,47-25.6,40.5-40.5-2.2-5-9.3-10.8-16.8-13-4.4-1.3-6.7-.7-13.9-3-6.7-2.1-7.9-3.7-10.5-3.4-3.3.3-7.6,3.4-11.3,16.4-1.4-5.3-4.8-9.1-8.7-9.6-.6,0-2.4,0-3.9.7-5.5,2.7-4.8,10.7,3,19.8h0Z"/>
              </g>
            </g>
            <path class="cls-3" d="M881,164.3c-22.4-37.8-127.8-24-198.8,17.4-23.1,13.5-93.6,54.6-98.6,125.9-.5,7.8-1.9,39.3,16.6,68.8,31.1,49.6,104.6,71.5,182.2,52.2-.8-8.3-1.7-16.6-2.5-24.9-6.6.2-32.9.4-56.3-19.1-4.7-3.9-32.5-27-28.2-48,7.3-35.3,95.4-16.1,152.4-75.4,25.6-26.6,47.9-72,33.1-96.9h0Z"/>
            <g>
              <g>
                <path class="cls-112" d="M1586.2,2235.9c-31.1-10.3-54.4-36.8-61-69.3l-45.3-224.4-387.8,13.8-47.7,233.7c-6.7,32.7,20.1,65.6,50.9,77.6l162.2,63.5c30.2,11.8,62.6,16.5,94.9,13.8l342.9-29.3c10-.9,18.1-8.7,19.2-18.8,1.2-10.1,8.2-21.5-1.4-24.6l-126.9-35.9h0Z"/>
                <path class="cls-83" d="M1590,2222.2c-31.1-10.2-54.4-36.3-60.9-68.4l-45.3-221.6-378.3,13.6-47.7,230.8c-6.7,32.3,11,64.7,41.8,76.6l162.1,62.7c30.1,11.7,62.6,16.3,94.8,13.6l342.5-29c10-.8,18-8.6,19.2-18.6s-4.9-19.4-14.4-22.5l-113.7-37.3h-.1Z"/>
              </g>
              <g>
                <g>
                  <path class="cls-112" d="M299.6,2091.4c-42.1,2.5-76.5-24.8-76.5-60.8V731.1c0-36.1,34.4-63.9,76.5-62.1l1944.8,84.3c30.9,1.3,55.9,27.4,55.9,58v1105.2c0,30.7-25,57.1-55.9,58.9l-1944.8,115.9h0Z"/>
                  <path class="cls-42" d="M317.1,2091.4c-42.1,2.5-76.5-24.8-76.5-60.8V731.1c0-36.1,34.4-63.9,76.5-62.1l1944.9,84.3c30.9,1.3,55.9,27.4,55.9,58v1105.2c0,30.7-25,57.1-55.9,58.9l-1944.9,115.9h0Z"/>
                  <path class="cls-19" d="M2262,779.3l-1944.8-80c-22.5-.9-40.8,13.9-40.8,33.2v1296.1c0,19.3,18.3,33.8,40.8,32.5l1944.8-111.7c16.5-.9,29.9-15.1,29.9-31.5V810.3c0-16.5-13.4-30.3-29.9-31Z"/>
                  <path class="cls-88" d="M317.1,1950.7c-8.8.4-15.9-5.3-15.9-12.8V733.4c0-7.5,7.1-13.3,15.9-13l1944.9,77c6.5.3,11.7,5.7,11.7,12.1v1032.8c0,6.4-5.2,11.9-11.7,12.2l-1944.9,96.1h0Z"/>
                </g>
                <path class="cls-11" d="M2058.9,1895c-163.6-101.2-49.3-389-233.1-533.6-185.3-145.8-445.9,33-575.7-117.9-96.6-112.4,16.4-248.1-75.8-353.8-144.7-165.8-515.1,62.2-685.2-101.1-24.2-23.2-48.5-58.4-62.4-114.8l-109.6-4.7c-42.1-1.8-76.5,26-76.5,62.1v1299.5c0,36.1,34.4,63.3,76.5,60.8l1944.8-115.9c30.9-1.8,55.9-28.3,55.9-58.9v-19.6c-129.1,43.8-208.1,29.6-258.9-1.8v-.3Z"/>
              </g>
              <g>
                <polygon class="cls-97" points="425.1 1852.5 893.2 1832.9 893.2 1587.5 425.1 1598.9 425.1 1852.5"/>
                <g class="cls-82">
                  <polygon class="cls-97" points="1679.1 1429.9 1750.2 1428.9 1750.2 909 1679.1 907.1 1679.1 1429.9"/>
                  <polygon class="cls-97" points="1550.8 1431.7 1623.3 1430.7 1623.3 1168.2 1550.8 1167.8 1550.8 1431.7"/>
                  <polygon class="cls-97" points="1419.9 1433.5 1493.8 1432.5 1493.8 852.2 1419.9 850 1419.9 1433.5"/>
                  <polygon class="cls-97" points="1286.5 1435.3 1361.9 1434.3 1361.9 935.2 1286.5 933.5 1286.5 1435.3"/>
                  <polygon class="cls-97" points="1150.4 1437.2 1227.3 1436.1 1227.3 1301 1150.4 1301.3 1150.4 1437.2"/>
                  <polygon class="cls-97" points="1011.5 1439.1 1090 1438 1090 1117.2 1011.5 1116.5 1011.5 1439.1"/>
                  <polygon class="cls-97" points="869.9 1441.1 949.9 1440 949.9 972.9 869.9 971.3 869.9 1441.1"/>
                  <polygon class="cls-97" points="725.3 1443.1 807 1441.9 807 1097.8 725.3 1097 725.3 1443.1"/>
                  <polygon class="cls-97" points="577.7 1445.1 661.1 1443.9 661.1 904.7 577.7 902.7 577.7 1445.1"/>
                  <polygon class="cls-97" points="427 1447.2 512.2 1446 512.2 840.3 427 837.9 427 1447.2"/>
                </g>
                <polygon class="cls-97" points="1815.5 1794.5 2165.4 1779.9 2165.4 1744.5 1815.5 1758.1 1815.5 1794.5"/>
                <polygon class="cls-97" points="1815.5 1324.9 2165.4 1322.8 2165.4 1287.4 1815.5 1288.6 1815.5 1324.9"/>
                <polygon class="cls-97" points="1815.5 1262.7 2165.4 1262.2 2165.4 1226.8 1815.5 1226.3 1815.5 1262.7"/>
                <polygon class="cls-97" points="1815.5 1744.2 1872.6 1742 1872.6 1686.2 1815.5 1688.2 1815.5 1744.2"/>
                <g>
                  <path class="cls-88" d="M1857.8,1560.4c0,74,60.8,131.9,135.1,129.3,73.4-2.5,132.3-63.3,132.3-135.7s-58.9-130.4-132.3-129.4c-74.2,1-135.1,61.8-135.1,135.8h0Z"/>
                  <path class="cls-14" d="M1865.6,1556.2c1.7-53.3,36.8-98.8,85.1-116.4,13.2-4.8,27.4-7.6,42.2-7.8,69.3-1,124.9,53.7,124.9,122.1s-55.6,125.7-124.9,128c-70,2.4-127.3-52.3-127.3-122s0-2.7,0-4h0Z"/>
                  <path class="cls-97" d="M1865.6,1556.2c1.7-53.3,36.8-98.8,85.1-116.4,13.2-4.8,27.4-7.6,42.2-7.8,69.3-1,124.9,53.7,124.9,122.1s-55.6,125.7-124.9,128c-70,2.4-127.3-52.3-127.3-122s0-2.7,0-4h0Z"/>
                  <path class="cls-42" d="M1865.6,1556.2c1.7-53.3,36.8-98.8,85.1-116.4l42.2,117.3-127.2-.9h0Z"/>
                </g>
                <path class="cls-97" d="M553.6,1698c29.7,1.1,34.2-16.1,63.4-17.8,49.7-2.8,61.8,45.5,109.7,44.8,39.1-.6,48.9-33.2,87.6-29.6,28.7,2.7,34.4,21.8,62.4,24.6,5.6.5,11.1.3,16.5-.5v113.4l-468.1,19.5v-200.7c25.1,1.8,43.4,7.5,56.5,13.2,31.6,13.8,42,31.9,72,33h0Z"/>
                <polygon class="cls-97" points="1815.5 1176.9 2165.4 1178.8 2165.4 871.9 1815.5 861.6 1815.5 1176.9"/>
                <polygon class="cls-97" points="427 1571 1750.2 1541.5 1750.2 1486 427 1510 427 1571"/>
                <polygon class="cls-97" points="949.9 1830.6 1750.2 1797.2 1750.2 1562.9 949.9 1582.1 949.9 1830.6"/>
              </g>
            </g>
            <g>
              <path class="cls-2" d="M2109.2,523.4l-1591.8-41c-53.4-1.4-96.8,31.6-96.8,73.8v1216.5c0,42.1,43.5,74.8,96.8,73l1591.8-53.3c46-1.5,83.2-34.3,83.2-73.2V596c0-38.9-37.2-71.4-83.2-72.5h0Z"/>
              <path class="cls-17" d="M2165.7,595.4v1124.6c0,26.5-25.3,48.8-56.6,49.8l-720.1,23.3-872.3,28.3c-36.3,1.2-66.5-21.1-66.5-49.7V556.9c0-28.6,30.3-51.1,66.6-50.2l1592.1,39.3c26,.7,48,15.9,54.7,36.3,1.4,4.2,2.2,8.6,2.2,13.1h0Z"/>
              <g>
                <polygon class="cls-42" points="1374.3 763.1 533.5 751.2 533.5 790 1374.3 800.4 1374.3 763.1"/>
                <polygon class="cls-42" points="2006.4 772 2006.4 808.3 2095.3 809.4 2095.3 773.3 2006.4 772"/>
              </g>
              <g>
                <polygon class="cls-42" points="711.2 884.8 533.5 883.3 533.5 843.4 711.2 845.2 711.2 884.8"/>
                <polygon class="cls-42" points="1660.8 892.8 824.7 885.8 824.7 846.3 1660.8 854.7 1660.8 892.8"/>
                <polygon class="cls-42" points="998 954.1 824.7 953.2 824.7 913.7 998 915 998 954.1"/>
                <polygon class="cls-42" points="1924.4 959.1 1108.7 954.7 1108.7 915.7 1924.4 921.5 1924.4 959.1"/>
                <polygon class="cls-42" points="998 1021 824.7 1020.6 824.7 981.1 998 981.9 998 1021"/>
                <polygon class="cls-42" points="1924.4 1023.3 1108.7 1021.3 1108.7 982.3 1924.4 985.7 1924.4 1023.3"/>
                <polygon class="cls-42" points="711.2 1088.1 533.5 1088.2 533.5 1048.2 711.2 1048.4 711.2 1088.1"/>
                <polygon class="cls-42" points="1660.8 1087.5 824.7 1088 824.7 1048.6 1660.8 1049.5 1660.8 1087.5"/>
                <polygon class="cls-42" points="998 1154.8 824.7 1155.4 824.7 1116 998 1115.7 998 1154.8"/>
                <polygon class="cls-42" points="1924.4 1151.6 1108.7 1154.4 1108.7 1115.5 1924.4 1114 1924.4 1151.6"/>
                <polygon class="cls-42" points="998 1221.7 824.7 1222.8 824.7 1183.4 998 1182.6 998 1221.7"/>
                <polygon class="cls-42" points="1924.4 1215.7 1108.7 1221 1108.7 1182 1924.4 1178.1 1924.4 1215.7"/>
                <polygon class="cls-42" points="998 1288.6 824.7 1290.3 824.7 1250.8 998 1249.5 998 1288.6"/>
                <polygon class="cls-42" points="1924.4 1279.9 1108.7 1287.6 1108.7 1248.6 1924.4 1242.3 1924.4 1279.9"/>
                <polygon class="cls-42" points="1280.3 1352 1111.3 1354.1 1111.3 1315.1 1280.3 1313.3 1280.3 1352"/>
                <polygon class="cls-42" points="2050.9 1342.4 1388.2 1350.7 1388.2 1312.2 2050.9 1305.1 2050.9 1342.4"/>
                <polygon class="cls-42" points="711.2 1426.8 533.5 1429.6 533.5 1389.6 711.2 1387.2 711.2 1426.8"/>
                <polygon class="cls-42" points="1660.8 1412.2 824.7 1425.1 824.7 1385.6 1660.8 1374.2 1660.8 1412.2"/>
                <polygon class="cls-42" points="998 1489.3 824.7 1492.5 824.7 1453 998 1450.2 998 1489.3"/>
                <polygon class="cls-42" points="1924.4 1472.3 1108.7 1487.3 1108.7 1448.3 1924.4 1434.7 1924.4 1472.3"/>
                <polygon class="cls-42" points="998 1556.2 824.7 1559.9 824.7 1520.5 998 1517.1 998 1556.2"/>
                <polygon class="cls-42" points="1924.4 1536.4 1108.7 1553.9 1108.7 1514.9 1924.4 1498.9 1924.4 1536.4"/>
                <polygon class="cls-42" points="711.2 1630.1 533.5 1634.4 533.5 1594.4 711.2 1590.4 711.2 1630.1"/>
                <polygon class="cls-42" points="1660.8 1607 824.7 1627.3 824.7 1587.9 1660.8 1569 1660.8 1607"/>
                <polygon class="cls-42" points="998 1690 824.7 1694.8 824.7 1655.3 998 1650.9 998 1690"/>
                <polygon class="cls-42" points="1924.4 1664.7 1108.7 1687 1108.7 1648 1924.4 1627.2 1924.4 1664.7"/>
              </g>
              <path class="cls-42" d="M2165.7,595.4v1124.6c0,26.5-25.3,48.8-56.6,49.8l-720,23.3V582.3h774.8c1.4,4.2,1.9,8.6,1.9,13.1h0Z"/>
              <path class="cls-109" d="M2109.2,523.4l-1591.8-41c-53.4-1.4-96.8,31.6-96.8,73.8v54.7l1771.8,35.6v-50.5c0-38.9-37.2-71.4-83.2-72.5h0Z"/>
              <g>
                <path class="cls-42" d="M586,552.7c0,13.7-12.5,24.5-28,24.1s-28.1-11.8-28.1-25.5,12.6-24.5,28.1-24.1,28,11.8,28,25.5Z"/>
                <path class="cls-42" d="M683.7,555.2c0,13.6-12.4,24.3-27.7,24-15.3-.4-27.8-11.7-27.8-25.4s12.5-24.4,27.8-24,27.7,11.8,27.7,25.4Z"/>
                <path class="cls-42" d="M780.5,557.7c0,13.5-12.3,24.2-27.5,23.9-15.2-.4-27.5-11.7-27.5-25.3s12.3-24.3,27.5-23.9c15.2.4,27.5,11.7,27.5,25.3Z"/>
              </g>
              <g class="cls-114">
                <path class="cls-42" d="M1490.5,991.1c-185.9-212.1-507.7-144.6-711.3-379-36.7-42.3-61.6-85.3-78.7-124.9l-183-4.7c-53.4-1.4-96.8,31.6-96.8,73.8v1216.5c0,42.1,43.5,74.8,96.8,73l1533.5-51.3c-35.1-39.7-341.1-186.9-420.1-412.8-72.3-206.6-28.1-262.4-140.3-390.4v-.2Z"/>
              </g>
              <g class="cls-96">
                <path class="cls-89" d="M1428.4,913.8l659.9,6.7c2.2,0,4.4-.8,6-2.4,1.6-1.6,2.5-3.7,2.5-5.9v-206.5c0-4.5-3.6-8.2-8.2-8.3l-659.9-14.6c-2.2,0-4.4.8-6,2.4-1.6,1.6-2.5,3.7-2.5,6v214.4c0,4.6,3.7,8.3,8.3,8.3h-.1Z"/>
                <path class="cls-115" d="M2091.8,1013.8l-666.8-3.4c-2.2,0-4.4.9-5.9,2.4s-2.5,3.7-2.5,5.9v669.9c0,2.3.9,4.4,2.5,6s3.8,2.4,6.1,2.4l666.8-20.4c4.5,0,8.1-3.8,8.1-8.3v-646.1c0-4.6-3.7-8.3-8.3-8.3h0Z"/>
              </g>
            </g>
            <g>
              <path class="cls-94" d="M1524.9,1704.7c20.9-22.4-37-106.4-68.1-143.2-27.1-32.2-55-65.2-89.2-61-30,3.7-59.3,35.4-61,65.7-4.7,81.7,188.5,170.3,218.3,138.5h0Z"/>
              <path class="cls-86" d="M1273.4,2568.1c-3.9,3.2-4.7,11.2-5.1,16.4-.2,2.3-.3,3.5,0,4.3,1.9,6,13.6,6.7,31.9,8.5,28.9,3,37.5,5.2,39.8.9,2.1-4-3-10.6-3.6-11.4-3.1-3.9-6.9-5.3-14.3-7.8-13.7-4.5-22.9-7-25.7-7.7-17.4-4.7-20.4-5.5-22.9-3.4v.2Z"/>
              <path class="cls-88" d="M1290.6,2541.6l2.9,33c-.8,1.6-10.6,6.4-18.4,2.3l-7.4-32.4,23-2.8h0Z"/>
              <path class="cls-101" d="M1502.9,2563.8c-4.7,5.2-5.8,14.8-1.7,19.6,4,4.7,10.1,1.2,27.3,1.7,18.5.6,23.3,4.9,35.8,1.4,5.1-1.4,14-4.8,13.8-8.4,0-2.5-4.7-3.9-19.9-9-21.6-7.2-21.5-7.6-26.1-8.4-11.5-1.9-23.1-3.8-29.3,3.1h0Z"/>
              <path class="cls-88" d="M1514.8,2533.7l9.3,30.8c-.7,1.7-10.1,7.2-18.2,3.7l-13.7-29.9,22.7-4.6h-.1Z"/>
              <path class="cls-68" d="M1432.5,1859.5c1.3,103.5,8.4,219.8,25.3,346.2,16.7,124.9,40.2,237.8,65.8,337-11.8,3.2-23.6,6.4-35.4,9.5-30-27.9-67.7-71.9-86-134-11.3-38.6-7.5-58.4-14.7-105.8-11.4-75.5-34.6-115.1-58.5-176-21.5-54.7-46.9-135-60.5-242.4,54.7-11.5,109.4-23,164.1-34.4h-.1Z"/>
              <path class="cls-111" d="M1325.9,1849.7c-7.2,131.6-13.2,265.6-17.7,402-3.4,102.4-5.9,203.4-7.5,303.1-12.1,1.5-24.1,3-36.2,4.5-11.7-21.7-27.1-54.9-37.7-97.4-12.9-51.6-9.9-82.3-15.5-135.8-6.3-60-15.5-73.1-31.8-148.8-33.1-153.7-49.6-230.5-12.7-278.3,12-15.5,49.6-54.4,159.2-49.3h-.1Z"/>
              <path class="cls-69" d="M1150.2,1519c28.2-7.9,69.6-17.2,120.3-20.1,72.3-4.1,108.5-6.1,134.1,11.1,59.2,39.8,13.4,131.6,37.6,359.1,3.5,32.5,4.2,65.2,6.7,97.8,4.1,53.9,5.1,56.9,1.3,62.3-23.5,34.3-111.4-17.4-240.1,3-72,11.4-104.7,37.8-124.4,18.8-23-22.2-3.3-81.8,13.7-133.1,19.5-58.9,31.6-59.7,42.6-104,11.6-46.4,4.6-70.2,2.8-143.3-.9-35-.7-87,5.3-151.6h0Z"/>
              <g class="cls-23">
                <path class="cls-33" d="M1325.2,1946.1c-33.6-2.6-55.5,16.4-84.5,1.6-39.8-20.3-52.6-83.6-50.1-128.3,3.9-68,42.7-85.9,36-129.9-3.6-23.8-20.6-55.3-81.5-87.6-.8,27.1-.7,50.3-.2,68.6,1.8,73.1,8.8,97-2.8,143.3-11.1,44.4-23.1,45.1-42.6,104-17,51.3-36.7,110.9-13.7,133.1,19.7,19,52.4-7.3,124.4-18.8,110.9-17.6,191.4,18.3,226.6,6.6-42.6-70.3-81.2-90.3-111.6-92.7h0Z"/>
              </g>
              <path class="cls-49" d="M1196.1,1523.6c-24-19.7-72.3,2.6-85.3,8.6-72,33.3-136.7,123.1-120.7,217.9,2.4,14.2,13.5,80.8,69.9,113,50.8,29.1,119.5,21.6,174.5-19.6,7.5-6.7,15-13.3,22.6-20,7.4-8,14.8-16,22.2-24-11.6-9.7-31.4-23.6-59.1-32.6-36.6-11.8-63.2,9.4-80.2-6.7-11.7-11.1-11.7-30.7-8.8-42.6,5.8-24,27-30.7,44.6-47.7,41.4-40,49.1-122.7,20.3-146.3h0Z"/>
              <g>
                <polygon class="cls-38" points="1541.3 1833.3 1219.3 1828.5 1304.9 1869.8 1542.2 1854.3 1541.3 1833.3"/>
                <path class="cls-4" d="M1207.9,1837.1h0c0,6,3.8,11.4,9.4,13.5l102.9,40.3.5-28-101.4-34.4c-5.7-1.6-11.4,2.6-11.4,8.6Z"/>
              </g>
              <path class="cls-42" d="M1257.5,1818c-2-.4,9.6-23.6,18.7-20.9s53.7,28.5,57.7,39.1l4.1,10.6s-19.4,1.5-31.5-2.5c-12.1-4.1-32.9-22.7-49-26.3h0Z"/>
              <g>
                <g>
                  <path class="cls-85" d="M1329.3,1666.7l-22.7,206.7c-.8,7.1,9.2,17.8,16.4,17.4l333-20.4c5.5-.3,10-4.3,11-9.7l41.8-199.6c1.2-7.3-11.8-14.8-19.2-14.6l-349,9.8c-5.8.2-10.6,4.6-11.3,10.4h0Z"/>
                  <path class="cls-56" d="M1336.9,1672.7l-22.7,206.7c-.8,7.1,5,13.3,12.2,12.9l337.2-16c5.5-.3,10-4.3,11-9.7l34.5-200.5c1.2-7.3-4.5-13.9-11.8-13.6l-349,9.8c-5.8.2-10.6,4.6-11.3,10.4h0Z"/>
                </g>
                <path class="cls-15" d="M1534.9,1827.9c-29.4-12.5-19.1-36.3-53.8-65.9-45.9-39.1-92.6-22.2-109-52.5-5.1-9.4-7.5-24.1,1.3-47.9l-25.3.7c-5.8.2-10.6,4.6-11.3,10.4l-22.7,206.7c-.8,7.1,5,13.3,12.2,12.9l337.2-16c5.5-.3,10-4.3,11-9.7l4.8-27.7c-10.2-5.7-22.5-10.9-36.7-13.8-49.5-10-73.7,17.1-107.6,2.7h-.1Z"/>
              </g>
              <path class="cls-88" d="M1684.8,1847.5c.5-1.7-.6-3.4-2.4-3.5-7.1-.4-23.7-.5-32.8,5.1-11.9,7.3-27.2,20.5-14.3,27.2l12.1,6.2c.6.3,1.2.4,1.8.2,4.3-.9,22.3-4.9,24.3-5.9s8.7-21.3,11.3-29.4h0Z"/>
              <g>
                <path class="cls-42" d="M1275.9,1419.9c.2,21.4-2.2,38.4-4.5,50.1-2.6,13.3-4.5,16.8-6.8,19.6-3.6,4.2-9,7.7-39.7,15.4-16.7,4.1-18.9,4-19.2,5.7-1.8,8.1,43.8,35.7,90.9,29,28.8-4.1,55-20.5,53.4-29.1-1.6-8.7-30.4-4-39-19.7-6-10.9.7-26.5,8.6-39.3-7.7-14.4-36-17.2-43.7-31.5v-.2Z"/>
                <g>
                  <path class="cls-106" d="M1317.6,1418.9c3.4-10.8-1.4-25.8-12-32.6-9.2-5.9-19.6-3.5-25.9-2.1-18.1,4.1-37.5,19-39.5,37.6-1.2,11.1,15.4,27.3,18.2,30.4,3.1,3.4,6.8,3.7,10.7,5.7,5.5,2.8,14.1,7.3,28.3,14.8-.3-3.6-.6-8.1-.2-13.2.2-2,.8-9.7,3.4-16.7,5.2-14.2,13.7-13.6,16.9-23.8h0Z"/>
                  <path class="cls-42" d="M1279.5,1468.4s18,14.8,40.2,5.3c19.9-8.4,6.9-55.2-9.4-60.3-5.5-1.7-14.6,0-21,4.4-3.8,2.6-4.6,4.9-10.8,9-5.8,3.9-7.8,3.8-9.1,6-1.7,2.8-1.7,8.4,6.9,20.3-5.3-2.6-10.5-2.5-13.2.3-.4.4-1.5,1.9-1.8,3.6-1,6.2,6.1,11.2,18.3,11.3h0Z"/>
                  <path class="cls-74" d="M1267.4,1430.5c1.2.4-.5,5.1,1.1,10.4,3.1,10.2,17.5,18.8,28.2,16.1,6.4-1.5,6.8-5.8,16.5-10.5,6.1-2.9,11.6-3.9,15.1-4.3,7,9.9,7.9,22,2.3,29.7-6,8.3-17.3,8.5-22.1,8.6-3.2,0-13.3.3-21-6.4-8-7-5-13.9-12.7-17.8-3.9-2-8.1-1.9-13.8-6.4-1.5-1.2-2.7-2.4-3.4-3.1,3.3-7.4,7.8-16.8,9.6-16.2h.2Z"/>
                  <path class="cls-42" d="M1322.5,1448.9s-3.6,3.8-11.3,6.1c-.4,0-.7.4-.7.6,0,.8,6.1,2.3,10.1-.5,2.9-2,4.3-5.9,3.6-6.5-.3-.3-1,0-1.7.4h0Z"/>
                </g>
              </g>
            </g>
            <g>
              <path class="cls-64" d="M222.3,1508.1c0-89,82.1-158.5,180-155.4,55.7,1.8,104.2,26.9,134.4,64h0c.2.2.4.5.5.7.5.6,1,1.3,1.5,2,.9,1.2,1.9,2.4,2.8,3.6.5.7,1.1,1.4,1.6,2.2.9,1.2,1.7,2.4,2.5,3.7.5.7,1,1.4,1.4,2.1.9,1.4,1.8,2.9,2.7,4.3.3.5.6,1,1,1.6,1.1,2,2.2,4,3.3,6,.3.5.5,1.1.8,1.6.8,1.5,1.5,3.1,2.2,4.6.4.8.7,1.5,1,2.3.6,1.4,1.2,2.7,1.8,4.1.3.8.6,1.6,1,2.4.5,1.4,1.1,2.9,1.6,4.3.3.8.5,1.5.8,2.3.6,1.8,1.2,3.6,1.7,5.5,0,.4.2.8.3,1.1.6,2.2,1.2,4.5,1.7,6.7,0,.7.3,1.3.4,2,.3,1.6.7,3.2.9,4.9,0,.8.3,1.7.4,2.5.2,1.5.4,3,.6,4.6,0,.9.2,1.7.3,2.6.2,1.6.3,3.2.4,4.9,0,.8,0,1.5.2,2.3,0,2.4.2,4.8.2,7.2,0,57.1-34.6,107.5-86.5,134.5-4.8,2.5-9.7,4.8-14.7,6.8s-5.1,2-7.7,3c-18.3,6.6-38.1,10.4-59,11.1h-11.5c-1.9,0-3.8,0-5.6-.2-1.1,0-2.3-.2-3.4-.3-1.7,0-3.3-.3-5-.4-1.2,0-2.4-.3-3.6-.4-1.6-.2-3.1-.4-4.7-.6-1.2-.2-2.5-.4-3.7-.6-1.5-.2-3-.5-4.5-.8-1.2-.2-2.5-.5-3.7-.8-1.5-.3-2.9-.6-4.4-1-1.2-.3-2.5-.6-3.7-.9-1.4-.4-2.9-.8-4.3-1.2-1.2-.3-2.4-.7-3.6-1.1-.4,0-.9-.3-1.3-.4h0c-67.7-21.2-116.8-78.7-116.8-147.3h-.3Z"/>
              <g>
                <path class="cls-55" d="M582,1508.1c0,88.8-81.7,158.4-179,155.6-93.7-2.7-167.1-72.1-167.1-155s73.4-152.5,167.1-155.6c97.3-3.2,179,66.2,179,155Z"/>
                <g>
                  <path class="cls-42" d="M365.6,1551.1l-69.5-35.4v-11.4l69.5-40.2v19.4l-48.1,25.7,48.1,22.6v19.3Z"/>
                  <path class="cls-42" d="M439.5,1448.5l-39.5,119.4-19.9-.2,39.2-119,20.2-.3h0Z"/>
                  <path class="cls-42" d="M454.2,1532.1l50.8-23.2-50.8-26v-19.7l74.1,40.6v11.9l-74.1,36v-19.6h0Z"/>
                </g>
                <g class="cls-23">
                  <path class="cls-100" d="M445.3,1625.1c-21.1-46.5.2-89.5-28.3-119.3-28.6-30-65.4-2-104.3-25.9-14.9-9.2-31.3-26.7-43.5-62.9-21,25.8-33.4,57.5-33.4,91.8,0,82.9,73.4,152.3,167.1,155,22,.6,43.2-2.4,62.8-8.6-9.7-10.1-16.1-20.4-20.5-30h0Z"/>
                </g>
              </g>
            </g>
            <g>
              <g>
                <path class="cls-112" d="M2041,2656.2c-2.2,0-4-1.8-4-4v-830.7c0-2.2,1.8-4,4-4s4,1.8,4,4v830.7c0,2.2-1.8,4-4,4Z"/>
                <path class="cls-112" d="M2264.8,2604c-2.2,0-4-1.8-4-4v-799.4c0-2.2,1.8-4,4-4s4,1.8,4,4v799.4c0,2.2-1.8,4-4,4Z"/>
                <path class="cls-112" d="M2782.2,2641.2c-1.6,0-3.1-1-3.7-2.6l-299.2-824.3c-.7-2.1.3-4.3,2.4-5.1,2.1-.7,4.3.3,5.1,2.4l299.2,824.3c.7,2.1-.3,4.3-2.4,5.1-.4.2-.9.2-1.3.2h-.1Z"/>
                <path class="cls-112" d="M2561.4,2705.7c-1.7,0-3.3-1.1-3.8-2.8l-268.5-869.1c-.6-2.1.5-4.3,2.6-4.9s4.3.5,4.9,2.6l268.5,869.1c.6,2.1-.5,4.3-2.6,4.9-.4.1-.8.2-1.2.2h.1Z"/>
                <polygon class="cls-112" points="2262.4 1799.8 2037.9 1816.4 2037.9 1821.5 2294.4 1833 2486.2 1809.5 2486.2 1804.4 2262.4 1799.8"/>
                <polygon class="cls-57" points="2262.4 1794.7 2037.9 1816.4 2294.4 1827.9 2486.2 1804.4 2262.4 1794.7"/>
                <path class="cls-112" d="M2503.3,2517.7c-1.8,0-3.4-1.2-3.8-3-.6-2.1.7-4.3,2.8-4.8l213.8-56.1c2.1-.6,4.3.7,4.8,2.8.6,2.1-.7,4.3-2.8,4.8l-213.8,56.1c-.3,0-.7.1-1,.1h0Z"/>
                <path class="cls-112" d="M2442.7,2321c-1.9,0-3.6-1.3-3.9-3.3-.4-2.2,1.1-4.2,3.2-4.6l209.8-37.1c2.2-.4,4.2,1.1,4.6,3.2.4,2.2-1.1,4.2-3.2,4.6l-209.8,37.1h-.7Z"/>
                <path class="cls-112" d="M2379.8,2117.9c-2,0-3.7-1.5-3.9-3.4-.3-2.2,1.3-4.1,3.4-4.4l203-26.2c2.2-.3,4.1,1.3,4.4,3.4.3,2.2-1.2,4.1-3.4,4.4l-203,26.2h-.5Z"/>
                <path class="cls-112" d="M2339.4,1977c-1.9,0-3.6-1.4-3.9-3.3-.3-2.2,1.1-4.2,3.3-4.5l190.9-29.9c2.1-.3,4.2,1.1,4.5,3.3.3,2.2-1.1,4.2-3.3,4.5l-190.9,29.9h-.6Z"/>
              </g>
              <g>
                <path class="cls-39" d="M2158.4,1774.6s-54,27.4-54.9,31.8,34.7-1.5,49.3-.8c14.5.6,26.5-4.2,25.2-11.1s-6.4-24.2-6.4-24.2l-13.2,4.3h0Z"/>
                <path class="cls-66" d="M2156.4,1752.4l3.3,27.2s8.6,3.4,14.3-.6l2.5-29.8-20,3.3h-.1Z"/>
                <path class="cls-43" d="M2410.8,1753l6.3,11.3c1.8,3.2,2.3,6.9,1.4,10.5-2.2,9.4-6.6,27.7-8.5,32.4-2.6,6.5-37.6,10.3-37.6,10.3,0,0-3.1-4.9,4.1-10.8,7.3-5.9,11.9-6.9,14.5-15.6s4.3-33.5,4.3-33.5l15.4-4.7h.1Z"/>
                <path class="cls-37" d="M2384.7,1724.4c2.3,2,13.5,40.1,13.5,40.1,0,0,3.6,5.2,10.5-2.5s3.1-3.4,3.1-3.4l-1.3-37.5-25.9,3.2h0Z"/>
                <path class="cls-108" d="M2126.7,1206c-2.9,81.1-3,169.2,1.2,263.4,4.7,106,14.1,204,26,292.8,4.4.2,9.1.2,13.9,0,3.3,0,6.5-.3,9.5-.5,6.2-18.4,13.5-42.6,20-71.6,6.9-30.4,11-57.7,14-83.8,10.4-91.9-1.8-99.9,6.7-168,7.5-60.3,18.1-62.7,30.6-148.3,13.5-92.9,3.5-106.8-1.4-111.9-20.9-21.4-69.9-6.8-120.5,27.8h0Z"/>
                <path class="cls-10" d="M2247.2,1178.3c-19.9-20.4-65.4-8.1-113.5,23.1,55.3,66.8,61.3,110.2,54.7,138.3-7.5,31.8-30.3,40.9-30.2,75.7.1,42.7,34.6,54,33.9,99.2-.5,29.9-15.6,29.6-19.2,66.5-4.2,43.7,15.6,58.7,9.1,91-2.8,13.9-10.6,32.1-33.1,50.8,1.6,13.3,3.3,26.4,5,39.3,4.4.2,9.1.2,13.9,0,3.3,0,6.5-.3,9.5-.5,6.2-18.4,13.5-42.6,20-71.6,6.9-30.4,11-57.7,14-83.8,10.4-91.9-1.8-99.9,6.7-168,7.5-60.3,18.1-62.7,30.6-148.3,13.5-92.9,3.5-106.8-1.4-111.9v.2Z"/>
                <path class="cls-32" d="M2161,1204.7c47.6,77.9,99,174.9,144.9,291,34.7,87.7,59.9,170.1,78.4,243.5,2.5,1.3,8.4,3.9,15.9,2.8,10.3-1.5,16.4-8.9,18.1-10.9,7.5-52.6,6.7-97.2,4.1-129.3-1.6-20.6-4.5-54.9-16.3-97.2-13.1-47.4-22.2-50.1-39.3-100.3-17.8-52.1-13.5-65.1-30.5-130.2-7-26.8-18.7-66.6-38.1-114.3-45.7,15-91.5,30-137.2,45h0Z"/>
                <path class="cls-60" d="M2103.7,860.2c-38-41.4-58.4-42.9-64.7-73-6.3-29.8,4.4-71.7,31.7-88.4,2-1.2,22.6-13.4,44.2-4.9,32.6,12.8,24.2,56,57.1,85.2,27.8,24.7,65.7,22,91.3,20.1,61.7-4.4,79.3-38.1,107.4-24.9,35.1,16.6,23.3,76.9,59.2,89.9,24,8.7,36.4-15.6,70.6-14.5,40.2,1.3,75.6,36.7,91.3,72.7,28.8,65.8-3.4,144.9-42.9,188.2-32.5,35.5-91.8,70.7-129,50.4-29.4-16.1-29.5-58.3-57.6-61.3-20-2.1-26,18.6-51.5,23.6-41.9,8.1-79.4-37.3-89.6-49.7-29.2-35.3-19.2-50.6-52.1-114.9-13-25.4-31.7-62-65.3-98.6h0Z"/>
                <path class="cls-102" d="M1710,874.4s-13.4-7.4-22.4-13.3c-9.1-5.9-44-18-44-18,0,0,0,4.6,7.9,8.1,8,3.5,23.6,8.6,23.2,14.1s-5.6,12.6,3.3,18.4c8.9,5.8,15-4,22.6.4s15.6,9.3,15.6,9.3l-6.1-19h0Z"/>
                <path class="cls-7" d="M1709.6,865.6c-1,11.7-2.1,23.5-3.1,35.2,14.4,15.7,36.3,36.6,66.2,55.5,13.2,8.3,53.1,32.1,105.8,41.4,71.8,12.6,186.5,1.7,195.7-52.6,8.2-48.4-51-110.5-65.5-121.3-28.5,14-51.9,39.4-83.1,57.4-10.2,5.9-37,21-73.3,25.1-67.1,7.7-123-27-142.7-40.7h0Z"/>
                <path class="cls-48" d="M1974.9,860.3c3,15,49.7,7,59.4,34.2,5.2,14.6-5.8,23.9-6.3,48.8-.5,27.8,12.7,43.6,22.9,65.5,14.9,32.1,15,63.5,15.1,126.3.2,89.4-19.6,107.4-2.7,136.3,22,37.5,74.7,39.9,89,40.6,48.8,2.2,54.6-23.7,107.5-26.8,60.4-3.5,69.1,29.3,112.3,15.3,39.5-12.8,52.8-46.9,83.5-39.8,19.2,4.4,24.3,20.1,42.4,18.4,18.2-1.7,37.1-19.8,38.3-38.3,1.6-23-23.6-52-63-52.1-15.7,6.1-41.6,13.3-70.5,5.4-47.3-13-71.9-58-99.3-107.9-18.9-34.6-53.7-98.1-54.1-181.4-.2-34.4,5.6-44.4-2.7-62.8-27.2-59.6-132.7-50.7-141.6-49.9-71.9,6.9-133.8,50.1-130.2,68.2h0Z"/>
                <g>
                  <path class="cls-105" d="M1951.3,935.4l132.5,5.8c1.5,0,2.7,1.1,3.2,2.6l62.4,193.6c.9,2.8-1.9,9.7-4.5,9.4l-131-19.9c-1.3-.2-2.5-1.1-3-2.5l-64.9-180.7c-.9-2.7,2.7-8.4,5.3-8.3h0Z"/>
                  <path class="cls-62" d="M1949.3,940.1l132.5,5.8c1.5,0,2.7,1.1,3.2,2.6l62.4,193.6c.9,2.8-1.1,5.6-3.7,5.3l-131.8-15.8c-1.3-.2-2.5-1.1-3-2.5l-63.1-183.6c-.9-2.7.9-5.5,3.5-5.4h0Z"/>
                  <path class="cls-90" d="M1985.5,947.3l-5.1-15.4c-.5-1.4.5-2.9,1.8-2.9h48.2c.8,0,1.6.6,1.8,1.5l4.9,17.1c.4,1.4-.6,2.8-1.9,2.8l-48-1.6c-.8,0-1.5-.6-1.7-1.4h0Z"/>
                  <path class="cls-13" d="M2067.1,1100.6c-8.6-31.2,5.6-51.5-8.9-75.8-20.5-34.3-64.4-19.8-78.1-47.5-3.7-7.5-5.4-18.6-.5-35.9l-30.4-1.3c-2.6,0-4.4,2.7-3.5,5.4l63.1,183.6c.5,1.4,1.6,2.4,3,2.5l80.1,9.6c-14.3-13.9-21.4-28-24.9-40.7h0Z"/>
                </g>
                <path class="cls-45" d="M2163.9,1077.4s-20-4.5-27.7-9.9-15.9-14.2-27.3-13.7c-11.4.5-22.8,6.9-17.6,8.4,5.3,1.5,15.1,13.2,22.6,17.7,7.5,4.6,24.7,5,27.9,4.8s15.8,8.2,15.8,8.2l6.4-15.6h0Z"/>
                <path class="cls-20" d="M2473.3,1188.7c-15.7,6.1-41.6,13.3-70.5,5.4-47.3-13-71.9-58-99.3-107.9-18.9-34.6-53.7-98.1-54.1-181.4-.2-34.4,5.6-44.4-2.7-62.8-1.3-2.9-2.9-5.6-4.6-8.2-20.7,15.6-28.7,31.2-31,45-5.7,33.4,21.2,60.7,7.2,89.6-13.4,27.6-46.5,20-53.4,43.6-7.4,25.5,29.2,40.9,30.8,80.4,1.9,47.3-49,70.5-40.1,102.2,7.7,27.4,50.3,25.5,50.3,40.2s1.3-18.6-50.3-40.2c-15.6-6.5-89.3,47.8-98.3,38.3-1.9,15.4-1.6,26,5.8,38.6,22,37.5,74.7,39.9,89,40.6,48.8,2.2,54.6-23.7,107.5-26.8,60.4-3.5,69.1,29.3,112.3,15.3,39.5-12.8,52.8-46.9,83.5-39.8,19.2,4.4,24.3,20.1,42.4,18.4,18.2-1.7,37.1-19.8,38.3-38.3,1.6-23-23.6-52-63-52.1h.2Z"/>
                <path class="cls-71" d="M2163.4,1068.1c-6.2,12.2-12.3,24.5-18.5,36.7,9.5,5.2,111.1,58.9,184.7,5.7,9.1-6.6,33.3-24.1,46.3-58.3,14.4-37.7,6.3-72.8,1.1-95.6-12.9-56.4-49.6-115.6-101.5-139.3-19.8-9.1-43.4-13.7-65.6-18-18.8-3.7-48.3-8.2-49-5-.3,1.6,6.6,3.5,11.3,6.5,29.3,18.5-7.9,95,26.5,131.6,33,35.1,75.7,29.3,82.6,61.1,3.2,14.8-3.4,28.1-6.4,34-16.5,33.1-60.9,47.9-111.7,40.3l.2.3Z"/>
                <path class="cls-41" d="M2094.4,737.1s11.9,38.8,26.8,44.8c14.9,6,38.3,13,41.3,15.6,2.9,2.7-78.9,32.4-124.8,18.7h0c13.1-6.4,16.6-8.4,16.6-8.4,3.5-2,10-5.9,16.1-11.9,4.2-4.1,10.7-11.8,15.6-24.5l-4.3-22,12.8-12.3h-.1Z"/>
                <path class="cls-31" d="M2099.8,754s-6.9,17.2-23.3,14.5c-14.7-2.4-13.9-43.6-4-50.7,3.3-2.3,10.1-3.2,15.1-1.2,3.5,1.4,14,11,11.7,25.1,3.2-1.9,6.5-1.6,7.6,0,1.4,2.2-.9,6.2-1.4,7.1-1.8,3.1-4.4,4.5-5.7,5h0Z"/>
              </g>
            </g>
            <g>
              <g>
                <ellipse class="cls-8" cx="469.8" cy="2538.4" rx="139.7" ry="57"/>
                <path class="cls-46" d="M330,2531.7c0,29.7,62.6,53.8,139.8,53.8s139.7-24.1,139.7-53.8-62.6-78.4-139.7-78.4-139.7,48.7-139.7,78.4h0Z"/>
                <path class="cls-12" d="M330,2531.7c0-29.7,62.6-78.4,139.8-78.4s68.1,10.4,92.8,24.5c1.7,3.6,2.5,7.2,2.2,10.6-1.6,16.7-28.9,27-44.6,30.4-39.4,8.5-58.7-15-91.2-14.1-20.1.6-48,10.7-81,53.4-11.4-7.8-18-16.8-18-26.4Z"/>
                <path class="cls-88" d="M462.1,2490.6c5.6,1.4,10.8,1.3,15.7,0,4.4-1.1,7.5-5.2,7.5-9.8v-134.1h-31.1v133.9c0,4.7,3.3,8.8,7.9,9.9h0Z"/>
                <g>
                  <path class="cls-79" d="M634,2307.6l-47.5-30c-2-11.2-24.4-128.5-115.2-165.3-36.9-15-76.7-13.2-98.5-12.2-43.6,1.9-74.6,3.3-89.6,24.1-19.2,26.7,13,50.9,6.3,127.2-2.7,31.1-9.6,44.9-1,65.6,10.3,24.7,34.2,38.4,52.8,46.1,22.2,12.9,60.9,31.3,112,35.8,86.1,7.5,150.4-29.4,172.5-43.5,9.8-3.1,17.2-11.3,19.3-21.4,2.1-10.2-2.3-20.7-11.2-26.3h.1Z"/>
                  <path class="cls-47" d="M363.2,2106.3c-32.2,1-52.2.6-63.3,15-11.6,15.1.1,28,2.3,81.7,2,49-6.7,68.4,9.2,95.5,0,0,8,13.8,20.8,24.2,44.9,36.6,160.7,36.2,209.5-40.3,38.9-61,22.7-150.9-23-180.7-22.4-14.6-27.5.8-155.4,4.6h-.1Z"/>
                  <path class="cls-92" d="M637.4,2280.6l-47.5-30s-127.2-41.8-244.8,17.1c-13.2,6.6-21.4,20.2-21.4,35s6.8,21.5,17.2,25.9c20.5,14,60.6,37.1,115.8,43.2,87.8,9.6,153.1-30.6,172.5-43.5,9.8-3.1,17.2-11.3,19.3-21.4,2.1-10.2-2.3-20.7-11.2-26.3h0Z"/>
                </g>
                <g>
                  <path class="cls-25" d="M529.3,1844c-11.9-53.7,0-65.4-15.5-84.7-18.7-23.4-54.7-29.5-77.3-27.1-5,.5-6.7-2.1-46.3,14.1-71.9,29.4-94.5,10.5-124.9,36.1-29.7,24.9-11.6,46-40,74.9-46.7,47.5-108.4,10.7-141.9,49.7-32.1,37.4-22.7,122.6,21.9,164.9,51.4,48.7,128.9,21.4,180.4,3.4,10.8-3.8,64.9-23.9,115-77.2,27.3-29,44.2-58.1,54.3-79.1,2.5-4.2,6.6-9.4,13.1-11.1,7.8-1.9,15.2,2.3,18.7,4.1,18.5,9.6,48.2,13.6,57.3,5.1,9.2-8.7-4.9-28.5-14.8-73.1h0Z"/>
                  <path class="cls-1" d="M505.6,1878.8c14.6-13.3,66.5,12.3,100.9,46.2,40.4,39.8,37.3,72.1,72.6,121.6,17.5,24.6,47.6,57.7,100.9,86.7-3.8,9.4-7.5,18.9-11.3,28.3-25.8,1.6-76.3.6-123.5-30.2-32.8-21.4-49.6-49.8-82-105.6-32.5-56-75.7-130.5-57.5-147.1h-.1Z"/>
                  <path class="cls-84" d="M833.5,2636.5l-40.5-24.4h-18.3s-6.2,23.2-5.5,24.4c8.2,13.4,46.1,23.5,69.8,24.4,3.9.1,9.4.2,10.8-2.7,2.4-4.8-8.3-14.9-16.3-21.7Z"/>
                  <path class="cls-113" d="M792.3,2585.5c-2.6,15.1.7,22.9,4.2,27.3,2.5,3.1,4.7,4,19.6,16.8,4.9,4.2,7.4,6.5,6.8,7.7-.6,1.4-5,.6-14.3-1.6-20.4-4.9-30.6-7.5-33.1-12.4-2.3-4.4-.3-6.4-.4-18.5,0-8-1.7-14.4-3-18.4,6.7-.3,13.5-.6,20.2-.9h0Z"/>
                  <path class="cls-30" d="M821.6,2466s18.3,21.9,15.3,45.8c-3,24-35.1-11.1-39.5-22.9-4.5-11.8-9.7-28.7-9.7-28.7,0,0,22.5-14,33.9,5.8h0Z"/>
                  <path class="cls-5" d="M814.6,2431.9s-5,25.5,4.5,38.9c4.7,6.7,11.1,12.4,9.2,17.8-1.3,3.6-6,6.3-10.1,5.9-7.7-.8-12-12.6-15-21-4.5-12.3-6.9-38.7-6.9-38.7l18.3-2.8h0Z"/>
                  <path class="cls-78" d="M800,2453.3c5.6-2.1,11.3-4.1,16.9-6.2,8.8-20.1,19.5-53,15.9-93.1-9.2-103-104.5-157.6-115.1-163.5-26,13-52.3,31.4-53.2,54.6-1.2,29.1,38.4,44.5,75.7,87,22.4,25.5,46.2,63.6,59.8,121.2h0Z"/>
                  <path class="cls-87" d="M793.9,2597.3c18.6-72.7,13.9-132,8.5-166.2-8.1-51.6-24.6-156.7-94.8-195.9-15.3-8.6-37.2-16.2-63.9-40-22.3-19.9-36.5-40.7-45-55.5-93.8-27.5-180.3-16.4-218.5,33.9-4.4,5.8-15.5,18.4-17.6,37-4.8,42,36.4,92.5,82.7,103,58.8,13.4,92.9-47,145-26.9,14.6,5.6,26.9,19.5,51.6,47.4,31.4,35.4,49.1,68.1,55.8,81.2,19.9,38.9,35,67.7,37.2,104.9.5,8.7.8,26.2,11,45.1,7.8,14.5,18.4,24.2,26.2,30.2,7.3.6,14.6,1.1,21.8,1.6v.2Z"/>
                  <path class="cls-18" d="M362.6,2210.8c2.1-18.6,13.2-31.2,17.6-37,38.2-50.3,124.7-61.5,218.5-33.9,8.5,14.7,22.7,35.6,45,55.5,26.7,23.8,48.6,31.4,63.9,40,42.8,23.9,65.6,72.4,78.8,118.3-19.5-30.2-36.2-38.2-49.1-38.4-18.5-.2-26.7,15.6-48.8,13.4-23.6-2.3-29-21.8-48.1-24-5.7-.7-12.8.2-21.2,4.7-11.3-11.8-19.7-18.8-29-22.4-52.1-20.1-86.2,40.3-145,26.9-46.3-10.5-87.5-61.1-82.6-103h0Z"/>
                  <path class="cls-6" d="M745.3,2267.8c-10.6-.6-27-.9-46.7,1.1-93.6,9.2-119.4,55.5-196.8,66.8-18.3,2.7-99.8,14.6-135.1-32.5-25.3-33.8-21.5-92.1,6.2-115,11.7-9.7,23.3-9.4,98.4-8.8,28.3.3,56.6.3,84.9.7,119.7,1.5,142.6-6.8,164.4,13,10.2,9.2,25,29.1,24.6,74.6h.1Z"/>
                  <g>
                    <path class="cls-24" d="M492.5,1883.6s-139.7-40.7-154.2,61.5c-13.9,98,57.3,143,24.9,242.3-3.8,11.5,266-41.2,266-41.2-36-44.9-44.4-82-45.2-107.7-.9-28.2,7.2-41.1,0-74.5,0,0-8-37.3-37-69.2-4.2-4.6-9.1-9.4-54.4-11.2h0Z"/>
                    <path class="cls-97" d="M403.2,2166.6l-.9-3.3c1.3-.4,132.1-35.2,209.5-39.5l.2,3.4c-77.1,4.3-207.5,39-208.9,39.4h0Z"/>
                  </g>
                  <g>
                    <path class="cls-59" d="M462.2,1822.3c1.3,6,7.8,38.1-5.3,46.3-2.8,1.8-8.3,2.8-19.3,4.9-7.2,1.3-13.2,2.2-17.4,2.7.6,5.4,2.4,14.1,8.6,22.1,17.4,22.3,52.3,16.6,57.3,15.6,17.6-3.2,34.8-8.6,39-11.9,6.4-5,11.3-8.8,14.3-12.7-6.8-3.3-20.5-11.9-29.7-14.8-6.9-2.1-13.3-3.6-19.2-4.7-1-6.2-1.9-12.4-2.9-18.6-8.5-9.6-16.9-19.3-25.4-28.9Z"/>
                    <path class="cls-53" d="M465.3,1846.3s17.2,16.2,37.2,4.4c17.9-10.6-2.8-58.1-19.1-60.9-5.4-.9-14.6,1.6-20.1,6.7-3.9,3.6-12.9,20.3-3.1,35.4-5.1-.5-9.1,1.6-9.8,4.2-.8,3.3,4.1,6.7,5.2,7.5,3.8,2.7,7.9,2.8,9.7,2.8h0Z"/>
                  </g>
                </g>
              </g>
              <g>
                <path class="cls-8" d="M1362.1,2550.4h-.3c-1.8-.1-3.2-1.6-3.2-3.4v-478.4c0-1.9,1.5-3.5,3.5-3.5s3.5,1.5,3.5,3.5v433.6l65.6-423.7c.3-1.9,2.1-3.2,3.9-2.9,1.9.3,3.2,2.1,2.9,3.9l-72.5,468c-.3,1.7-1.7,2.9-3.4,2.9h0Z"/>
                <g>
                  <polygon class="cls-21" points="150.6 2176.7 1349 2067.6 1981.1 2116.4 777.8 2231.6 150.6 2176.7"/>
                  <polygon class="cls-8" points="777.8 2231.6 150.6 2176.7 150.6 2203.2 777.8 2258.1 1981.1 2142.9 1981.1 2116.4 777.8 2231.6"/>
                </g>
                <path class="cls-8" d="M772.4,2761.5c-1.7,0-3.2-1.3-3.4-3l-68.9-509c-.3-1.9,1.1-3.6,3-3.9,1.9-.3,3.6,1.1,3.9,3l62.1,458.3v-457.8c0-1.9,1.5-3.5,3.5-3.5s3.5,1.5,3.5,3.5v509c0,1.8-1.4,3.3-3.2,3.4h-.5Z"/>
                <path class="cls-8" d="M1972.3,2620.1c-1.7,0-3.2-1.3-3.4-3l-63.9-467.6c-.3-1.9,1.1-3.6,3-3.9,1.9-.3,3.6,1.1,3.9,3l57,417.3v-435.4c0-1.9,1.5-3.5,3.5-3.5s3.5,1.5,3.5,3.5v486.1c0,1.8-1.4,3.3-3.2,3.4h-.4Z"/>
                <path class="cls-8" d="M158.2,2668h-.3c-1.8-.1-3.2-1.6-3.2-3.4v-461.3c0-1.9,1.5-3.5,3.5-3.5s3.5,1.5,3.5,3.5v414.1l61-414.6c.3-1.9,2-3.2,3.9-2.9s3.2,2,2.9,3.9l-67.8,461.3c-.3,1.7-1.7,2.9-3.4,2.9h0Z"/>
              </g>
              <path class="cls-58" d="M433,2190.9c5.3-6,10.7-11.9,16-17.9-41.6-54.6-74.7-78.3-98.1-89.6-4.9-2.4-14-6.4-16-14.6-5.1-20.9,44.5-36.2,67.9-77.8,21.7-38.6,18.8-95.9,0-104.7-37.3-17.3-202.3,126-156.5,228.2,23.9,53.5,101.2,85.9,186.7,76.4h0Z"/>
              <polygon class="cls-8" points="549.7 2167.2 549.7 2160.4 842.7 2144.6 842.7 2151.3 635.7 2171.7 549.7 2167.2"/>
              <polygon class="cls-46" points="549.7 2160.4 640.6 2161.5 842.7 2144.6 786.2 2141.1 549.7 2160.4"/>
              <g>
                <path class="cls-50" d="M588.6,2136.9l82.4-257.8c1.3-4.1,5.9-7,11.2-7.1l360.7-6.6c3.1,0,8.4,2.2,10.3,4.1s4.4,2.3,3.7,4.8l-67.3,226.8c-1.1,3.8-5.1,6.7-9.8,7.1l-384.6,35.3-6.6-6.6h0Z"/>
                <path class="cls-40" d="M595.2,2143.6l83.6-259.5c1.3-4.1,5.9-7,11.2-7.1l360-6.8c3.1,0,5.9,1,7.8,3,1.9,1.9,2.5,4.5,1.8,7l-62.9,225.3c-1.1,3.9-5.2,6.9-10,7.3l-391.4,30.9h-.1Z"/>
                <path class="cls-16" d="M595.2,2143.6l391.4-30.9c4.8-.4,8.9-3.4,10-7.3l19-68c-119.3,41.7-261.1,37.1-401.6,47.7l-18.8,58.5Z"/>
                <path class="cls-80" d="M825.2,2187l-14.8,5.1s-78.1-14.7-81.5-17.1c-.5-.4-2.4-4,1.1-4.6,18.4-3.2,85.7-5.5,85.7-5.5l6.2.3,3.4,21.7h-.1Z"/>
                <path class="cls-76" d="M826.3,2182.4l-14.8,5.1s-78.1-14.7-81.5-17.1c-3.4-2.4,86.7-10.1,86.7-10.1l6.2.4,3.4,21.7h0Z"/>
                <path class="cls-75" d="M890.9,2003.1s37.9,163,39,172.5c1,8.8-92.1,17.4-114.4,18.2-1.9,0-4.3-1.2-5.1-1.7-6.2-.7,22.7-186.6,22.7-186.6h2.1l55.6-2.3h.1Z"/>
                <path class="cls-95" d="M890.9,2003.1s43.1,164.6,44.2,174.2c1.1,9.5-109.6,16.8-119.3,16.5-6.2-.7,19.5-188.2,19.5-188.2l55.6-2.4h0Z"/>
              </g>
              <path class="cls-46" d="M456.4,2160.4s24.6-11.2,38.8-10.2c14.2,1,34.2,13.9,37.6,21.6,3.5,7.7-48,6.8-48,6.8,0,0-61.4-2.4-28.4-18.1h0Z"/>
              <path class="cls-103" d="M443.6,2147.2c13.7-17.4,46.4-6.8,48.3-6.2,7.8,2.7,18.3,8,17.6,11.5-.7,3.3-11.2,1.6-28.6,4.5-25.4,4.3-36.7,13.7-41.2,8.9-3.4-3.7-.5-13.1,4-18.8h0Z"/>
            </g>
            <path class="cls-34" d="M1068.3,229.7c5.3.6,15.6,3.8,38.9,47.2,30.2,56.2,38.2,97.6,49.7,131.7,10.8,31.9,31.1,75.9,72.9,124.3-6.9,7.2-13.8,14.4-20.7,21.5-59.2-1.5-88.5-20.4-104.4-37.3-23.1-24.7-16-43.7-43.9-81.2-32.7-43.9-57.4-38.1-68.8-67.1-21.2-54.3,38.8-143.8,76.2-139.2h0Z"/>
            <g>
              <g>
                <path class="cls-99" d="M1219.9,440.9c0-18.5-15.3-34.3-35-35.2l-396.4-18.8c-21.1-1-38,13.8-38,33v374c0,19.3,17.2,35.1,38.3,35.3l396.3,4.7c19.7.2,34.8-14.6,34.8-33.1v-360h0Z"/>
                <path class="cls-104" d="M1233.7,441.5v359.6c0,.9.8,1.9.7,2.8-1.5,17.2-16.4,30.5-35.1,30.3l-396.1-4.7c-21.1-.3-39-16.1-39-35.3v-373.5c0-18,15.7-32.1,34.8-33h4.5l395.1,18.7c19.7.9,35,16.7,35,35.2h0Z"/>
                <g>
                  <path class="cls-42" d="M1159.6,707.9l-76.6-102.9c-.8-1-2.1-1.7-3.5-1.7s-2.7.5-3.5,1.5l-44.5,57-73.7-98.2c-.8-1.1-2.1-1.7-3.6-1.8s-2.8.5-3.6,1.5l-108.6,137.4c-.9,1.1-1,3-.2,4.3.8,1.2,2.2,2.5,3.8,2.5l148.3,3.2,74.8,1.6,87.4,1.9c1.5,0,2.9-1.1,3.6-2.3s.6-3-.2-4.2v.2Z"/>
                  <path class="cls-42" d="M1103.4,542.3c0,17.1-14.8,30.4-33.2,29.8-18.4-.6-33.4-15-33.4-32.2s15-30.5,33.4-29.8,33.2,15.1,33.2,32.2Z"/>
                </g>
                <path class="cls-22" d="M1235.2,803.9c-1.5,17.2-16.8,30.5-35.5,30.3l-396.3-4.7c-21.1-.3-39.2-16.1-39.2-35.3v-373.5c0-18,15.7-32.1,34.8-33,7.2,79,37.8,209.8,156.9,225.4,129.7,17,249.9,108,279.2,190.9h.1Z"/>
              </g>
              <path class="cls-107" d="M808.2,387.5s4.3,11.6,21.7,13.6,31.7-5.5,26.7-13.1c-5-7.5-43.6-8.3-48.3-.5h-.1Z"/>
              <path class="cls-29" d="M1083.4,400.1s4.3,11.6,21.7,13.6c17.4,2,31.7-5.5,26.7-13.1-5-7.5-43.6-8.3-48.3-.5h0Z"/>
            </g>
            <g>
              <g>
                <path class="cls-81" d="M226.6,910.5c0-78,71.9-138.9,157.6-136.1,48.8,1.6,91.2,23.6,117.7,56.1h0c.2.2.3.4.5.6.5.6.9,1.1,1.3,1.7.8,1,1.6,2.1,2.4,3.2.5.6.9,1.3,1.4,1.9.8,1.1,1.5,2.1,2.2,3.2.4.6.8,1.2,1.2,1.9.8,1.3,1.6,2.5,2.3,3.8.3.5.6.9.8,1.4,1,1.7,2,3.5,2.9,5.3.2.5.5,1,.7,1.4.7,1.3,1.3,2.7,2,4,.3.7.6,1.3.9,2,.5,1.2,1,2.4,1.5,3.6.3.7.6,1.4.8,2.1.5,1.2.9,2.5,1.4,3.8.2.7.5,1.3.7,2,.5,1.6,1,3.2,1.5,4.8,0,.3.2.7.3,1,.5,1.9,1,3.9,1.5,5.9,0,.6.2,1.2.4,1.8.3,1.4.6,2.8.8,4.3,0,.7.2,1.5.3,2.2.2,1.3.4,2.7.5,4,0,.8.2,1.5.3,2.3,0,1.4.3,2.8.3,4.2s0,1.3,0,2c0,2.1.2,4.2.2,6.3,0,50-30.3,94.2-75.7,117.8-4.2,2.2-8.5,4.2-12.9,6-2.2.9-4.5,1.8-6.7,2.6-16,5.7-33.4,9.2-51.7,9.7h-10c-1.7,0-3.3,0-4.9-.2-1,0-2,0-3-.2-1.5,0-2.9-.2-4.4-.4-1.1,0-2.1-.2-3.2-.4-1.4-.2-2.7-.3-4.1-.5-1.1-.2-2.2-.3-3.3-.5-1.3-.2-2.6-.4-3.9-.7-1.1-.2-2.2-.4-3.3-.7-1.3-.3-2.6-.6-3.8-.9-1.1-.3-2.2-.5-3.3-.8-1.3-.3-2.5-.7-3.7-1-1.1-.3-2.1-.6-3.2-.9-.4,0-.8-.2-1.2-.3h0c-59.3-18.6-102.3-68.9-102.3-129v-.3Z"/>
                <g>
                  <path class="cls-44" d="M541.6,910.6c0,77.8-71.6,138.7-156.8,136.3-82.1-2.4-146.4-63.1-146.4-135.8s64.3-133.6,146.4-136.2c85.2-2.8,156.8,58,156.8,135.7h0Z"/>
                  <g class="cls-51">
                    <path class="cls-73" d="M421.8,1013c-18.5-40.7.2-78.4-24.8-104.5-25.1-26.2-57.3-1.7-91.4-22.7-13-8-27.5-23.4-38.1-55.1-18.4,22.6-29.2,50.4-29.2,80.4,0,72.6,64.3,133.4,146.4,135.8,19.2.6,37.8-2.1,55-7.5-8.5-8.9-14.1-17.9-18-26.3h0Z"/>
                  </g>
                </g>
              </g>
              <path class="cls-42" d="M357.7,863.7v104c0,6.7,5.7,10.8,10.5,7.8l87.1-54.7c5.4-3.4,5.4-13.1,0-16.2l-87.1-49.4c-4.9-2.8-10.5,1.7-10.5,8.4h0Z"/>
            </g>
            <g>
              <g>
                <path class="cls-67" d="M513.2,1146.9c0-89.7,82.7-159.7,181.2-156.5,56.1,1.8,104.9,27.1,135.4,64.5h0c.2.2.4.5.6.7.5.7,1,1.3,1.6,2,.9,1.2,1.9,2.4,2.8,3.6.5.7,1.1,1.5,1.6,2.2.9,1.2,1.7,2.5,2.6,3.7.5.7,1,1.4,1.4,2.1.9,1.4,1.8,2.9,2.7,4.4.3.5.7,1.1,1,1.6,1.2,2,2.3,4,3.3,6.1.3.5.5,1.1.8,1.6.8,1.5,1.5,3.1,2.2,4.6.4.8.7,1.5,1,2.3.6,1.4,1.2,2.8,1.8,4.2.3.8.7,1.6,1,2.4.6,1.4,1.1,2.9,1.6,4.3.3.8.5,1.5.8,2.3.6,1.8,1.2,3.7,1.7,5.5,0,.4.2.8.3,1.2.6,2.2,1.2,4.5,1.7,6.8.2.7.3,1.3.4,2,.3,1.6.7,3.3.9,4.9,0,.8.3,1.7.4,2.5.2,1.5.4,3.1.6,4.6,0,.9.2,1.7.3,2.6.2,1.6.3,3.3.4,4.9,0,.8,0,1.5.2,2.3,0,2.4.2,4.8.2,7.2,0,57.5-34.9,108.3-87.1,135.5-4.8,2.5-9.8,4.8-14.9,6.9-2.5,1-5.1,2-7.8,3-18.4,6.6-38.4,10.5-59.5,11.1h-11.6c-1.9,0-3.8,0-5.7-.2-1.2,0-2.3-.2-3.4-.3-1.7,0-3.4-.3-5-.4-1.2,0-2.4-.3-3.7-.4-1.6-.2-3.2-.4-4.7-.6-1.3-.2-2.5-.4-3.7-.6-1.5-.3-3-.5-4.5-.8-1.3-.2-2.5-.5-3.8-.8-1.5-.3-2.9-.6-4.4-1-1.3-.3-2.5-.6-3.7-.9-1.4-.4-2.9-.8-4.3-1.2-1.2-.3-2.5-.7-3.7-1.1-.4,0-.9-.3-1.4-.4h0c-68.2-21.4-117.7-79.3-117.7-148.4h.1Z"/>
                <g>
                  <path class="cls-72" d="M875.4,1146.9c0,89.4-82.3,159.5-180.3,156.7-94.4-2.8-168.3-72.6-168.3-156.1s74-153.6,168.3-156.7c98-3.2,180.3,66.6,180.3,156.1Z"/>
                  <g class="cls-23">
                    <path class="cls-26" d="M737.7,1264.7c-21.3-46.8.2-90.1-28.5-120.1-28.8-30.2-65.9-2-105.1-26.1-15-9.2-31.6-26.9-43.8-63.3-21.1,25.9-33.6,57.9-33.6,92.4,0,83.5,74,153.3,168.3,156.1,22.1.6,43.5-2.4,63.3-8.7-9.8-10.2-16.2-20.6-20.7-30.3h0Z"/>
                  </g>
                </g>
              </g>
              <rect class="cls-42" x="595.5" y="1142.7" width="47.5" height="86.7"/>
              <rect class="cls-42" x="672.4" y="1092.6" width="47.5" height="136.8"/>
              <rect class="cls-42" x="751" y="1048.6" width="47.5" height="180.8"/>
            </g>
            <g>
              <g>
                <path class="cls-70" d="M2531.3,505.5c0,25-6.3,48.7-17.5,70-30.4,57.6-97.1,97.6-174.4,97.6s-76.6-10.6-107.3-28.6c-20.2,4-51.7,10.6-68.3,14.2-4.9,1-8.9-4.4-7.1-9.8l18.5-56.4c-3.8-5.4-7.2-11.1-10.3-16.9-11.2-21.3-17.5-45-17.5-70,0-71.6,51.5-132.7,123.9-156.7,21.2-7,44.1-10.8,68.1-10.8s49.8,4.3,72.1,12.2c70.3,24.8,119.9,85,119.9,155.3h0Z"/>
                <g class="cls-23">
                  <path class="cls-27" d="M2513.8,575.5c-30.4,57.6-97.1,97.6-174.4,97.6s-76.6-10.6-107.3-28.6c-20.2,4-51.7,10.6-68.3,14.2-4.9,1-8.9-4.4-7.1-9.8l18.5-56.4c-3.8-5.4-7.2-11.1-10.3-16.9-11.2-21.3-17.5-45-17.5-70,0-71.6,51.5-132.7,123.9-156.7,13.6,6.6,25.1,16,33.7,28.9,33.5,50.3-1.3,120.2,27.9,158.7,1.2,1.7,2.6,3.3,4.1,4.8,2.7,2.7,5.4,4.9,8.3,6.7,22,13.9,50.1,3.3,79.7-2,4.1-.7,8.2-1.4,12.3-1.9,7.6-.9,15.3-1.1,23-.3,4.1.4,8.2,1.2,12.3,2.3,3.7,1.1,7.5,2.5,11.2,4.2,10.1,4.8,20.4,12.7,30.1,25.3h0Z"/>
                </g>
              </g>
              <g>
                <path class="cls-42" d="M2365.9,589.1c0,3.8-3.1,6.9-6.9,6.9h-41.3c-3.8,0-6.9-3.1-6.9-6.9v-3.4c0-3.8,3.1-6.9,6.9-6.9h41.3c3.8,0,6.9,3.1,6.9,6.9v3.4Z"/>
                <path class="cls-42" d="M2365.9,608.2c0,2.9-2.3,5.2-5.2,5.2h-38c-2.9,0-5.2-2.3-5.2-5.2h0c0-2.9,2.3-5.2,5.2-5.2h38c2.9,0,5.2,2.3,5.2,5.2h0Z"/>
                <g>
                  <path class="cls-42" d="M2325.9,537.5c7.6,31.4,7.6,31,7.6,31h13.9s0-.4,7.7-32.3c-13.1,5.3-23.3,3.8-29.1,1.3h0Z"/>
                  <path class="cls-42" d="M2340.4,443c-27.9,0-50.5,22.6-50.5,50.5s2.5,17.8,6.7,25.2c6.6,11.4,11.2,24.2,13.2,37.2.2,1.5.5,2.7.7,4.2.8,5,5.1,8.3,10.2,8.3h7.5c-.5,0-5.4-21.7-8.7-35.4-.3-1,.2-1.3,1.1-1.9.9-.6,2.1,0,2.9.6.5.4,13.7,10.6,33.9,0,.9-.5,1.9-.3,2.7.3s1.1,0,.9.9c-3.3,13.7-8.2,35.4-8.7,35.4h7.5c5.1,0,9.4-3.3,10.2-8.3.2-1.5.5-2.9.7-4.4,2.1-13.2,6.6-25.6,13.2-37.1,4.3-7.4,6.7-15.9,6.7-25.1,0-27.9-22.6-50.5-50.5-50.5h.3Z"/>
                </g>
                <path class="cls-42" d="M2345.2,418.4c0,2.8-2.3,5.1-5.1,5.1h-.3c-2.8,0-5.1-2.3-5.1-5.1v-27.9c0-2.8,2.3-5.1,5.1-5.1h.3c2.8,0,5.1,2.3,5.1,5.1v27.9Z"/>
                <g>
                  <path class="cls-42" d="M2280.1,457l-25.6-16.3c-2.4-1.5-5.5-.8-7,1.5s-.8,5.5,1.5,7l25.6,16.3c2.4,1.5,5.5.8,7-1.5,1.5-2.4.8-5.5-1.5-7Z"/>
                  <path class="cls-42" d="M2272.4,489l-30.3-1.1c-2.8,0-5.1,2.1-5.2,4.9-.1,2.8,2.1,5.1,4.9,5.2l30.3,1.1c2.8.1,5.1-2.1,5.2-4.9.1-2.8-2.1-5.1-4.9-5.2Z"/>
                  <path class="cls-42" d="M2408.4,489l30.3-1.1c2.8,0,5.1,2.1,5.2,4.9.1,2.8-2.1,5.1-4.9,5.2l-30.3,1.1c-2.8.1-5.1-2.1-5.2-4.9-.1-2.8,2.1-5.1,4.9-5.2Z"/>
                  <path class="cls-42" d="M2433.2,442.3c-1.5-2.4-4.6-3-7-1.5l-25.6,16.3c-2.4,1.5-3,4.6-1.5,7s4.6,3,7,1.5l25.6-16.3c2.4-1.5,3-4.6,1.5-7Z"/>
                </g>
                <g>
                  <path class="cls-42" d="M2294,404.5c-1.2-2.5-4.3-3.5-6.8-2.3s-3.5,4.3-2.3,6.8l13.5,27.2c1.2,2.5,4.3,3.5,6.8,2.3s3.5-4.3,2.3-6.8l-13.5-27.2Z"/>
                  <path class="cls-42" d="M2393.6,402.2c-2.5-1.2-5.5-.2-6.8,2.3l-13.5,27.2c-1.2,2.5-.2,5.5,2.3,6.8,2.5,1.2,5.5.2,6.8-2.3l13.5-27.2c1.2-2.5.2-5.5-2.3-6.8Z"/>
                </g>
              </g>
            </g>
            <g>
              <g>
                <path class="cls-61" d="M2067.5,2794.7c93.8-12.1,212.7-43.7,260.5-133,11.4-21.2,22.8-62.5-5.9-78-26.2-14.2-60.1.8-79.6,19.3-14.3,13.6-25.5,43.9-41.6,53.5-23.6,14-36.2-24.3-35.7-40.1,1.1-35.3,44.6-49.8,73.5-57.5,48-12.7,103.8-23.7,100.8-77.7s-55.7-86.5-96.2-62.8c-33.4,19.5-28.7,61.1-51.5,86-20.3,22.2-27.3-13.8-26-31.4,2.9-38.3,36.6-66,61.4-91.7,28-29,59-87.4,29.1-125.8-17.2-22.1-60.9-27.3-86.7-23.5-126.3,18.2-42.6,181.7-65.5,200s-44.7-13.7-44.6-62.2c0-48.6-7.4-84.4-58-68.8-50.7,15.5-60.3,142.4-2.5,191.1s-3.6,101.9-19.2,67c-11.2-25.2-21.1-91.3-53.5-98.5-54-12-53.2,98.2-37.7,123.9,21.8,36,71,43.8,98.6,74.8,8,9,26,31.3,19,44.5-9.8,18.4-37-1.3-47.1-9.8-22.5-19.2-53.7-84.2-85.4-41-39.2,53.4,26.3,132.5,193.9,141.9v-.2Z"/>
                <g class="cls-96">
                  <path class="cls-42" d="M2081,2784.6c-2.2,0-4-1.4-4.1-3.6,0-1.9-2.6-194,81.3-422.7.8-2.1,3.1-3.1,5.2-2.3,2.1.8,3.2,3.1,2.4,5.2-83.4,227.3-80.9,417.7-80.8,419.6,0,2.2-1.7,3.8-4,3.8h0Z"/>
                </g>
              </g>
              <path class="cls-52" d="M2115.5,2712.5c-15.2-12.9-47.5,7.3-60.9,15-7.8,4.5-18.4,11.3-27.8,7.3-9.8-4.2-9.1-14.5-3.2-21.8,10.6-13.1,31.1-16.7,45.9-23.1,15.9-6.9,30.6-16.2,38.4-32.3,6.3-12.8,7.7-31.8.6-44.4-19.5-35-47.9-7.7-63.8,13.2-7.7,10.1-25,27.5-38.1,15.6-13.9-12.7-2-35.3,8.8-45.3,14.1-13,31.2-22.1,46.6-33.4,13.9-10.2,28.1-24.9,18.9-43-7.1-14-25.1-21.7-40.4-20.6-35.4,2.7-41,54.5-64.3,74.3-8.2,7-27,12.6-36.8,5.7-10-7-3.5-23.1,0-31.9,10.7-26,87.3-113.1,23.8-124.1-16-2.8-38,2.3-50.6,12.4-23.7,19.2-36.3,57.2-42.5,86-9.8,45.3-9.3,95.7,1.7,140.8,24.2,99.6,81.2,131.7,81.2,131.7,24.6,8.1,55.4,12.1,80.9,6.7,30-6.4,65.9-28.6,80.7-56.3,4.8-9,10.1-24.7.7-32.7l.2.2Z"/>
            </g>
          </g>
        </g>
      </g>
    </g>
  </g>
</svg>