<?xml version="1.0" encoding="UTF-8"?>
<svg xmlns="http://www.w3.org/2000/svg" version="1.1" xmlns:xlink="http://www.w3.org/1999/xlink" viewBox="0 0 3710 3710">
  <defs>
    <style>
      .cls-1 {
        fill: url(#linear-gradient-15);
      }

      .cls-2 {
        fill: url(#linear-gradient-13);
      }

      .cls-3 {
        fill: url(#linear-gradient-2);
      }

      .cls-4 {
        fill: url(#linear-gradient-12);
      }

      .cls-5 {
        fill: url(#linear-gradient-21);
        opacity: .4;
      }

      .cls-5, .cls-6, .cls-7, .cls-8, .cls-9 {
        isolation: isolate;
      }

      .cls-10, .cls-8 {
        fill: #fff;
      }

      .cls-6 {
        fill: url(#linear-gradient-9);
        opacity: .8;
      }

      .cls-11 {
        fill: none;
      }

      .cls-12 {
        fill: url(#linear-gradient-4);
      }

      .cls-7 {
        fill: url(#linear-gradient-10);
      }

      .cls-7, .cls-8, .cls-9, .cls-13 {
        opacity: .3;
      }

      .cls-14 {
        fill: url(#linear-gradient-3);
      }

      .cls-15 {
        clip-path: url(#clippath-1);
      }

      .cls-16 {
        fill: url(#linear-gradient-5);
      }

      .cls-17 {
        fill: #26264f;
      }

      .cls-18 {
        fill: url(#linear-gradient-24);
      }

      .cls-19 {
        fill: url(#linear-gradient-8);
      }

      .cls-20 {
        clip-path: url(#clippath-3);
      }

      .cls-21 {
        fill: url(#linear-gradient-14);
      }

      .cls-22 {
        fill: url(#linear-gradient-20);
      }

      .cls-23 {
        fill: url(#linear-gradient-17);
      }

      .cls-9 {
        fill: url(#linear-gradient-22);
      }

      .cls-24 {
        fill: url(#linear-gradient-7);
      }

      .cls-25 {
        fill: #d8dee8;
      }

      .cls-26 {
        fill: url(#linear-gradient-11);
      }

      .cls-27 {
        fill: url(#linear-gradient-19);
      }

      .cls-28 {
        fill: url(#linear-gradient-6);
      }

      .cls-29 {
        clip-path: url(#clippath-2);
      }

      .cls-30 {
        opacity: .7;
      }

      .cls-31 {
        fill: url(#linear-gradient-16);
      }

      .cls-32 {
        fill: url(#linear-gradient);
      }

      .cls-33 {
        fill: url(#linear-gradient-23);
      }

      .cls-34 {
        clip-path: url(#clippath);
      }

      .cls-35 {
        opacity: .5;
      }

      .cls-36 {
        fill: url(#linear-gradient-18);
      }

      .cls-37 {
        fill: #f4f7fa;
      }
    </style>
    <linearGradient id="linear-gradient" x1="3130.9" y1="-482.1" x2="2770" y2="486.6" gradientTransform="translate(0 1790)" gradientUnits="userSpaceOnUse">
      <stop offset="0" stop-color="#e38ddd"/>
      <stop offset="1" stop-color="#9571f6"/>
    </linearGradient>
    <clipPath id="clippath">
      <path class="cls-11" d="M2383.7,2370.1c150.8,1,343-19.2,527-102.5,47-21.2,337.2-152.5,302.9-284.7-12.1-46.6-54.2-53.9-71.4-115.9-20.4-73.4,25.7-110.1,57.6-201.6,19.1-54.6,74.9-214.4-20.9-302.9-57.2-52.9-165.9-77.9-248.7-58.6-121.4,28.3-163.1,146.5-230.3,347.7-59.5,178.3-44.2,222.1-89.4,349.8-33.5,94.7-96.5,225.2-226.9,368.7h0Z"/>
    </clipPath>
    <linearGradient id="linear-gradient-2" x1="698.3" y1="-363.1" x2="2221.4" y2="-363.1" gradientTransform="translate(0 1790)" gradientUnits="userSpaceOnUse">
      <stop offset="0" stop-color="#ff9085"/>
      <stop offset="1" stop-color="#fb6fbb"/>
    </linearGradient>
    <clipPath id="clippath-1">
      <path class="cls-11" d="M2221.3,2368.8c-115.7-71.4-274-193.4-374.6-390.9-132-259.1-48.7-420.5-155.9-882.8-67.8-292.3-118-495.6-288.5-575.1-133.6-62.3-325.1-41.1-422.9,61.8-81.4,85.5-107.6,237.6-103.9,341.5,3,84.7,26.1,142-12.3,194.8-39.3,53.9-96.5,39.6-135,81.4-78.1,84.9,19.6,293.6,35.4,327.4,175.6,375.2,593.4,567.4,776.7,649,151.5,67.5,381.8,151.6,681.1,192.9h0Z"/>
    </clipPath>
    <linearGradient id="linear-gradient-3" x1="1417.2" y1="10.4" x2="1130.8" y2="779.1" gradientTransform="translate(0 1790)" gradientUnits="userSpaceOnUse">
      <stop offset="0" stop-color="#e38ddd"/>
      <stop offset="1" stop-color="#9571f6"/>
    </linearGradient>
    <clipPath id="clippath-2">
      <path class="cls-11" d="M2183.5,2353c-170.1,131-405.4,273.6-685.8,337.7-71.6,16.4-513.7,117.4-588.6-62-26.4-63.2,15-107.8-18.8-192.9-40.1-100.8-123.9-102.7-239-179-68.6-45.5-269.5-178.6-237.1-361.4,19.3-109.2,121.1-231.2,231.6-280.6,162.1-72.4,311.1,25.6,560.5,195.9,221.1,150.9,241.4,213.7,402.5,319.6,119.5,78.6,303.4,172.2,574.7,222.6h0Z"/>
    </clipPath>
    <linearGradient id="linear-gradient-4" x1="1404.4" y1="794.2" x2="2142.9" y2="794.2" gradientTransform="translate(0 1790)" gradientUnits="userSpaceOnUse">
      <stop offset="0" stop-color="#ff9085"/>
      <stop offset="1" stop-color="#fb6fbb"/>
    </linearGradient>
    <clipPath id="clippath-3">
      <path class="cls-11" d="M2142.9,2506.7c-12.9-17.6-90.7-120-213.8-124.2-103-3.6-181.8,63.6-200.1,79.1-73.5,62.6-65,112.6-124.4,132.9-70.5,24.1-121.1-33.2-166.7-.1-31.5,22.8-40.7,74.2-27.9,110,22.4,62.9,117.8,92.9,190.1,77.8,99.7-20.7,101.9-115.7,215.1-146.2,65.8-17.7,84.9,9,154.9-8.2,81.2-19.9,137.6-76.1,172.8-121.1Z"/>
    </clipPath>
    <linearGradient id="linear-gradient-5" x1="2630.4" y1="-916.6" x2="2685.5" y2="-2261.1" gradientTransform="translate(0 1790)" gradientUnits="userSpaceOnUse">
      <stop offset="0" stop-color="#ffc444"/>
      <stop offset="1" stop-color="#f36f56"/>
    </linearGradient>
    <linearGradient id="linear-gradient-6" x1="2305.1" y1="-2243.2" x2="2232.8" y2="-2152.6" gradientTransform="translate(87.1 3088.7) rotate(-9.5)" gradientUnits="userSpaceOnUse">
      <stop offset="0" stop-color="#444b8c"/>
      <stop offset="1" stop-color="#3e4177"/>
    </linearGradient>
    <linearGradient id="linear-gradient-7" x1="2300.5" y1="-2241.8" x2="2229.4" y2="-2152.6" gradientTransform="translate(87.1 3088.7) rotate(-9.5)" gradientUnits="userSpaceOnUse">
      <stop offset="0" stop-color="#444b8c"/>
      <stop offset="1" stop-color="#3e4177"/>
    </linearGradient>
    <linearGradient id="linear-gradient-8" x1="2357.4" y1="-2088" x2="2157.6" y2="-1558.1" gradientTransform="translate(87.1 3088.7) rotate(-9.5)" gradientUnits="userSpaceOnUse">
      <stop offset="0" stop-color="#444b8c"/>
      <stop offset="1" stop-color="#3e4177"/>
    </linearGradient>
    <linearGradient id="linear-gradient-9" x1="2426.7" y1="-2091.5" x2="2221" y2="-1545.9" gradientTransform="translate(87.1 3088.7) rotate(-9.5)" gradientUnits="userSpaceOnUse">
      <stop offset="0" stop-color="#444b8c"/>
      <stop offset="1" stop-color="#3e4177"/>
    </linearGradient>
    <linearGradient id="linear-gradient-10" x1="2363.2" y1="-2105.3" x2="2156.1" y2="-1556" gradientTransform="translate(87.1 3088.7) rotate(-9.5)" gradientUnits="userSpaceOnUse">
      <stop offset="0" stop-color="#444b8c"/>
      <stop offset="1" stop-color="#3e4177"/>
    </linearGradient>
    <linearGradient id="linear-gradient-11" x1="2108.7" y1="845" x2="2146.8" y2="-53.6" gradientTransform="translate(0 1790)" gradientUnits="userSpaceOnUse">
      <stop offset="0" stop-color="#311944"/>
      <stop offset="1" stop-color="#893976"/>
    </linearGradient>
    <linearGradient id="linear-gradient-12" x1="2023" y1="-5.7" x2="1987.1" y2="-779.5" gradientTransform="translate(0 1790)" gradientUnits="userSpaceOnUse">
      <stop offset="0" stop-color="#ffc444"/>
      <stop offset="1" stop-color="#f36f56"/>
    </linearGradient>
    <linearGradient id="linear-gradient-13" x1="2534.7" y1="-2026.9" x2="2337.4" y2="-1503.7" gradientTransform="translate(87.1 3088.7) rotate(-9.5)" gradientUnits="userSpaceOnUse">
      <stop offset="0" stop-color="#444b8c"/>
      <stop offset="1" stop-color="#3e4177"/>
    </linearGradient>
    <linearGradient id="linear-gradient-14" x1="2534.7" y1="-2026.9" x2="2337.4" y2="-1503.7" gradientTransform="translate(87.1 3088.7) rotate(-9.5)" gradientUnits="userSpaceOnUse">
      <stop offset="0" stop-color="#444b8c"/>
      <stop offset="1" stop-color="#3e4177"/>
    </linearGradient>
    <linearGradient id="linear-gradient-15" x1="2191.2" y1="-1527.5" x2="2239.4" y2="-2704.5" gradientTransform="translate(87.1 3088.7) rotate(-9.5)" gradientUnits="userSpaceOnUse">
      <stop offset="0" stop-color="#ffc444"/>
      <stop offset="1" stop-color="#f36f56"/>
    </linearGradient>
    <linearGradient id="linear-gradient-16" x1="2524.1" y1="281.5" x2="2676.5" y2="-1463.1" gradientTransform="translate(0 1790)" gradientUnits="userSpaceOnUse">
      <stop offset="0" stop-color="#e38ddd"/>
      <stop offset=".7" stop-color="#ac79ef"/>
      <stop offset="1" stop-color="#9571f6"/>
    </linearGradient>
    <linearGradient id="linear-gradient-17" x1="1249.7" y1="707.7" x2="353.9" y2="802.8" gradientTransform="translate(0 1790)" gradientUnits="userSpaceOnUse">
      <stop offset="0" stop-color="#ffc444"/>
      <stop offset="1" stop-color="#f36f56"/>
    </linearGradient>
    <linearGradient id="linear-gradient-18" x1="1728.1" y1="316.7" x2="2473.7" y2="1968.1" gradientTransform="translate(0 1790)" gradientUnits="userSpaceOnUse">
      <stop offset="0" stop-color="#ffc444"/>
      <stop offset="1" stop-color="#f36f56"/>
    </linearGradient>
    <linearGradient id="linear-gradient-19" x1="1905.3" y1="535.5" x2="1978.7" y2="-1068.1" gradientTransform="translate(0 1790)" gradientUnits="userSpaceOnUse">
      <stop offset="0" stop-color="#ffc444"/>
      <stop offset="1" stop-color="#f36f56"/>
    </linearGradient>
    <linearGradient id="linear-gradient-20" x1="1727.9" y1="316.7" x2="2473.5" y2="1968.1" gradientTransform="translate(0 1790)" gradientUnits="userSpaceOnUse">
      <stop offset="0" stop-color="#ffc444"/>
      <stop offset="1" stop-color="#f36f56"/>
    </linearGradient>
    <linearGradient id="linear-gradient-21" x1="1939.1" y1="221.4" x2="2684.7" y2="1872.7" gradientTransform="translate(0 1790)" gradientUnits="userSpaceOnUse">
      <stop offset="0" stop-color="#ffc444"/>
      <stop offset="1" stop-color="#f36f56"/>
    </linearGradient>
    <linearGradient id="linear-gradient-22" x1="4770.6" y1="-1006.9" x2="5172.1" y2="-1006.9" gradientTransform="translate(0 1790)" gradientUnits="userSpaceOnUse">
      <stop offset="0" stop-color="#aa80f9"/>
      <stop offset="1" stop-color="#6165d7"/>
    </linearGradient>
    <linearGradient id="linear-gradient-23" x1="7293.1" y1="572.2" x2="8120.2" y2="572.2" gradientTransform="translate(-2499.2 1696.7) rotate(1.1)" gradientUnits="userSpaceOnUse">
      <stop offset="0" stop-color="#444b8c"/>
      <stop offset="1" stop-color="#26264f"/>
    </linearGradient>
    <linearGradient id="linear-gradient-24" x1="-384.7" y1="637.9" x2="55.3" y2="2958.9" gradientTransform="translate(4838.9 1790) rotate(-180) scale(1 -1)" gradientUnits="userSpaceOnUse">
      <stop offset="0" stop-color="#e38ddd"/>
      <stop offset="1" stop-color="#9571f6"/>
    </linearGradient>
  </defs>
  <!-- Generator: Adobe Illustrator 28.6.0, SVG Export Plug-In . SVG Version: 1.2.0 Build 709)  -->
  <g>
    <g id="Layer_1">
      <g id="Illustration">
        <g>
          <path class="cls-37" d="M1057.4,654.4c-97.2,139.2,16.8,364.9-127.5,469.6-140.5,101.9-313-65.1-445.4,22.6-196.4,130.1-160.5,725.6,126.6,1095.6,86.3,111.3,158.5,154.6,190.4,280.4,68.6,270.2-172.5,430.9-126.6,564.6,103.3,300.9,1692.3,553.4,2329.9-350.9,297.8-422.4,342.3-1032.3,76.3-1495.5-480.7-837-1805.5-898.8-2023.7-586.4h0Z"/>
          <g>
            <path id="SVGID" class="cls-32" d="M2383.7,2370.1c150.8,1,343-19.2,527-102.5,47-21.2,337.2-152.5,302.9-284.7-12.1-46.6-54.2-53.9-71.4-115.9-20.4-73.4,25.7-110.1,57.6-201.6,19.1-54.6,74.9-214.4-20.9-302.9-57.2-52.9-165.9-77.9-248.7-58.6-121.4,28.3-163.1,146.5-230.3,347.7-59.5,178.3-44.2,222.1-89.4,349.8-33.5,94.7-96.5,225.2-226.9,368.7h0Z"/>
            <g class="cls-34">
              <g class="cls-35">
                <path class="cls-10" d="M2005,2452.4c-87.3,0-176.7-12.1-267.3-36.2l1.8-6.9c165,43.9,325.5,47.6,477.1,11.1,202-48.7,377.2-169.7,520.8-359.6,149.5-197.8,227.3-420.9,266.2-573.1,26.9-105.3,21.7-222-15.4-346.7l6.8-2c37.5,126,42.8,243.9,15.5,350.5-39.1,152.9-117.2,376.9-267.4,575.6-144.6,191.3-321.1,313.1-524.8,362.3-69.4,16.7-140.6,25.1-213.3,25.1h0Z"/>
                <path class="cls-10" d="M2901.7,1791.8l-2-2.5c-.4-.5-42.8-53.3-77-133.8-31.6-74.4-62.6-188.6-30.7-309.5l6.9,1.8c-56.5,214.3,85.8,410.2,104.4,434.6,319.1-207.8,316-445.2,307.3-513.1-.2-1.9-.4-3-.4-3.5h7.2c0,.4.1,1.3.3,2.6,8.8,69.2,12.1,311.3-313.3,521.8l-2.7,1.7h0Z"/>
                <path class="cls-10" d="M2864.7,2072.4c-37.5,0-78.3-2.8-122.6-9.3l-1.9-.3-.8-1.7c-.9-1.8-87.1-186.9-68.2-438.5l19.1-253.6,7.1.5-19.1,253.6c-17.8,236.8,58.1,414,66.7,433.2,107.8,15.6,263.2,18.2,394.6-56.9,79-45.1,112.3-97.8,112.7-98.3l6.1,3.8c-1.4,2.2-34.3,54.4-114.8,100.5-57.5,32.9-148.5,67-278.9,67h0Z"/>
              </g>
            </g>
          </g>
          <g>
            <g>
              <path id="SVGID-2" class="cls-3" d="M2221.3,2368.8c-115.7-71.4-274-193.4-374.6-390.9-132-259.1-48.7-420.5-155.9-882.8-67.8-292.3-118-495.6-288.5-575.1-133.6-62.3-325.1-41.1-422.9,61.8-81.4,85.5-107.6,237.6-103.9,341.5,3,84.7,26.1,142-12.3,194.8-39.3,53.9-96.5,39.6-135,81.4-78.1,84.9,19.6,293.6,35.4,327.4,175.6,375.2,593.4,567.4,776.7,649,151.5,67.5,381.8,151.6,681.1,192.9h0Z"/>
              <g class="cls-15">
                <g class="cls-35">
                  <path class="cls-10" d="M2347.3,2418.6c-182.4-29.9-343.8-77-479.6-140-201-93.2-340-219.1-413.1-374-57.2-121.2-73.7-261.7-94.7-439.7-17.4-147.5-16.4-253.6-15.5-347.1,1.1-121.3,2-217.1-38.6-347.1-41.3-132.1-113.1-257.2-213.4-371.8l5.4-4.7c101,115.4,173.3,241.3,214.9,374.3,41,131.1,40.1,227.4,38.9,349.3-.9,93.3-1.9,199.2,15.4,346.2,21.7,184.3,37.4,317.4,94,437.5,72.4,153.4,210.2,278,409.7,370.5,135.2,62.7,296,109.6,477.8,139.4l-1.2,7v.2Z"/>
                  <path class="cls-10" d="M1351.9,1360.2l-1.9-3.5c-131.7-246.6-305.6-382.3-428.2-452.7-132.8-76.2-235.7-94.4-236.7-94.5l1.2-7c1,.2,105.1,18.5,239.1,95.4,122.9,70.5,296.8,206.1,429,451.9,16.4-12.4,92.4-72.6,159.3-177.1,69.3-108.2,143-287.4,100.1-526.8l7-1.3c43.3,241.8-31.2,422.8-101.3,532.2-76,118.4-163.4,180.6-164.3,181.2l-3.3,2.3h0Z"/>
                  <path class="cls-10" d="M1409.3,1756.4l-2.6-.2c-168.4-14.3-375.4-197.7-519.4-349-155.7-163.6-273.3-326-274.5-327.6l5.8-4.2c1.2,1.6,118.6,163.7,273.9,327,142.4,149.6,346.5,330.8,512.2,346.5,8.8-20.4,73.5-167.6,165.4-303.6,99-146.5,378.4-247,381.2-248l2.4,6.7c-2.8,1-280,100.7-377.7,245.3-98.1,145.3-165.1,303.2-165.7,304.8l-1,2.4h0Z"/>
                  <path class="cls-10" d="M1718.8,2255.8c-62.6,0-155-3.4-263-18-185.3-25.1-455.7-89.4-691.3-253.1l-454.9-316,4.1-5.8,454.9,316c234.3,162.8,503.5,226.8,688,251.8,175.2,23.8,309.3,17.8,340.9,15.9-55.2-64.6-85.3-137.7-89.4-217.3-3.4-65.3,10.6-135.2,41.5-207.5,52.6-122.9,137.4-211.8,138.2-212.7l5.1,4.9c-.8.9-84.8,89-136.9,210.7-30.5,71.3-44.3,140-40.9,204.2,4.2,80.1,35.3,153.6,92.4,218.2l4.7,5.3-7.1.6c-.7,0-32.5,2.6-86.4,2.6v.2Z"/>
                </g>
              </g>
            </g>
            <g>
              <path id="SVGID-3" class="cls-14" d="M2183.5,2353c-170.1,131-405.4,273.6-685.8,337.7-71.6,16.4-513.7,117.4-588.6-62-26.4-63.2,15-107.8-18.8-192.9-40.1-100.8-123.9-102.7-239-179-68.6-45.5-269.5-178.6-237.1-361.4,19.3-109.2,121.1-231.2,231.6-280.6,162.1-72.4,311.1,25.6,560.5,195.9,221.1,150.9,241.4,213.7,402.5,319.6,119.5,78.6,303.4,172.2,574.7,222.6h0Z"/>
              <g class="cls-29">
                <g class="cls-35">
                  <path class="cls-10" d="M1928.4,2375.3c-133.3,0-271.7-20.1-414.6-60.2-341.3-95.9-622.5-282.5-798.4-422.2-122.5-97.3-218-235.3-283.8-410.2l6.7-2.5c65.4,173.7,160.1,310.6,281.5,407.1,175.3,139.2,455.7,325.3,795.9,420.9,326.7,91.8,629.9,78.1,901.2-40.7,203.7-89.2,382.7-231.8,532.1-423.9l5.6,4.4c-150.1,193-330.1,336.4-534.8,426-154.1,67.5-318.4,101.3-491.3,101.3h0Z"/>
                  <path class="cls-10" d="M984.7,2146.4c-467.9,0-648.1-245.4-694.2-325.3-1-1.7-1.6-2.8-1.9-3.3l5.6-4.3c.4.6,1,1.5,2.5,4.1,48.9,84.7,250.5,357.7,793.2,317.8.2-17.6-.6-105.3-27.8-212.7-27.9-110.2-90.3-264.4-228.7-372.5l4.4-5.6c140,109.5,203,265.2,231.2,376.6,30.5,120.6,27.9,216.7,27.9,217.6v3.2c0,0-3.3.2-3.3.2-37.9,2.9-74.2,4.2-108.9,4.2h0Z"/>
                  <path class="cls-10" d="M931.4,2597.4c-86.3,0-139.1-19.8-139.8-20l2.5-6.6c.8.3,84.1,31.4,212.9,14.6,118.7-15.5,301.3-76.1,498.1-276.3-5.7-24.9-71.4-294.2-297.9-550.1l-240-271.1,5.3-4.7,240,271.1c237.8,268.7,299.4,552.4,300,555.2l.4,1.9-1.3,1.4c-198.9,203-383.9,264.2-504.1,279.9-27.5,3.6-53,5-76.1,5v-.3Z"/>
                </g>
              </g>
            </g>
            <g>
              <path id="SVGID-4" class="cls-12" d="M2142.9,2506.7c-12.9-17.6-90.7-120-213.8-124.2-103-3.6-181.8,63.6-200.1,79.1-73.5,62.6-65,112.6-124.4,132.9-70.5,24.1-121.1-33.2-166.7-.1-31.5,22.8-40.7,74.2-27.9,110,22.4,62.9,117.8,92.9,190.1,77.8,99.7-20.7,101.9-115.7,215.1-146.2,65.8-17.7,84.9,9,154.9-8.2,81.2-19.9,137.6-76.1,172.8-121.1Z"/>
              <g class="cls-20">
                <g class="cls-35">
                  <path class="cls-10" d="M1576.8,2689.1c-61.1,0-135.6-30.5-222.3-91.2l2-2.9c116.1,81.3,209.8,108.1,278.4,79.5,43.2-18,64.6-51.9,87.3-87.9,25.5-40.4,51.9-82.3,111.8-102.2,46-15.3,99.4-8,205.6,6.6,53.1,7.3,106.1,17.9,157.7,31.5l-.9,3.4c-51.4-13.6-104.3-24.1-157.2-31.4-105.7-14.6-158.7-21.9-204-6.8-58.7,19.6-84.7,60.8-109.9,100.7-23,36.4-44.7,70.8-89,89.3-18.2,7.6-38,11.3-59.5,11.3h0Z"/>
                  <path class="cls-10" d="M1455.2,2792.2l-.8-3.5c126.2-29.3,160.4-100.3,163.5-107.1-11.3-39-44.4-71.9-70.2-92.8-28.2-22.8-54.1-36.4-54.4-36.5l1.6-3.2c1,.5,104.7,55.3,126.5,132l.2.6-.2.6c-.3.8-32.4,78.8-166.2,109.9Z"/>
                  <path class="cls-10" d="M1742.3,2751.4c-12.7-38.1-1.2-94.6,34.1-167.8,23.6-49,50.6-89.4,55.9-97.2-57-46.4-196.3,63.8-197.7,65l-2.2-2.8c.4-.3,36.4-29,79.2-51.1,57.9-30,99.7-34.2,124.4-12.7l1.2,1-.9,1.3c-1.2,1.7-120,174.2-90.4,263.1l-3.4,1.1h-.2Z"/>
                  <path class="cls-10" d="M1865.8,2698.2c-33.6-128.8,139.1-199.9,159.7-207.8-59.2-102.1-207.2-121.5-208.7-121.7l.4-3.5c1.5.2,153,20,212.3,125.2l1,1.8-2,.7c-1.9.7-194.1,71.3-159.5,204.3l-3.4.9h.2Z"/>
                </g>
              </g>
            </g>
          </g>
          <g>
            <path class="cls-25" d="M1410.8,1108.2c19.7,10,44.4.8,55.2-20.5,10.8-21.3,3.6-46.7-16-56.7-1-.5-2.1-1-3.1-1.4,3.7-11.8,6.4-23.7,8.3-35.6,1.1,0,2.3,0,3.4,0,22.4-2,40.3-22.6,39.8-46.1-.5-23.4-19.1-40.8-41.5-38.8-1.2,0-2.3.3-3.5.5-2.3-11.6-5.6-23-9.6-34,1-.6,2.1-1.2,3.1-1.9,19.2-13.5,25.3-40,13.7-59.3-11.6-19.3-36.6-24-55.8-10.6-1,.7-1.9,1.4-2.8,2.2-7.6-8.4-15.9-16.2-24.9-23.3.6-1,1.3-2.1,1.8-3.2,10.8-21.3,25-44.6,5.1-54.3-45.9-22.4-65.6-3.2-76.4,18.1-.6,1.1-1,2.2-1.5,3.3-11-3.1-22.2-5.2-33.5-6.4,0-1.2,0-2.4,0-3.6-.5-23.4,6.5-36.1-16-36.6-49.1-1-65.7,20.4-65.3,43.8,0,1.2,0,2.4.2,3.6-11.3,3.2-22.3,7.3-33.1,12.3-.5-1-1-2.1-1.7-3.1-11.6-19.3-36.6-24-55.8-10.6-19.2,13.5-25.3,40-13.7,59.3.6,1,1.2,1.9,1.9,2.8-8.5,8.5-16.5,17.7-23.8,27.7-1-.6-1.9-1.2-2.9-1.7-19.7-10-44.4-.8-55.2,20.5s-3.6,46.7,16,56.7c1,.5,2.1,1,3.1,1.4-3.7,11.8-6.4,23.7-8.3,35.6-1.1,0-2.3,0-3.4,0-22.5,2-40.3,22.6-39.8,46.1.5,23.4,19.1,40.8,41.5,38.8,1.2,0,2.3-.3,3.5-.5,2.3,11.6,5.6,23,9.6,34-1,.6-2.1,1.2-3.1,1.9-19.2,13.5-25.3,40-13.7,59.3,11.6,19.3,50.1,28.3,69.4,14.8,1-.7-11.6-5.7-10.7-6.4,7.6,8.4,15.9,16.2,24.9,23.3-.6,1-1.3,2.1-1.8,3.2-10.8,21.3-3.6,46.7,16,56.7,19.7,10,44.4.8,55.2-20.5.6-1.1,1-2.2,1.5-3.3,11,3.1,22.2,5.2,33.5,6.4,0,1.2,0,2.4,0,3.6.5,23.4,19.1,40.8,41.5,38.8,22.5-2,40.3-22.6,39.8-46.1,0-1.2,0-2.4-.2-3.6,11.3-3.2,22.3-7.3,33.1-12.3.5,1,1,2.1,1.7,3.1,11.6,19.3,36.6,24,55.8,10.6,19.2-13.5,25.3-40,13.7-59.3-.6-1-1.2-1.9-1.9-2.8,8.5-8.5,16.5-17.7,23.8-27.7,1,.6,1.9,1.2,2.9,1.7h0ZM1165.5,1111.3c-71.4-36.3-97.5-128.4-58.2-205.8,39.3-77.4,129-110.7,200.5-74.4,71.4,36.3,97.5,128.4,58.2,205.8s-129,110.7-200.5,74.4Z"/>
            <path class="cls-25" d="M1458.5,994c22.4-2,40.3-22.6,39.8-46.1-.5-23.4-19.1-40.8-41.5-38.8-1.2,0-2.3.3-3.5.5-2.3-11.6-5.6-23-9.6-34,1-.6,2.1-1.2,3.1-1.9,19.2-13.5,43-46,29.4-64-25.7-34.2-52.3-19.4-71.5-5.9-1,.7-1.9,1.4-2.8,2.2-7.6-8.4-15.9-16.2-24.9-23.3.6-1,1.3-2.1,1.8-3.2,5.9-11.6,6.4-24.4,2.5-35.2-18.6,32.7-36.9,65.4-54.8,98.4,57,41.8,75.1,124.1,39.5,194.2-30.2,59.5-90.2,92.9-148.8,88.7-2.6,6.8-5.2,13.6-8,20.3-7.6,18.2-16.2,36.1-24.9,53.9,5.4,1,10.9,1.8,16.4,2.4,0,1.2,0,2.4,0,3.6.5,23.4,14.7,43.4,55.4,41.2,22.5-1.2,26.4-25,25.9-48.5,0-1.2,0-2.4-.2-3.6,11.3-3.2,22.3-7.3,33.1-12.3.5,1,1,2.1,1.7,3.1,11.6,19.3,52,27.5,71.2,14.1,19.2-13.5,10-43.5-1.6-62.8-.6-1-1.2-1.9-1.9-2.8,8.5-8.5,16.5-17.7,23.8-27.7,1,.6,1.9,1.2,2.9,1.7,19.7,10,44.4.8,55.2-20.5,10.8-21.3,3.6-46.7-16-56.7-1-.5-2.1-1-3.1-1.4,3.7-11.8,6.4-23.7,8.3-35.6,1.1,0,2.3,0,3.4,0h-.2Z"/>
            <path class="cls-10" d="M1431.9,1110.6c19.7,10,44.4.8,55.2-20.5s3.6-46.7-16-56.7c-1-.5-2.1-1-3.1-1.4,3.7-11.8,6.4-23.7,8.3-35.6,1.1,0,2.3,0,3.4,0,22.5-2,40.3-22.6,39.8-46.1-.5-23.4-19.1-40.8-41.5-38.8-1.2,0-2.3.3-3.5.5-2.3-11.6-5.6-23-9.6-34,1-.6,2.1-1.2,3.1-1.9,19.2-13.5,25.3-40,13.7-59.3-11.6-19.3-36.6-24-55.8-10.6-1,.7-1.9,1.4-2.8,2.2-7.6-8.4-15.9-16.2-24.9-23.3.6-1,1.3-2.1,1.8-3.2,10.8-21.3,3.6-46.7-16-56.7-19.7-10-44.4-.8-55.2,20.5-.6,1.1-1,2.2-1.5,3.3-11-3.1-22.2-5.2-33.5-6.4,0-1.2,0-2.4,0-3.6-.5-23.4-19.1-40.8-41.5-38.8s-40.3,22.6-39.8,46.1c0,1.2,0,2.4.2,3.6-11.3,3.2-22.3,7.3-33.1,12.3-.5-1-1-2.1-1.7-3.1-11.6-19.3-36.6-24-55.8-10.6-19.2,13.5-25.3,40-13.7,59.3.6,1,1.2,1.9,1.9,2.8-8.5,8.5-16.5,17.7-23.8,27.7-1-.6-1.9-1.2-2.9-1.7-19.7-10-44.4-.8-55.2,20.5s-3.6,46.7,16,56.7c1,.5,2.1,1,3.1,1.4-3.7,11.8-6.4,23.7-8.3,35.6-1.1,0-2.3,0-3.4,0-22.5,2-40.3,22.6-39.8,46.1s19.1,40.8,41.5,38.8c1.2,0,2.3-.3,3.5-.5,2.3,11.6,5.6,23,9.6,34-1,.6-2.1,1.2-3.1,1.9-19.2,13.5-25.3,40-13.7,59.3,11.6,19.3,36.6,24,55.8,10.6,1-.7,1.9-1.4,2.8-2.2,7.6,8.4,15.9,16.2,24.9,23.3-.6,1-1.3,2.1-1.8,3.2-10.8,21.3-3.6,46.7,16,56.7s44.4.8,55.2-20.5c.6-1.1,1-2.2,1.5-3.3,11,3.1,22.2,5.2,33.5,6.4,0,1.2,0,2.4,0,3.6.5,23.4,19.1,40.8,41.5,38.8,22.5-2,40.3-22.6,39.8-46.1,0-1.2,0-2.4-.2-3.6,11.3-3.2,22.3-7.3,33.1-12.3.5,1,1,2.1,1.7,3.1,11.6,19.3,36.6,24,55.8,10.6,19.2-13.5,25.3-40,13.7-59.3-.6-1-1.2-1.9-1.9-2.8,8.5-8.5,16.5-17.7,23.8-27.7,1,.6,1.9,1.2,2.9,1.7ZM1186.6,1113.7c-71.4-36.3-97.5-128.4-58.2-205.8s129-110.7,200.5-74.4c71.4,36.3,97.5,128.4,58.2,205.8s-129,110.7-200.5,74.4Z"/>
          </g>
          <g>
            <path class="cls-16" d="M2715.6,833.5c-19.3-62.5-49.4-92.7-72.4-108.6-49.2-34.2-115.9-38.1-114-51.2.8-5.7,14-9.6,17.9-10.7,19.3-5.7,30.1,4.1,40.8-2.3,8-4.8,10.2-15.1,11.8-23.2,8-40.9-15.5-91.1-28.1-128-.9-2.6-2.8-8.5-.9-9.9,2.1-1.5,7.6,3,9.5,4.5,19.9,16.2,44.8,88.8,44.8,88.8,0,0,0-8.3-7.5-32-13.1-41.2-27.3-60.3-26-93,.2-6.4.5-12.1,2.7-12.8,11.2-3.3,51.4,129.9,58.8,127.4,1.9-.6.8-9.5.3-13.9-4.8-41.3-27.6-53.7-25.6-87,.3-5.3.7-12.9,3.6-13.7,9.6-2.7,35.3,75.1,48,110.8,19,53.2,43.1,129.5,63.3,226.4-9,9.5-18,19.1-27.1,28.6v-.2Z"/>
            <path class="cls-28" d="M1893.4,732.7c-35.6-11.1-45.1-52.3-48.9-68.6-8.9-38.5-5.5-104.9,34.8-123.3,32.4-14.8,68.5,10.5,73,13.8,45.6,32.9,37,96,36,102.6-2.2,14.8-6.9,45.3-33.7,64.2-1.9,1.3-30.6,21-61.3,11.3h0Z"/>
            <g class="cls-13">
              <path class="cls-24" d="M1940.5,638c-23.6-23.4-56.9-13.1-71-34.4-7-10.6-8.8-28.5,5.3-60.4-36.1,21.1-39,84-30.4,121,3.8,16.3,13.3,57.5,48.9,68.6,30.8,9.6,59.4-10,61.3-11.3,1.2-.8,2.3-1.7,3.4-2.6,3.9-30.6,1.7-61.7-17.6-80.8h0Z"/>
            </g>
            <path class="cls-19" d="M1865.3,1551.5s-143.2-445.3-142.7-612.8c.5-167.5,146.6-232.6,211.5-248.1,64.8-15.5,202.4,1.5,244.8,190.1,42.3,188.5,11.8,611.3,11.8,611.3l-325.3,59.5h-.1Z"/>
            <path class="cls-8" d="M1984.1,1103.2c103.2-12.6,126-110,220.8-121.3,9.2-1.1,19.5-1.4,30.9-.3-1.4-18.5-3.2-36.2-5.4-53-12.9-1.6-24.5-1.3-34.7,0-94.8,11.2-117.7,108.6-220.9,121.2-84.1,10.3-121.7-48-192.9-22.7-18.3,6.5-33.8,16.8-46.9,28.7,3,16.9,6.4,34.5,10.2,52.6,12.8-11.5,28-21.4,45.8-27.8,71.2-25.4,108.7,32.9,192.9,22.6h.2Z"/>
            <path class="cls-6" d="M1992.9,1273.9c-77.2,8.8-112.4-49.9-177.5-25.8-12.2,4.5-23.1,11.1-32.6,18.8,39,149.4,82.4,284.6,82.4,284.6l325.3-59.5s12-165.7,10.5-335.8c-2.4,0-4.7.3-7,.6-87,9.6-106.6,106.3-201.2,117.2h0Z"/>
            <path class="cls-7" d="M2165.9,990.3c-87,9.6-106.7,106.3-201.3,117-77.2,8.8-112.5-50-177.5-25.9-16.3,6-30.1,15.7-41.7,26.9,10.5,51.1,23.7,105.7,37.5,158.5,9.6-7.7,20.4-14.3,32.6-18.8,65.1-24.1,100.3,34.7,177.5,25.8,94.6-10.8,114.3-107.5,201.2-117.2,2.2-.2-19.9-167.3-28.3-166.4h0Z"/>
            <path class="cls-26" d="M1428.5,1867.1c-62.8-81.8,23.6-266.9,118.4-371.2,110.3-121.4,251.5-154.8,341.1-174.7,296.6-66,391.7,68.2,541.4-8.8,232.2-119.4,181.2-534.2,286.2-545.7,86.2-9.4,221.9,259.4,184.4,525.9-29.1,206.8-225.8,410.3-424.4,500.8-144.1,65.7-122.2,48.3-450.2,67.2-380.3,22-535,87.1-596.9,6.5h0Z"/>
            <path class="cls-4" d="M1785.1,1346.9c60.9-21.9,160.4-26.9,159.3-244.4,0,0,126.1-8,130.8-6.4,4.5,1.5-33.4,217.2,142.8,215.8,12,0,15.1,16.7,5.5,24.4-31.9,25.2-103.7,64.3-210.1,65.6-67.3.8-144.2,15.9-228.7-28.6-11.6-6.1-12.4-21.7.4-26.3h0Z"/>
            <path class="cls-2" d="M2216.4,1758.1c-35.7.4-23.3-301-130-743.6-22.1-91.8-43.8-166.6-59.2-216.9,37.9-4.9,75.9-9.7,113.8-14.6,65.9,126.6,164,362.3,145.4,667.7-8.8,143.6-43.7,307-69.9,307.4h-.1Z"/>
            <path class="cls-21" d="M2216.4,1758.1c-35.7.4-23.3-301-130-743.6-22.1-91.8-43.8-166.6-59.2-216.9,37.9-4.9,75.9-9.7,113.8-14.6,65.9,126.6,164,362.3,145.4,667.7-8.8,143.6-43.7,307-69.9,307.4h-.1Z"/>
            <path class="cls-1" d="M1820.3,974.7c4.8,28.3,27.1,238.7,187.5,203.9,146.4-31.7,107.9-180.4,90.7-255.5,0,0-18.3-66.9-70.9-75.6,0,0,52.3,29.2,66,113.7,0,0-19-42.6-126.7-20.9-107.8,21.7-122.1,74.6-122.1,74.6,0,0-32.8-77.2,14.7-131.2,0,0-36.8,20.3-39.1,91h-.1Z"/>
            <g class="cls-13">
              <path class="cls-31" d="M2864.7,954.1c20.1,116.6-1.5,191.8-32.9,242.5-70.7,114.1-195.8,110.6-349.8,290.7-86.2,100.8-91.8,154.3-145.4,231.7-24.6,35.5-56.7,72.3-99.7,107.9,115.7,3.2,138.1,12.3,238.6-33.6,198.6-90.6,395.3-294,424.4-500.8,17-121.1-1.7-242.7-35.3-338.4h0Z"/>
            </g>
          </g>
          <g>
            <path class="cls-23" d="M2901.9,1848.9l-2020.4-69.7c-42.7-1.5-78,32.7-78,75.4v1302.1c0,43.9,37.3,78.5,81.1,75.2l2020.4-151.6c39.4-3,69.8-35.8,69.8-75.2v-1080.9c0-40.7-32.2-74-72.8-75.4h-.1Z"/>
            <path class="cls-36" d="M2936.7,1848.9l-2020.4-69.7c-42.7-1.5-78,32.7-78,75.4v1302.1c0,43.9,37.3,78.5,81.1,75.2l2020.4-151.6c39.4-3,69.8-35.8,69.8-75.2v-1080.9c0-40.7-32.2-74-72.8-75.4h0Z"/>
            <g>
              <path class="cls-27" d="M2143.4,2573l846.6-699.2c-13.2-14.7-32.1-24.2-53.4-24.9l-2020.4-69.7c-19.2-.7-37,5.9-50.7,17.3l1131.8,782.8c44.6,30.8,104.3,28.3,146.1-6.2h0Z"/>
              <path class="cls-22" d="M2143.4,2573c-41.8,34.5-101.5,37.1-146.1,6.2l-1131.8-782.8c-16.7,13.8-27.4,34.7-27.4,58.1v1302.1c0,43.9,37.3,78.5,81.1,75.2l2020.4-151.6c39.4-3,69.8-35.8,69.8-75.2v-1080.9c0-19.4-7.4-37.1-19.5-50.5l-846.6,699.2v.2Z"/>
            </g>
            <path class="cls-5" d="M2990,1873.8l-846.6,699.2c-41.8,34.5-101.5,37.1-146.1,6.2l-1131.8-782.8c-16.7,13.8-27.4,34.7-27.4,58.1v192c40.9-17.2,75.5-20.5,103.6-18.1,77.8,6.5,96.3,55,245.2,125.1,139.2,65.5,153.8,37.6,215.2,85.1,118.2,91.5,66.5,197,170.1,295.2,107.9,102.3,201,22.9,355.3,120.1,163,102.7,110.8,224,245.2,295.2,188.2,99.8,380.4-90.5,540.4,10,48.4,30.4,79.3,78.3,99.2,130.7l127.2-9.5c39.4-3,69.8-35.8,69.8-75.2v-1080.9c0-19.4-7.4-37.1-19.5-50.5h.2Z"/>
          </g>
          <g>
            <path class="cls-25" d="M1473.2,1455.6c9.3,4.7,21,.4,26.1-9.7s1.7-22.1-7.6-26.8c-.5-.2-1-.4-1.5-.6,1.7-5.6,3-11.2,3.9-16.8h1.6c10.6-.9,19-10.7,18.8-21.8-.2-11.1-9-19.3-19.6-18.3-.6,0-1.1,0-1.6.2-1.1-5.5-2.6-10.9-4.5-16,.5-.3,1-.6,1.4-.9,9.1-6.4,12-18.9,6.5-28s-17.3-11.4-26.4-5c-.5.3-.9.7-1.3,1-3.6-4-7.5-7.6-11.8-11,.3-.5.6-1,.9-1.5,5.1-10.1,11.8-21.1,2.4-25.6-21.7-10.6-31-1.5-36.1,8.5-.3.5-.5,1.1-.7,1.6-5.2-1.5-10.5-2.5-15.8-3v-1.7c-.2-11.1,3.1-17.1-7.6-17.3-23.2-.5-31,9.6-30.8,20.7,0,.6,0,1.1,0,1.7-5.3,1.5-10.5,3.5-15.6,5.8-.2-.5-.5-1-.8-1.5-5.5-9.1-17.3-11.4-26.4-5s-12,18.9-6.5,28c.3.5.6.9.9,1.3-4,4-7.8,8.4-11.3,13.1-.4-.3-.9-.6-1.4-.8-9.3-4.7-21-.4-26.1,9.7s-1.7,22,7.6,26.8c.5.2,1,.4,1.5.6-1.7,5.6-3,11.2-3.9,16.8h-1.6c-10.6.9-19,10.7-18.8,21.8.2,11.1,9,19.3,19.6,18.3.6,0,1.1,0,1.6-.2,1.1,5.5,2.6,10.9,4.5,16-.5.3-1,.6-1.4.9-9.1,6.4-12,18.9-6.5,28s23.7,13.4,32.8,7c.5-.3-5.5-2.7-5-3,3.6,4,7.5,7.6,11.8,11-.3.5-.6,1-.9,1.5-5.1,10.1-1.7,22.1,7.6,26.8,9.3,4.7,21,.4,26.1-9.7.3-.5.5-1.1.7-1.6,5.2,1.5,10.5,2.5,15.8,3v1.7c.2,11.1,9,19.3,19.6,18.3s19-10.7,18.8-21.8c0-.6,0-1.1,0-1.7,5.3-1.5,10.5-3.5,15.6-5.8.2.5.5,1,.8,1.5,5.5,9.1,17.3,11.4,26.4,5s12-18.9,6.5-28c-.3-.5-.6-.9-.9-1.3,4-4,7.8-8.4,11.3-13.1.4.3.9.6,1.4.8h0ZM1357.4,1457c-33.7-17.1-46.1-60.6-27.5-97.2s61-52.3,94.7-35.1c33.7,17.1,46.1,60.6,27.5,97.2-18.6,36.5-61,52.3-94.7,35.1Z"/>
            <path class="cls-25" d="M1495.8,1401.6c10.6-.9,19-10.7,18.8-21.8-.2-11.1-9-19.3-19.6-18.3-.6,0-1.1,0-1.6.2-1.1-5.5-2.6-10.9-4.5-16,.5-.3,1-.6,1.4-.9,9.1-6.4,20.3-21.7,13.9-30.2-12.1-16.1-24.7-9.2-33.8-2.8-.5.3-.9.7-1.3,1-3.6-4-7.5-7.6-11.8-11,.3-.5.6-1,.9-1.5,2.8-5.5,3-11.5,1.2-16.7-8.8,15.4-17.4,30.9-25.9,46.5,26.9,19.7,35.5,58.6,18.7,91.8-14.3,28.1-42.6,43.9-70.3,41.9-1.2,3.2-2.4,6.4-3.8,9.6-3.6,8.6-7.7,17-11.7,25.5,2.6.5,5.1.9,7.7,1.1v1.7c.2,11.1,6.9,20.5,26.2,19.5,10.6-.6,12.5-11.8,12.2-22.9,0-.6,0-1.1,0-1.7,5.3-1.5,10.5-3.5,15.6-5.8.2.5.5,1,.8,1.5,5.5,9.1,24.6,13,33.6,6.6,9.1-6.4,4.7-20.5-.8-29.7-.3-.5-.6-.9-.9-1.3,4-4,7.8-8.4,11.3-13.1.4.3.9.6,1.4.8,9.3,4.7,21,.4,26.1-9.7s1.7-22-7.6-26.8c-.5-.2-1-.4-1.5-.6,1.7-5.6,3-11.2,3.9-16.8h1.6,0Z"/>
            <path class="cls-10" d="M1483.2,1456.7c9.3,4.7,21,.4,26.1-9.7s1.7-22-7.6-26.8c-.5-.2-1-.4-1.5-.6,1.7-5.6,3-11.2,3.9-16.8h1.6c10.6-.9,19-10.7,18.8-21.8s-9-19.3-19.6-18.3c-.6,0-1.1,0-1.6.2-1.1-5.5-2.6-10.9-4.5-16,.5-.3,1-.6,1.4-.9,9.1-6.4,12-18.9,6.5-28s-17.3-11.4-26.4-5c-.5.3-.9.7-1.3,1-3.6-4-7.5-7.6-11.8-11,.3-.5.6-1,.9-1.5,5.1-10.1,1.7-22.1-7.6-26.8s-21-.4-26.1,9.7c-.3.5-.5,1.1-.7,1.6-5.2-1.5-10.5-2.5-15.8-3v-1.7c-.2-11.1-9-19.3-19.6-18.3s-19,10.7-18.8,21.8c0,.6,0,1.1,0,1.7-5.3,1.5-10.5,3.5-15.6,5.8-.2-.5-.5-1-.8-1.5-5.5-9.1-17.3-11.4-26.4-5s-12,18.9-6.5,28c.3.5.6.9.9,1.3-4,4-7.8,8.4-11.3,13.1-.4-.3-.9-.6-1.4-.8-9.3-4.7-21-.4-26.1,9.7s-1.7,22.1,7.6,26.8c.5.2,1,.4,1.5.6-1.7,5.6-3,11.2-3.9,16.8h-1.6c-10.6.9-19,10.7-18.8,21.8.2,11.1,9,19.3,19.6,18.3.6,0,1.1,0,1.6-.2,1.1,5.5,2.6,10.9,4.5,16-.5.3-1,.6-1.4.9-9.1,6.4-12,18.9-6.5,28s17.3,11.4,26.4,5c.5-.3.9-.7,1.3-1,3.6,4,7.5,7.6,11.8,11-.3.5-.6,1-.9,1.5-5.1,10.1-1.7,22.1,7.6,26.8s21,.4,26.1-9.7c.3-.5.5-1.1.7-1.6,5.2,1.5,10.5,2.5,15.8,3v1.7c.2,11.1,9,19.3,19.6,18.3s19-10.7,18.8-21.8c0-.6,0-1.1,0-1.7,5.3-1.5,10.5-3.5,15.6-5.8.2.5.5,1,.8,1.5,5.5,9.1,17.3,11.4,26.4,5s12-18.9,6.5-28c-.3-.5-.6-.9-.9-1.3,4-4,7.8-8.4,11.3-13.1.5.3.9.6,1.4.8ZM1367.4,1458.2c-33.7-17.1-46.1-60.6-27.5-97.2,18.6-36.5,61-52.3,94.7-35.1,33.7,17.1,46.1,60.6,27.5,97.2-18.6,36.5-61,52.3-94.7,35.1Z"/>
          </g>
          <polygon class="cls-9" points="4770.6 131.2 4770.6 1307.9 4910.2 1434.9 5172.1 1225.2 4770.6 131.2"/>
          <g>
            <g>
              <g>
                <path class="cls-33" d="M5477.9,1792.3l120.6,1212.9c1.8,18.1-10.6,33.9-27.7,35.1l-587.6,49.2c-35.8,1.3-55.1-18-57.1-37.1l-130.7-1283.8c-2-19.3,15.9-36.4,52.1-35.6l595.6,25.1c17.3.7,32.9,16.1,34.7,34.3h.1Z"/>
                <path class="cls-17" d="M5504.6,1790.8l121.1,1219.1c1.8,18.2-10.7,34-27.8,35.3l-609.2,44.7c-19,1.4-36.2-13.2-38.2-32.4l-131.2-1290.6c-2-19.4,12.3-34.7,31.6-33.9l618.8,23.4c17.4.7,33,16.2,34.9,34.5h0Z"/>
                <path class="cls-18" d="M5491.8,1858l112.3,1129.9c1.7,17-10,31.8-26,32.9l-573,40.7c-17.7,1.3-33.7-12.3-35.5-30.2l-121.1-1192.1c-1.8-18,11.4-32.3,29.3-31.8l581.4,18.5c16.2.5,30.9,14.9,32.6,32h0Z"/>
              </g>
              <path class="cls-10" d="M5183.6,1783.3c.7,6.5-3.9,11.6-10.3,11.4-6.3-.2-12-5.7-12.7-12.2s4-11.6,10.3-11.4,12,5.7,12.7,12.2Z"/>
            </g>
            <g class="cls-30">
              <path class="cls-37" d="M5129.4,2111.5c-68.5,35.6-97.8,114.9-65.5,177s114,83.6,182.5,47.9l-117-224.9Z"/>
              <path class="cls-37" d="M5246.4,2336.4h0l-117-224.9h0c31.9-16.6,71.2-4.2,87.8,27.7l56.9,109.4c16.6,31.9,4.2,71.2-27.7,87.8h0Z"/>
              <path class="cls-37" d="M5295.4,2437.8c-68.5,35.6-97.8,114.9-65.5,177s114,83.6,182.5,47.9l-117-224.9Z"/>
              <path class="cls-37" d="M5412.4,2662.7h0l-117-224.9h0c31.9-16.6,71.2-4.2,87.8,27.7l56.9,109.4c16.6,31.9,4.2,71.2-27.7,87.8h0Z"/>
              <path class="cls-37" d="M5313.3,2594l-71.2,37.1c-91-88.6-152.5-206.8-184.5-354.6l71.2-37.1,184.5,354.6Z"/>
            </g>
            <g class="cls-13">
              <path class="cls-37" d="M5127.2,2378.4c-60.5-178.9,44.8-269-14.8-434.7-32.5-90.1-97.5-157.3-169-207.3l-92.5-3.5c-19.3-.7-33.6,14.5-31.6,33.9l131.2,1290.6c2,19.2,19.2,33.8,38.2,32.4l525.9-38.6c-1.7-134.8-35.9-230.7-74-298.9-104.6-187.4-250.8-188.8-313.5-374h0Z"/>
            </g>
          </g>
        </g>
      </g>
    </g>
  </g>
</svg>