<?xml version="1.0" encoding="utf-8"?>
<!-- Generator: Adobe Illustrator 27.5.0, SVG Export Plug-In . SVG Version: 6.00 Build 0)  -->
<svg version="1.1" xmlns="http://www.w3.org/2000/svg" xmlns:xlink="http://www.w3.org/1999/xlink" x="0px" y="0px"
	 viewBox="0 0 3710 3710" style="enable-background:new 0 0 3710 3710;" xml:space="preserve">
<g id="Background">
	<g>
		<g>
			<rect style="fill:#FFFFFF;" width="3710" height="3710"/>
		</g>
	</g>
</g>
<g id="Illustration">
	<g>
		<path style="fill:#F4F7FA;" d="M1862.323,380.826C1116.641,358.182,470.722,914.601,373.135,1644.693
			c-106.697,798.256,480.552,1516.495,1203.137,1631.531c898.775,143.087,1770.535-684.685,1692.26-1582.693
			C3209.559,1016.96,2620.324,403.844,1862.323,380.826z"/>
		<g>
			<g>
				<g>
					<defs>
						<path id="SVGID_1_" d="M2157.392,2772.58c41.165-109.853,84.657-276.729,48.844-464.638
							c-46.97-246.439-189.078-312.529-360.366-684.449c-108.304-235.162-181.517-400.368-107.277-544.723
							c58.179-113.124,199.945-199.899,321.079-181.48c100.72,15.315,198.97,105.15,251.393,178.017
							c42.725,59.387,57.267,110.642,111.397,126.312c55.319,16.014,86.733-24.026,135.116-15.823
							c98.12,16.634,141.841,210.621,148.906,241.973c78.602,348.754-104.75,700.668-186.577,853.211
							C2452.25,2407.108,2339.694,2586.238,2157.392,2772.58z"/>
					</defs>
					
						<linearGradient id="SVGID_00000008111632375048944600000010842453027745028004_" gradientUnits="userSpaceOnUse" x1="1708.4438" y1="1833.6976" x2="2725.6458" y2="1833.6976">
						<stop  offset="0" style="stop-color:#AA80F9"/>
						<stop  offset="0.9964" style="stop-color:#6165D7"/>
					</linearGradient>
					
						<use xlink:href="#SVGID_1_"  style="overflow:visible;fill:url(#SVGID_00000008111632375048944600000010842453027745028004_);"/>
					<clipPath id="SVGID_00000145775343556963933850000016918626555096849288_">
						<use xlink:href="#SVGID_1_"  style="overflow:visible;"/>
					</clipPath>
					<g style="opacity:0.5;clip-path:url(#SVGID_00000145775343556963933850000016918626555096849288_);">
						<path style="fill:#FFFFFF;" d="M2098.112,2873.387l-5.11-4.752c108.216-116.389,193.025-233.328,252.077-347.567
							c87.074-168.458,115.152-326.252,83.453-468.996c-24.828-111.809-84.506-210.861-167.101-347.956
							c-65.936-109.441-122.538-181.059-172.476-244.248c-65.258-82.569-116.801-147.786-158.192-258.893
							c-42.004-112.749-59.297-236.912-51.4-369.038l6.963,0.416c-7.839,131.15,9.314,254.354,50.977,366.187
							c41.006,110.078,92.249,174.916,157.126,257.003c50.064,63.35,106.813,135.153,172.977,244.974
							c79.818,132.482,142.862,237.125,167.938,350.044c32.06,144.383,3.775,303.764-84.07,473.711
							C2291.935,2639.073,2206.758,2756.531,2098.112,2873.387z"/>
						<path style="fill:#FFFFFF;" d="M2206.196,1625.748c-24.259,0-104.724-2.855-200.53-36.867
							c-105.672-37.516-252.288-121.674-350.652-309.568l6.18-3.236c97.317,185.89,242.31,269.132,346.806,306.229
							c99.928,35.475,182.741,36.688,201.399,36.45c-39.664-237.414,7.266-421.722,53.795-534.755
							c50.739-123.264,112.073-190.876,112.689-191.545l5.141,4.718c-0.61,0.661-61.249,67.566-111.504,189.791
							c-46.368,112.766-93.125,297.05-52.572,534.595l0.664,3.885l-3.938,0.187
							C2213.524,1625.639,2210.931,1625.748,2206.196,1625.748z"/>
						<path style="fill:#FFFFFF;" d="M2387.489,1926.128l-2.208-1.245c-1.288-0.724-130.431-73.061-274.087-120.232
							c-142.941-46.935-384.571,31.561-386.996,32.36l-2.184-6.626c2.446-0.806,246.267-80.011,391.353-32.363
							c133.937,43.979,255.282,109.719,273.099,119.542c104.456-98.378,147.809-329.551,165.786-506.7
							c19.633-193.475,14.022-365.962,13.964-367.682l6.97-0.239c0.061,1.724,5.689,174.684-13.995,368.626
							c-26.477,260.92-83.62,433.465-169.836,512.842L2387.489,1926.128z"/>
						<path style="fill:#FFFFFF;" d="M2374.526,2477.866l0.443-6.938c4.732-74.223-12.884-140.663-52.354-197.479
							c-31.638-45.542-77.332-85.094-135.81-117.557c-99.816-55.415-203.453-71.062-204.489-71.213l1.008-6.902
							c1.049,0.153,105.948,15.989,206.867,72.014c92.229,51.202,199.692,147.17,192.123,314.55
							c23.734-16.243,117.489-82.837,223.328-190.561c112.567-114.571,262.225-300.441,335.942-535.281l143.145-456.026l6.656,2.088
							l-143.145,456.026c-74.153,236.23-224.602,423.073-337.751,538.215c-122.572,124.727-229.075,194.582-230.134,195.272
							L2374.526,2477.866z"/>
					</g>
				</g>
			</g>
			<g>
				<g>
					<defs>
						<path id="SVGID_00000031927006535393102290000014954282721704434310_" d="M2174.828,2741.772
							c185.221-0.584,421.093-27.753,646.221-132.283c57.453-26.676,412.372-191.469,368.656-353.428
							c-15.399-57.051-67.257-65.569-89.178-141.486c-25.975-89.956,30.206-135.574,68.345-248.385
							c22.757-67.313,89.357-264.306-29.333-371.835c-70.926-64.256-204.81-93.658-306.25-68.914
							c-148.791,36.294-198.624,181.969-278.68,429.911c-70.966,219.791-51.641,273.379-105.506,430.757
							C2409.127,2402.91,2333.27,2563.928,2174.828,2741.772z"/>
					</defs>
					
						<linearGradient id="SVGID_00000019662236424540822120000002514210821852688004_" gradientUnits="userSpaceOnUse" x1="3090.7966" y1="1432.0767" x2="2646.3455" y2="2625.0791">
						<stop  offset="0.0036" style="stop-color:#E38DDD"/>
						<stop  offset="1" style="stop-color:#9571F6"/>
					</linearGradient>
					
						<use xlink:href="#SVGID_00000031927006535393102290000014954282721704434310_"  style="overflow:visible;fill:url(#SVGID_00000019662236424540822120000002514210821852688004_);"/>
					<clipPath id="SVGID_00000027587461741359983800000017752611545118936974_">
						<use xlink:href="#SVGID_00000031927006535393102290000014954282721704434310_"  style="overflow:visible;"/>
					</clipPath>
					<g style="opacity:0.5;clip-path:url(#SVGID_00000027587461741359983800000017752611545118936974_);">
						<path style="fill:#FFFFFF;" d="M1699.021,2846.667c-103.524,0.003-209.464-13.756-317.079-41.27l1.727-6.759
							c203.359,51.988,400.768,54.609,586.738,7.786c247.75-62.378,461.682-213.276,635.862-448.5
							c181.395-244.972,274.24-520.023,320.186-707.625c31.818-129.913,24.01-273.324-23.21-426.248l6.664-2.058
							c47.598,154.147,55.447,298.808,23.325,429.964c-46.099,188.225-139.271,464.213-321.358,710.117
							c-175.164,236.556-390.411,388.333-639.766,451.115C1883.465,2835.508,1792.221,2846.665,1699.021,2846.667z"/>
						<path style="fill:#FFFFFF;" d="M2804.285,2023.896l-2-2.419c-0.525-0.637-53.117-64.853-96.072-163.271
							c-39.684-90.924-79.086-230.543-41.425-379.331l6.766,1.714c-37.177,146.874,1.805,284.9,41.054,374.827
							c37.885,86.805,83.221,146.62,93.101,159.17c390.646-259.522,383.833-551.864,372.397-635.429
							c-0.351-2.553-0.47-3.47-0.47-4.125h6.977h-3.488l3.488-0.037c0.017,0.47,0.177,1.552,0.406,3.216
							c11.6,84.775,18.617,381.753-378.117,643.958L2804.285,2023.896z"/>
						<path style="fill:#FFFFFF;" d="M2752.997,2369.351c-43.551,0-90.611-3.052-141.38-10.002l-1.846-0.252l-0.818-1.678
							c-1.094-2.248-109.126-228.351-88.982-537.447l20.321-311.75l6.963,0.453l-20.321,311.75
							c-19.108,293.176,77.706,511.089,87.507,532.267c132.87,17.961,324.244,19.333,485.226-74.807
							c96.688-56.541,137.02-121.724,137.418-122.376l5.965,3.62c-0.405,0.664-41.422,67.101-139.462,124.546
							C3032.177,2325.519,2917.951,2369.351,2752.997,2369.351z"/>
					</g>
				</g>
			</g>
			<g>
				<g>
					<defs>
						<path id="SVGID_00000016076824997454246540000012326214184242279354_" d="M2283.771,2825.105
							c-0.475-18.818-1.572-129.766,80.112-197.743c68.383-56.908,157.62-52.773,178.29-51.816
							c83.236,3.857,103.856,42.417,155.065,24.86c60.809-20.848,65.046-86.643,113.612-88.204
							c33.504-1.077,66.951,29.095,77.197,60.272c17.986,54.723-31.217,125.586-88.496,153.572
							c-78.916,38.557-130.666-25.037-223.966,13.974c-54.218,22.669-53.16,51.009-109.918,76.3
							C2399.758,2845.687,2331.63,2837.194,2283.771,2825.105z"/>
					</defs>
					
						<linearGradient id="SVGID_00000008869027640383435010000011448343208442053301_" gradientUnits="userSpaceOnUse" x1="2283.6873" y1="2674.2168" x2="2891.8137" y2="2674.2168">
						<stop  offset="0" style="stop-color:#FF9085"/>
						<stop  offset="1" style="stop-color:#FB6FBB"/>
					</linearGradient>
					
						<use xlink:href="#SVGID_00000016076824997454246540000012326214184242279354_"  style="overflow:visible;fill:url(#SVGID_00000008869027640383435010000011448343208442053301_);"/>
					<clipPath id="SVGID_00000072994392668636048110000002470127797614732978_">
						<use xlink:href="#SVGID_00000016076824997454246540000012326214184242279354_"  style="overflow:visible;"/>
					</clipPath>
					<g style="opacity:0.5;clip-path:url(#SVGID_00000072994392668636048110000002470127797614732978_);">
						<path style="fill:#FFFFFF;" d="M2257.66,2866.708l-2.773-2.122c27.969-36.525,58.543-71.804,90.88-104.859
							c64.734-66.173,97.223-99.383,136.778-113.268c51.461-18.062,91.588-3.48,130.397,10.624
							c34.424,12.511,66.938,24.325,105.883,13.768c61.807-16.761,111.5-84.472,147.696-201.252l3.332,1.032
							c-36.571,117.997-87.078,186.493-150.115,203.586c-40.015,10.85-73.029-1.153-107.988-13.855
							c-38.237-13.894-77.764-28.263-128.047-10.612c-38.788,13.616-71.087,46.632-135.436,112.41
							C2316.023,2795.121,2285.541,2830.293,2257.66,2866.708z"/>
						<path style="fill:#FFFFFF;" d="M2795.42,2682.678c-6.687,0-12.72-0.351-18.076-0.899c-29.021-2.976-44.494-12.017-45.138-12.4
							l-0.504-0.302l-0.221-0.547c-25.717-63.94,16.039-156.16,16.464-157.085l3.168,1.458
							c-0.416,0.908-41.299,91.232-16.625,153.751c6.081,3.252,66.924,33.081,167.87-13.381l1.458,3.168
							C2858.873,2677.129,2822.016,2682.677,2795.42,2682.678z"/>
						<path style="fill:#FFFFFF;" d="M2683.232,2781.303c-26.821-76.226-198.895-130.99-200.629-131.535l-1.492-0.467l0.303-1.533
							c5.458-27.792,36.312-47.043,91.701-57.22c40.853-7.507,80.653-7.011,81.048-7.009l-0.054,3.488
							c-1.523-0.029-154.407-1.543-168.947,59.901c8.125,2.649,47.615,15.919,89.333,36.695
							c62.809,31.28,100.5,63.754,112.028,96.521L2683.232,2781.303z"/>
						<path style="fill:#FFFFFF;" d="M2570.979,2810.493c-46.631-108.922-214.825-55.498-216.518-54.945l-1.966,0.642l-0.303-2.046
							c-15.153-103.289,77.723-196.923,78.663-197.856l2.46,2.473c-0.923,0.917-91.364,92.125-77.951,192.864
							c19.353-5.754,173.733-47.813,218.824,57.494L2570.979,2810.493z"/>
					</g>
				</g>
			</g>
		</g>
		<g>
			
				<linearGradient id="SVGID_00000174593608024070116580000000077461432720245167_" gradientUnits="userSpaceOnUse" x1="1602.2317" y1="3076.9961" x2="1407.8547" y2="3158.6343">
				<stop  offset="0" style="stop-color:#40447E"/>
				<stop  offset="0.9964" style="stop-color:#3C3B6B"/>
			</linearGradient>
			<path style="fill:url(#SVGID_00000174593608024070116580000000077461432720245167_);" d="M3200.385,2970.428L433.616,2946.11
				v71.954c0,19.53,12.068,36.136,28.411,39.095l782.359,141.69c9.285,1.681,18.7,2.127,28.069,1.33l1897.862-161.55
				c16.943-1.442,30.066-18.1,30.066-38.165V2970.428z"/>
			<g>
				
					<linearGradient id="SVGID_00000127019104122380500300000004200945400892684988_" gradientUnits="userSpaceOnUse" x1="1285.9686" y1="2212.8752" x2="1084.4319" y2="2297.5208">
					<stop  offset="0" style="stop-color:#40447E"/>
					<stop  offset="0.9964" style="stop-color:#3C3B6B"/>
				</linearGradient>
				<path style="fill:url(#SVGID_00000127019104122380500300000004200945400892684988_);" d="M2196.335,2853.788L462.226,2985.418
					c-31.031,2.355-56.261-22.673-56.261-55.909V1597.947c0-33.236,25.23-60.179,56.261-60.179h1734.109
					c25.564,0,46.234,24.356,46.234,54.401v1203.708C2242.569,2825.921,2221.899,2851.847,2196.335,2853.788z"/>
				
					<linearGradient id="SVGID_00000168106295977853121680000008530360630653257350_" gradientUnits="userSpaceOnUse" x1="433.6156" y1="2261.6694" x2="2270.2197" y2="2261.6694">
					<stop  offset="0" style="stop-color:#40447E"/>
					<stop  offset="0.9964" style="stop-color:#3C3B6B"/>
				</linearGradient>
				<path style="fill:url(#SVGID_00000168106295977853121680000008530360630653257350_);" d="M2223.985,2853.788L489.877,2985.418
					c-31.031,2.355-56.261-22.673-56.261-55.909V1597.947c0-33.236,25.23-60.179,56.261-60.179h1734.108
					c25.565,0,46.235,24.356,46.235,54.401v1203.708C2270.22,2825.921,2249.55,2851.847,2223.985,2853.788z"/>
				
					<linearGradient id="SVGID_00000068654968963026818910000008440429338019243697_" gradientUnits="userSpaceOnUse" x1="551.588" y1="2853.7578" x2="2415.9568" y2="1335.5765">
					<stop  offset="0" style="stop-color:#FFC444"/>
					<stop  offset="0.9964" style="stop-color:#F36F56"/>
				</linearGradient>
				<path style="fill:url(#SVGID_00000068654968963026818910000008440429338019243697_);" d="M2169.963,2768.924L554.822,2883.263
					c-25.252,1.787-45.773-18.755-45.773-45.888V1671.59c0-27.132,20.521-49.22,45.773-49.332l1615.141-7.179
					c21.089-0.094,38.147,19.864,38.147,44.577v1061.821C2208.11,2746.189,2191.052,2767.431,2169.963,2768.924z"/>
				<path style="fill:#FFFFFF;" d="M1418.175,1574.189c0,12.372-8.925,22.431-19.947,22.467
					c-11.036,0.036-19.991-9.987-19.991-22.387c0-12.401,8.955-22.46,19.991-22.468
					C1409.25,1551.792,1418.175,1561.815,1418.175,1574.189z"/>
				<path style="opacity:0.48;fill:#FFFFFF;" d="M1806.179,2488.586c-133.684-77.26-238.8,20.637-340.243-75.953
					c-61.502-58.56-31.307-102.228-106.984-189.739c-83.818-96.925-138.388-64.344-222.623-151.577
					c-106.51-110.301-53.24-196.117-144.985-275.31c-111.3-96.072-231.33-7.151-337.28-99.287
					c-45.697-39.739-70.77-97.511-83.863-158.953H466.534c-18.166,0-32.918,15.814-32.918,35.323v1380.28
					c0,19.509,14.752,34.199,32.918,32.814l1767.341-134.748c8.673-0.661,16.364-6.101,21.299-13.986
					c-129.374-5.065-208.855-51.649-259.662-99.808C1896.12,2643.433,1913.36,2550.527,1806.179,2488.586z"/>
			</g>
			
				<linearGradient id="SVGID_00000060735695636095078730000007578272753694741133_" gradientUnits="userSpaceOnUse" x1="433.6156" y1="2991.1763" x2="3200.3845" y2="2991.1763">
				<stop  offset="0" style="stop-color:#40447E"/>
				<stop  offset="0.9964" style="stop-color:#3C3B6B"/>
			</linearGradient>
			<path style="fill:url(#SVGID_00000060735695636095078730000007578272753694741133_);" d="M2293.102,2847.818L433.616,2986.372
				l810.771,146.834c9.285,1.681,18.7,2.128,28.069,1.33l1927.929-164.108l-877.703-121.669
				C2312.865,2847.398,2302.966,2847.083,2293.102,2847.818z"/>
			
				<linearGradient id="SVGID_00000171715709543719240570000001161756013276326071_" gradientUnits="userSpaceOnUse" x1="704.9438" y1="2968.2983" x2="2732.1379" y2="2968.2983">
				<stop  offset="0" style="stop-color:#40447E"/>
				<stop  offset="0.9964" style="stop-color:#3C3B6B"/>
			</linearGradient>
			<polygon style="opacity:0.3;fill:url(#SVGID_00000171715709543719240570000001161756013276326071_);" points="704.944,2989.856 
				2253.021,2872.787 2732.138,2938.668 1197.396,3063.81 			"/>
			<g style="opacity:0.75;">
				<polygon style="fill:#FFFFFF;" points="838.576,1713.799 660.722,1714.42 660.722,1656.864 838.576,1656.864 				"/>
				<polygon style="fill:#FFFFFF;" points="1770.452,1710.545 951.547,1713.404 951.547,1656.864 1770.452,1656.864 				"/>
				<polygon style="fill:#FFFFFF;" points="1123.214,1808.362 951.547,1809.985 951.547,1753.444 1123.214,1752.421 				"/>
				<polygon style="fill:#FFFFFF;" points="2023.741,1799.848 1232.289,1807.331 1232.289,1751.77 2023.741,1747.05 				"/>
				<polygon style="fill:#FFFFFF;" points="1123.214,1903.92 951.547,1906.567 951.547,1850.026 1123.214,1847.978 				"/>
				<polygon style="fill:#FFFFFF;" points="2023.741,1890.034 1232.289,1902.238 1232.289,1846.677 2023.741,1837.237 				"/>
				<polygon style="fill:#FFFFFF;" points="838.576,2005.563 660.722,2009.366 660.722,1951.81 838.576,1948.628 				"/>
				<polygon style="fill:#FFFFFF;" points="1770.452,1985.637 951.547,2003.148 951.547,1946.607 1770.452,1931.955 				"/>
				<polygon style="fill:#FFFFFF;" points="1123.214,2095.034 951.547,2099.728 951.547,2043.188 1123.214,2039.093 				"/>
				<polygon style="fill:#FFFFFF;" points="2023.741,2070.408 1232.289,2092.051 1232.289,2036.491 2023.741,2017.61 				"/>
				<polygon style="fill:#FFFFFF;" points="1123.214,2190.591 951.547,2196.309 951.547,2139.768 1123.214,2134.649 				"/>
				<polygon style="fill:#FFFFFF;" points="2023.741,2160.594 1232.289,2186.958 1232.289,2131.397 2023.741,2107.797 				"/>
				<polygon style="fill:#FFFFFF;" points="1123.214,2286.148 951.547,2292.89 951.547,2236.35 1123.214,2230.207 				"/>
				<polygon style="fill:#FFFFFF;" points="2023.741,2250.781 1232.289,2281.865 1232.289,2226.304 2023.741,2197.983 				"/>
				<polygon style="fill:#FFFFFF;" points="1400.656,2369.155 1234.913,2376.653 1234.913,2321.101 1400.656,2314.182 				"/>
				<polygon style="fill:#FFFFFF;" points="2144.597,2335.5 1505.999,2364.389 1505.999,2309.784 2144.597,2283.125 				"/>
				<polygon style="fill:#FFFFFF;" points="838.576,2491.837 660.722,2500.943 660.722,2443.387 838.576,2434.902 				"/>
				<polygon style="fill:#FFFFFF;" points="1770.452,2444.123 951.547,2486.052 951.547,2429.512 1770.452,2390.441 				"/>
				<polygon style="fill:#FFFFFF;" points="1123.214,2572.82 951.547,2582.633 951.547,2526.092 1123.214,2516.878 				"/>
				<polygon style="fill:#FFFFFF;" points="2023.741,2521.341 1232.289,2566.585 1232.289,2511.024 2023.741,2468.543 				"/>
				<polygon style="fill:#FFFFFF;" points="1123.214,2668.377 951.547,2679.214 951.547,2622.673 1123.214,2612.436 				"/>
				<polygon style="fill:#FFFFFF;" points="2023.741,2611.528 1232.289,2661.491 1232.289,2605.931 2023.741,2558.73 				"/>
				<polygon style="fill:#FFFFFF;" points="838.576,2783.601 660.722,2795.889 660.722,2738.333 838.576,2726.666 				"/>
				<polygon style="fill:#FFFFFF;" points="1770.452,2719.215 951.547,2775.795 951.547,2719.254 1770.452,2665.533 				"/>
			</g>
		</g>
		<g>
			
				<linearGradient id="SVGID_00000095326345101863553250000016430081349586916252_" gradientUnits="userSpaceOnUse" x1="1368.76" y1="629.7227" x2="341.4189" y2="4157.8315">
				<stop  offset="0" style="stop-color:#FF9085"/>
				<stop  offset="1" style="stop-color:#FB6FBB"/>
			</linearGradient>
			<polygon style="fill:url(#SVGID_00000095326345101863553250000016430081349586916252_);" points="1233.255,1412.883 
				869.988,1421.338 684.873,1743.059 869.988,2052.135 1233.255,2035.772 1411.495,1718.239 			"/>
			
				<linearGradient id="SVGID_00000114787245747127474530000009746093310095148422_" gradientUnits="userSpaceOnUse" x1="1368.76" y1="629.7227" x2="341.4189" y2="4157.8315">
				<stop  offset="0" style="stop-color:#FF9085"/>
				<stop  offset="1" style="stop-color:#FB6FBB"/>
			</linearGradient>
			<polygon style="opacity:0.3;fill:url(#SVGID_00000114787245747127474530000009746093310095148422_);" points="1233.255,1412.883 
				869.988,1421.338 684.873,1743.059 869.988,2052.135 1233.255,2035.772 1411.495,1718.239 			"/>
			<polygon style="opacity:0.47;fill:#FFFFFF;" points="889.468,2017.856 724.304,1741.713 889.468,1454.285 1214.235,1446.352 
				1373.904,1719.524 1214.235,2003.602 			"/>
			
				<linearGradient id="SVGID_00000070813289395380180360000008939244802711665284_" gradientUnits="userSpaceOnUse" x1="2401.4375" y1="948.2035" x2="1420.8143" y2="4315.8726">
				<stop  offset="0.0036" style="stop-color:#E38DDD"/>
				<stop  offset="1" style="stop-color:#9571F6"/>
			</linearGradient>
			<polygon style="fill:url(#SVGID_00000070813289395380180360000008939244802711665284_);" points="2355.534,1386.763 
				2020.37,1394.564 1849.705,1703.27 2020.37,2000.318 2355.534,1985.221 2520.106,1680.37 			"/>
			<polygon style="opacity:0.47;fill:#FFFFFF;" points="2038.333,1967.433 1886.052,1702.029 2038.333,1426.221 2337.978,1418.901 
				2485.392,1681.557 2337.978,1954.282 			"/>
			
				<linearGradient id="SVGID_00000137099043325133520980000018072355763794183321_" gradientUnits="userSpaceOnUse" x1="1177.9664" y1="592.0295" x2="162.6778" y2="4078.7473">
				<stop  offset="0.0036" style="stop-color:#E38DDD"/>
				<stop  offset="1" style="stop-color:#9571F6"/>
			</linearGradient>
			<polygon style="fill:url(#SVGID_00000137099043325133520980000018072355763794183321_);" points="1233.255,724.417 
				869.988,724.131 684.873,1041.399 869.988,1354.928 1233.255,1347.306 1411.495,1034.062 			"/>
			
				<linearGradient id="SVGID_00000163074622624141418580000001158632463108365971_" gradientUnits="userSpaceOnUse" x1="1177.9664" y1="592.0295" x2="162.6778" y2="4078.7473">
				<stop  offset="0.0036" style="stop-color:#E38DDD"/>
				<stop  offset="1" style="stop-color:#9571F6"/>
			</linearGradient>
			<polygon style="opacity:0.3;fill:url(#SVGID_00000163074622624141418580000001158632463108365971_);" points="1233.255,724.417 
				869.988,724.131 684.873,1041.399 869.988,1354.928 1233.255,1347.306 1411.495,1034.062 			"/>
			<polygon style="opacity:0.47;fill:#FFFFFF;" points="889.468,1321.119 724.304,1041 889.468,757.546 1214.235,757.427 
				1373.904,1034.441 1214.235,1314.679 			"/>
			
				<linearGradient id="SVGID_00000152249822084608079940000001472428706932291717_" gradientUnits="userSpaceOnUse" x1="3315.7466" y1="3331.0115" x2="2484.1648" y2="885.1779">
				<stop  offset="0.0036" style="stop-color:#F36F56"/>
				<stop  offset="1" style="stop-color:#FFC444"/>
			</linearGradient>
			<polygon style="fill:url(#SVGID_00000152249822084608079940000001472428706932291717_);" points="3055.86,725.85 
				2020.37,725.036 1849.705,1029.636 2020.37,1330.79 3055.86,1309.063 3212.178,1015.878 			"/>
			
				<linearGradient id="SVGID_00000152237216321775019700000011507599622468618420_" gradientUnits="userSpaceOnUse" x1="2427.8733" y1="709.6736" x2="432.3808" y2="4092.7554">
				<stop  offset="0" style="stop-color:#FF9085"/>
				<stop  offset="1" style="stop-color:#FB6FBB"/>
			</linearGradient>
			<polygon style="fill:url(#SVGID_00000152237216321775019700000011507599622468618420_);" points="1811.461,1738.937 
				1462.816,1751.273 1285.221,2068.436 1462.816,2369.165 1811.461,2349.239 1982.591,2036.17 			"/>
			
				<linearGradient id="SVGID_00000076586309425820868090000004573756874646181777_" gradientUnits="userSpaceOnUse" x1="2427.8733" y1="709.6736" x2="432.3808" y2="4092.7554">
				<stop  offset="0" style="stop-color:#FF9085"/>
				<stop  offset="1" style="stop-color:#FB6FBB"/>
			</linearGradient>
			<polygon style="opacity:0.3;fill:url(#SVGID_00000076586309425820868090000004573756874646181777_);" points="1811.461,1738.937 
				1462.816,1751.273 1285.221,2068.436 1462.816,2369.165 1811.461,2349.239 1982.591,2036.17 			"/>
			<polygon style="opacity:0.47;fill:#FFFFFF;" points="1481.506,2335.378 1323.045,2066.687 1481.506,1783.329 1793.204,1771.941 
				1946.495,2037.84 1793.204,2317.924 			"/>
			
				<linearGradient id="SVGID_00000089555562409065445200000007352881488484592513_" gradientUnits="userSpaceOnUse" x1="1644.9125" y1="3331.6724" x2="1631.8296" y2="1277.4481">
				<stop  offset="0.0036" style="stop-color:#F36F56"/>
				<stop  offset="1" style="stop-color:#FFC444"/>
			</linearGradient>
			<polygon style="fill:url(#SVGID_00000089555562409065445200000007352881488484592513_);" points="1810,1062.165 
				1461.319,1066.086 1283.706,1378.978 1461.319,1684.01 1810,1672.499 1981.148,1363.545 			"/>
			<polygon style="opacity:0.47;fill:#FFFFFF;" points="1480.012,1650.673 1321.534,1378.14 1480.012,1098.595 1791.742,1094.731 
				1945.049,1364.343 1791.742,1640.742 			"/>
			
				<linearGradient id="SVGID_00000041255846356106610400000008461113689876002703_" gradientUnits="userSpaceOnUse" x1="1816.7809" y1="378.6845" x2="-138.783" y2="3694.0728">
				<stop  offset="0" style="stop-color:#FF9085"/>
				<stop  offset="1" style="stop-color:#FB6FBB"/>
			</linearGradient>
			<polygon style="fill:url(#SVGID_00000041255846356106610400000008461113689876002703_);" points="1808.54,385.323 
				1459.822,380.826 1282.19,689.447 1459.822,998.782 1808.54,995.689 1979.706,690.85 			"/>
			<polygon style="opacity:0.47;fill:#FFFFFF;" points="1478.517,965.896 1320.023,689.523 1478.517,413.787 1790.277,417.448 
				1943.603,690.777 1790.277,963.489 			"/>
			<polygon style="opacity:0.73;fill:#FFFFFF;" points="2180.65,872.565 2062.083,873.103 2062.083,828.852 2180.65,828.502 			"/>
			<polygon style="opacity:0.73;fill:#FFFFFF;" points="2828.36,869.623 2256.779,872.219 2256.779,828.278 2828.36,826.592 			"/>
			<polygon style="opacity:0.73;fill:#FFFFFF;" points="2373.694,946.429 2256.779,947.278 2256.779,903.337 2373.694,902.674 			
				"/>
			<polygon style="opacity:0.73;fill:#FFFFFF;" points="3012.5,941.79 2448.765,945.884 2448.765,902.248 3012.5,899.052 			"/>
			<polygon style="opacity:0.73;fill:#FFFFFF;" points="2373.694,1021.17 2256.779,1022.337 2256.779,978.396 2373.694,977.415 			
				"/>
			<polygon style="opacity:0.73;fill:#FFFFFF;" points="3012.5,1014.793 2448.765,1020.421 2448.765,976.785 3012.5,972.055 			"/>
			<polygon style="opacity:0.73;fill:#FFFFFF;" points="2180.65,1098.363 2062.083,1099.87 2062.083,1055.618 2180.65,1054.301 			
				"/>
			<polygon style="opacity:0.73;fill:#FFFFFF;" points="2828.36,1090.136 2256.779,1097.396 2256.779,1053.455 2828.36,1047.104 			
				"/>
			<polygon style="opacity:0.73;fill:#FFFFFF;" points="2373.694,1170.652 2256.779,1172.455 2256.779,1128.514 2373.694,1126.897 
							"/>
			<polygon style="opacity:0.73;fill:#FFFFFF;" points="3012.5,1160.799 2448.765,1169.494 2448.765,1125.859 3012.5,1118.062 			
				"/>
			<polygon style="opacity:0.73;fill:#FFFFFF;" points="2373.694,1245.393 2256.779,1247.514 2256.779,1203.573 2373.694,1201.638 
							"/>
			<polygon style="opacity:0.73;fill:#FFFFFF;" points="3012.5,1233.802 2448.765,1244.031 2448.765,1200.395 3012.5,1191.065 			
				"/>
			<g>
				
					<linearGradient id="SVGID_00000172403238203964072470000017027333668017437604_" gradientUnits="userSpaceOnUse" x1="2355.9265" y1="946.8155" x2="1385.3055" y2="4280.1343">
					<stop  offset="0.0036" style="stop-color:#E38DDD"/>
					<stop  offset="1" style="stop-color:#9571F6"/>
				</linearGradient>
				<path style="opacity:0.3;fill:url(#SVGID_00000172403238203964072470000017027333668017437604_);" d="M1922.783,1571.084
					l-73.078,132.186l170.666,297.048l318.923-14.365c-4.437-13.406-9.321-26.803-14.786-40.163
					C2239.307,1737.589,2077.283,1667.437,1922.783,1571.084z"/>
			</g>
			<g style="opacity:0.3;">
				
					<linearGradient id="SVGID_00000153679037790712855530000005469276349997558406_" gradientUnits="userSpaceOnUse" x1="1594.2905" y1="3329.0242" x2="1581.2311" y2="1278.5004">
					<stop  offset="0.0036" style="stop-color:#F36F56"/>
					<stop  offset="1" style="stop-color:#FFC444"/>
				</linearGradient>
				<path style="fill:url(#SVGID_00000153679037790712855530000005469276349997558406_);" d="M1636.166,1268.082
					c-34.332-73.968-49.42-140.753-55.116-203.343l-119.73,1.346l-177.614,312.893l177.614,305.031L1810,1672.499l71.088-128.326
					C1786.615,1480.687,1698.103,1401.52,1636.166,1268.082z"/>
			</g>
			<g style="opacity:0.3;">
				
					<linearGradient id="SVGID_00000121971874011994406630000002738120809035766919_" gradientUnits="userSpaceOnUse" x1="1736.347" y1="321.2394" x2="-242.7659" y2="3676.552">
					<stop  offset="0" style="stop-color:#FF9085"/>
					<stop  offset="1" style="stop-color:#FB6FBB"/>
				</linearGradient>
				<path style="fill:url(#SVGID_00000121971874011994406630000002738120809035766919_);" d="M1515.661,530.187
					c-23.149-39.497-50.171-75.091-80.087-107.233l-153.384,266.492l177.631,309.336l118.276-1.049
					C1577.701,839.728,1617.501,703.941,1515.661,530.187z"/>
			</g>
		</g>
		<g>
			<g>
				
					<linearGradient id="SVGID_00000022529465387324499610000006867211803376665785_" gradientUnits="userSpaceOnUse" x1="1761.3754" y1="1291.6536" x2="1719.8944" y2="1358.7551">
					<stop  offset="0" style="stop-color:#FFC444"/>
					<stop  offset="0.9964" style="stop-color:#F36F56"/>
				</linearGradient>
				<path style="fill:url(#SVGID_00000022529465387324499610000006867211803376665785_);" d="M1759.201,1360.128
					c4.212-6.526,11.896-20.416,12.387-39.068c0.956-36.244-25.927-64.513-29.539-62.89c-1.947,0.875,0.523,11.494,1.906,16.2
					c2.88,9.799,5.977,10.745,5.717,15.246c-0.533,9.265-13.908,9.622-20.963,21.917c-5.08,8.854-5.485,21.465,0,31.445
					C1737.811,1359.534,1758.334,1360.118,1759.201,1360.128z"/>
				
					<linearGradient id="SVGID_00000149368366149571057010000005549153619931303827_" gradientUnits="userSpaceOnUse" x1="2352.2229" y1="2085.8511" x2="2368.9734" y2="2120.2961">
					<stop  offset="0" style="stop-color:#FFC444"/>
					<stop  offset="0.9964" style="stop-color:#F36F56"/>
				</linearGradient>
				<polygon style="fill:url(#SVGID_00000149368366149571057010000005549153619931303827_);" points="2333.42,2147.345 
					2323.088,2111.791 2366.224,2079.826 2393.111,2069.773 2377.192,2119.52 				"/>
				
					<linearGradient id="SVGID_00000045614123691674097700000010241536766782567316_" gradientUnits="userSpaceOnUse" x1="1060.0146" y1="2963.0095" x2="1060.0146" y2="2854.9497" gradientTransform="matrix(1 0 0 1 1249.563 0)">
					<stop  offset="0" style="stop-color:#FFC444"/>
					<stop  offset="0.9964" style="stop-color:#F36F56"/>
				</linearGradient>
				<path style="fill:url(#SVGID_00000045614123691674097700000010241536766782567316_);" d="M2280.024,2863.423
					c0,0,23.594,59.355,17.385,85.679c25.331-0.497,41.722-3.724,41.722-3.724s-10.181-27.071-12.168-40.481
					c-2.685-18.119-2.483-47.435-2.483-47.435L2280.024,2863.423z"/>
				<path style="fill:#26264F;" d="M2019.943,3002.249c1.526,1.842,4.233,5.69,4.46,10.904c0.124,2.833-0.524,5.163-1.338,7.305
					c-4.023,10.586-10.341,11.983-17.16,23.215c-4.165,6.864-3.379,8.933-7.196,12.031c-5.031,4.084-11.116,4.317-16.39,4.378
					c-8.913,0.103-21.747-0.216-37.904-2.142c8.468-10.913,17.472-22,27.049-33.193c4.2-4.908,8.393-9.702,12.574-14.382
					l24.895-8.412C2012.603,3002.052,2016.274,3002.151,2019.943,3002.249z"/>
				
					<linearGradient id="SVGID_00000094606062798863241340000010991914367727383228_" gradientUnits="userSpaceOnUse" x1="730.6473" y1="2993.8054" x2="730.6473" y2="2863.5754" gradientTransform="matrix(1 0 0 1 1249.563 0)">
					<stop  offset="0" style="stop-color:#FFC444"/>
					<stop  offset="0.9964" style="stop-color:#F36F56"/>
				</linearGradient>
				<path style="fill:url(#SVGID_00000094606062798863241340000010991914367727383228_);" d="M1999.24,2881.377
					c0,0-14.231,74.252,3.877,95.044c15.425,20.791-7.451,5.96-7.451,5.96l-27.319,23.842l-16.39,28.312
					c0,0,15.088-72.674,11.063-101.514c-4.024-28.839-6.036-48.29-6.036-48.29L1999.24,2881.377z"/>
				
					<linearGradient id="SVGID_00000162310957792223360550000013712656703129354624_" gradientUnits="userSpaceOnUse" x1="657.792" y1="2482.2429" x2="1083.8569" y2="2482.2429" gradientTransform="matrix(1 0 0 1 1249.563 0)">
					<stop  offset="0" style="stop-color:#311944"/>
					<stop  offset="1" style="stop-color:#893976"/>
				</linearGradient>
				<path style="fill:url(#SVGID_00000162310957792223360550000013712656703129354624_);" d="M1945.585,2069.173
					c0,0-38.23,34.205-38.23,175.05c0,140.844,18.109,446.679,18.109,446.679l28.977,218.961c0,0,30.046,1.069,50.167-4.966
					c18.108-82.495,47.617-222.043,33.531-338.744c-6.035-126.76,50.302-285.713,50.302-285.713s48.29,160.966,82.495,241.449
					c34.205,80.481,99.328,332.614,105.363,350.724c40.025,3.627,57.12-6.956,57.12-6.956s-25.664-271.335-49.807-373.95
					c-24.145-102.615-22.134-350.099-62.375-420.522C2130.695,2034.967,1945.585,2069.173,1945.585,2069.173z"/>
				
					<linearGradient id="SVGID_00000028296714734304838030000009046113524559570593_" gradientUnits="userSpaceOnUse" x1="644.251" y1="2164.6348" x2="951.2072" y2="2680.2029" gradientTransform="matrix(1 0 0 1 1249.563 0)">
					<stop  offset="0" style="stop-color:#311944"/>
					<stop  offset="1" style="stop-color:#893976"/>
				</linearGradient>
				<path style="fill:url(#SVGID_00000028296714734304838030000009046113524559570593_);" d="M1945.586,2069.173
					c0,0-38.232,34.205-38.232,175.05c0,140.844,18.11,446.679,18.11,446.679l28.977,218.961c0,0,30.046,1.069,50.167-4.966
					c18.109-82.495,47.617-222.043,33.533-338.744c-6.036-126.76,50.301-285.713,50.301-285.713s48.29,160.966,82.495,241.449
					c34.205,80.481,99.328,332.615,105.364,350.724c40.024,3.627,57.12-6.956,57.12-6.956s-25.665-271.335-49.807-373.95
					c-24.146-102.615-22.134-350.099-62.374-420.523C2130.696,2034.967,1945.586,2069.173,1945.586,2069.173z"/>
				
					<linearGradient id="SVGID_00000059310361009869236400000017048950341131735459_" gradientUnits="userSpaceOnUse" x1="765.0915" y1="2092.6895" x2="1072.0476" y2="2608.2573" gradientTransform="matrix(1 0 0 1 1249.563 0)">
					<stop  offset="0" style="stop-color:#311944"/>
					<stop  offset="1" style="stop-color:#893976"/>
				</linearGradient>
				<path style="opacity:0.25;fill:url(#SVGID_00000059310361009869236400000017048950341131735459_);" d="M2144.179,2327.241
					c11.92,77.484,35.761,119.208,95.365,172.85c47.682,35.761,11.921,113.246,29.802,172.849
					c5.96,17.881,23.841,35.761,29.802,53.643c22.179,44.36,1.464,98.62,11.521,145.588c15.65-2.161,22.751-6.515,22.751-6.515
					s-25.665-271.335-49.807-373.95c-24.146-102.615-22.134-350.1-62.374-420.523c-90.542-36.217-275.652-2.011-275.652-2.011
					s-38.232,34.205-38.232,175.05c0,11.428,0.122,23.955,0.341,37.304c39.688,35.124,120.859,42.929,170.92,3.994
					c3.024-2.269,6.242-3.659,9.566-4.335c0.154-0.445,0.26-0.746,0.26-0.746s0.083,0.278,0.21,0.697
					C2111.435,2276.98,2139.01,2306.565,2144.179,2327.241z"/>
				<g>
					<path style="fill:#26264F;" d="M2291.202,2971.626c0,0-5.88,0-5.391,7.596c0.491,7.594-2.647,33.723,27.243,34.947
						c29.891,1.225,34.5-2.116,35.481-2.116c0.98,0-7.841-24.993-7.841-24.993l-9.556-12.249l-25.727-2.695L2291.202,2971.626z"/>
					<path style="fill:#444B8C;" d="M2357.48,2997.852c-0.638-6.309-4.168-16.241-7.72-24.233
						c-5.277-11.873-0.944-16.316-5.989-27.13c-1.744-3.739-3.439-7.285-7.123-10.799c-0.848-0.808-9.096-8.43-21.107-8.043
						c-2.364,0.077-6.003,0.236-9.938,2.332c-4.635,2.47-6.957,6.18-8.94,9.437c-3.117,5.119-2.401,6.689-7.201,21.358
						c-0.387,1.177-1.232,3.736-1.881,7.268c-0.498,2.703-0.698,4.972-0.788,6.523c7.841,0,37.977,1.225,44.346,5.881
						c6.371,4.655,9.556,12.496,9.556,20.337c0,7.84,3.92,11.514,7.841,11.27C2352.038,3011.834,2358.996,3005.348,2357.48,2997.852
						z"/>
				</g>
				<path style="fill:#444B8C;" d="M1995.419,2965.99c6.733,0.106,11.673,5.464,15.397,18.377
					c3.726,12.915,21.607,24.339,0.747,21.607c-20.862-2.732-36.012,26.82-43.461,37.75c-7.451,10.927-27.451,20.635-26.954,9.957
					c0.496-10.679,9.321-15.669,11.804-26.596C1955.435,3016.156,1980.061,2965.75,1995.419,2965.99z"/>
				<path style="fill:#FFFFFF;" d="M2349.251,2086.173c4.951-13.763,35.846-104.172-14.089-186.623
					c-40.88-67.497-111.616-89.518-121.702-92.497c-61.397-18.131-92.169,5.162-111.542-16.276
					c-32.873-36.38,4.365-160.299,76.393-185.12c81.192-27.979,178.592,79.606,218.063,150.27
					c51.781,92.708,39.036,184.848,36.04,203.825c-7.786,49.313-25.888,86.927-39.303,110.021
					C2378.491,2075.239,2363.871,2080.706,2349.251,2086.173z"/>
				<path style="fill:#FFFFFF;" d="M2137.226,1588.163c-72.474-2.899-128.364-1.75-159.936,29.801
					c-33.347,33.325,0.352,70.947-6.888,158.118c-11.085,133.457-96.128,166.064-102.527,301.458
					c-2.157,45.62,5.563,82.907,11.558,105.362c18.664,23.244,49.213,56.046,94.296,83.474
					c65.605,39.915,103.649,32.955,197.867,58.741c154.113,42.178,167.824,92.407,244.242,79.61
					c77.232-12.933,144.991-77.928,136.806-113.618c-4.903-21.375-36.036-15.32-71.881-47.921
					c-46.199-42.016-28.382-82.123-63.506-127.273c-50.451-64.853-120.739-25.208-163.732-81.414
					c-43.489-56.857-26.24-168.896,10.42-229.966c23.944-39.889,34.198-86.633,54.573-128.457c1.693-3.474,3.658-9.173,2.793-16.296
					c-3.307-27.239-48.712-42.014-83.102-52.853C2185.758,1590.396,2143.187,1588.399,2137.226,1588.163z"/>
				
					<linearGradient id="SVGID_00000015333045916577100230000016605595137012215730_" gradientUnits="userSpaceOnUse" x1="844.0059" y1="1526.1309" x2="906.925" y2="1626.1365" gradientTransform="matrix(1 0 0 1 1249.563 0)">
					<stop  offset="0.0036" style="stop-color:#E38DDD"/>
					<stop  offset="1" style="stop-color:#9571F6"/>
				</linearGradient>
				<path style="fill:url(#SVGID_00000015333045916577100230000016605595137012215730_);" d="M2076.181,1585.165l14.294-4.398
					c0,0,3.738,19.352,49.697,21.77c25.508,0,42-14.293,42-14.293l9.766,7.12c0,0-21.427,26.766-55.505,26.085
					C2092.454,1620.57,2076.181,1585.165,2076.181,1585.165z"/>
				<g>
					
						<linearGradient id="SVGID_00000088821611315197210090000011382924850333450907_" gradientUnits="userSpaceOnUse" x1="919.9653" y1="1510.7892" x2="850.8175" y2="1622.646" gradientTransform="matrix(1 0 0 1 1249.563 0)">
						<stop  offset="0" style="stop-color:#FFC444"/>
						<stop  offset="0.9964" style="stop-color:#F36F56"/>
					</linearGradient>
					<path style="fill:url(#SVGID_00000088821611315197210090000011382924850333450907_);" d="M2105.286,1526.3
						c2.754-21.255,19.556-34.871,23.222-37.787c15.351-12.201,18.475-13.429,23.747-14.431l7.2-1.091c0,0,0.388,0.009,0.786,0.034
						c4.215,0.255,16.847,5.186,19.145,6.8c7.337,5.16,1.935,41.701-20.308,87.148c-0.875,3.848-1.749,7.697-2.625,11.545
						c19.387,3.407,24.188,6.905,24.341,9.698c0.331,6.049-20.895,13.767-40.568,14.269c-24.67,0.629-50.865-9.985-50.363-17.906
						c0.203-3.206,4.856-7.162,22.769-11.045c2.8-3.936,5.598-7.872,8.397-11.807
						C2118.49,1558.643,2103.258,1541.957,2105.286,1526.3z"/>
					
						<linearGradient id="SVGID_00000029750096772692193390000000788784633615804074_" gradientUnits="userSpaceOnUse" x1="390.8312" y1="975.0363" x2="323.9162" y2="1083.2813" gradientTransform="matrix(0.9717 -0.2361 0.2361 0.9717 1534.775 640.4756)">
						<stop  offset="0" style="stop-color:#FFC444"/>
						<stop  offset="0.9964" style="stop-color:#F36F56"/>
					</linearGradient>
					<path style="fill:url(#SVGID_00000029750096772692193390000000788784633615804074_);" d="M2135.782,1518.297
						c5.595-3.349,9.858,3.85,7.222,10.141c-2.635,6.291-11.492,10.228-16.865,6.476
						C2120.768,1531.164,2128.253,1522.803,2135.782,1518.297z"/>
					
						<linearGradient id="SVGID_00000149379745010058138100000015609293230808177542_" gradientUnits="userSpaceOnUse" x1="2124.4971" y1="1033.0211" x2="2704.0083" y2="1954.1139">
						<stop  offset="0" style="stop-color:#444B8C"/>
						<stop  offset="0.9964" style="stop-color:#26264F"/>
					</linearGradient>
					<path style="fill:url(#SVGID_00000149379745010058138100000015609293230808177542_);" d="M2861.037,1518.191
						c-73.653-79.926-245.028-58.007-340.083,6.183c-44.169,29.828-66.839,65.06-119.029,68.017
						c-39.676,2.248-102.792-12.67-136.033-55.65c-4.188-5.415-20.937-28.124-46.089-56.762
						c-11.088-12.625-22.116-24.473-39.208-27.152c-4.342-0.68-18.788-3.031-28.338,6.298c-7.74,7.559-9.637,20.703-7.349,30.176
						c1.37,5.665,3.14,6.262,2.887,9.971c-0.709,10.419-19.687,14.957-18.63,20.205c0.754,3.749,10.631,2.377,12.333,7.084
						c1.864,5.158-8.984,9.596-13.645,22.567c-8.732,5.845-14.249,20.392-16.157,39.855c-2.806,28.612,0.069,51.861,5.49,69.37
						c26.103,84.304,44.776,144.605,89.964,178.279c59.826,44.582,113.698,3.419,265.884-3.091
						c208.387-8.914,260.345,61.721,335.241,13.399C2901.794,1786.603,2937.51,1601.172,2861.037,1518.191z"/>
				</g>
				<path style="fill:#FFFFFF;" d="M1768.006,1355.052c-1.858,17.436-8.143,94.568,45.06,159.695
					c49.714,60.853,120.118,73.009,133.204,74.986c63.302,9.565,90.601-17.716,112.721,0.873
					c37.538,31.544,17.593,159.39-50.365,193.826c-76.603,38.818-187.8-54.439-236.559-119.044
					c-63.973-84.756-63.945-177.774-63.572-196.982c0.969-49.915,13.759-89.651,23.889-114.362
					c4.161-1.253,10.495-2.639,18.261-2.369C1758.046,1351.934,1764.018,1353.599,1768.006,1355.052z"/>
				
					<linearGradient id="SVGID_00000181078585311128519730000005493433403808653720_" gradientUnits="userSpaceOnUse" x1="1902.6323" y1="1633.9656" x2="2231.8699" y2="2310.9897">
					<stop  offset="0" style="stop-color:#FF9085"/>
					<stop  offset="1" style="stop-color:#FB6FBB"/>
				</linearGradient>
				<path style="opacity:0.25;fill:url(#SVGID_00000181078585311128519730000005493433403808653720_);" d="M2418.156,2353.713
					c-18.531-18.999,1.868-57.311-25.506-85.793c-25.405-26.435-54.169-5.079-95.069-27.824
					c-52.458-29.175-38.003-82.586-88.113-111.301c-36.034-20.649-52.966,1.552-108.982-9.275
					c-55.921-10.808-124.03-49.361-157.675-118.257c-14.296-29.275-19.565-58.377-20.264-84.391
					c-25.151,44.934-51.238,87.996-54.673,160.667c-2.157,45.62,5.563,82.907,11.558,105.361
					c18.664,23.244,49.213,56.047,94.296,83.474c65.605,39.914,103.649,32.956,197.867,58.742
					c154.113,42.178,167.824,92.407,244.242,79.61c49.36-8.265,94.742-37.794,119.011-67.349
					C2463.626,2369.082,2431.605,2367.503,2418.156,2353.713z"/>
			</g>
		</g>
	</g>
</g>
</svg>
