<?xml version="1.0" encoding="UTF-8"?>
<svg id="Layer_1" data-name="Layer 1" xmlns="http://www.w3.org/2000/svg" version="1.1" xmlns:xlink="http://www.w3.org/1999/xlink" viewBox="0 0 427 427">
  <defs>
    <style>
      .cls-1 {
        fill: url(#linear-gradient-38);
      }

      .cls-1, .cls-2, .cls-3, .cls-4, .cls-5, .cls-6, .cls-7, .cls-8, .cls-9, .cls-10, .cls-11, .cls-12, .cls-13, .cls-14, .cls-15, .cls-16, .cls-17, .cls-18, .cls-19, .cls-20, .cls-21, .cls-22, .cls-23, .cls-24, .cls-25, .cls-26, .cls-27, .cls-28, .cls-29, .cls-30, .cls-31, .cls-32, .cls-33, .cls-34, .cls-35, .cls-36, .cls-37, .cls-38, .cls-39, .cls-40, .cls-41, .cls-42, .cls-43, .cls-44, .cls-45, .cls-46, .cls-47, .cls-48, .cls-49, .cls-50, .cls-51, .cls-52, .cls-53, .cls-54, .cls-55, .cls-56, .cls-57, .cls-58, .cls-59, .cls-60, .cls-61, .cls-62, .cls-63, .cls-64, .cls-65, .cls-66, .cls-67, .cls-68, .cls-69, .cls-70, .cls-71, .cls-72, .cls-73, .cls-74, .cls-75, .cls-76, .cls-77, .cls-78, .cls-79, .cls-80, .cls-81, .cls-82, .cls-83, .cls-84, .cls-85, .cls-86, .cls-87, .cls-88, .cls-89, .cls-90, .cls-91, .cls-92, .cls-93, .cls-94, .cls-95, .cls-96 {
        stroke-width: 0px;
      }

      .cls-2 {
        fill: url(#linear-gradient-12);
      }

      .cls-3 {
        fill: url(#linear-gradient-33);
      }

      .cls-4 {
        fill: url(#linear-gradient);
      }

      .cls-5, .cls-56 {
        fill: #d8dee8;
      }

      .cls-6 {
        fill: url(#linear-gradient-8);
      }

      .cls-6, .cls-7, .cls-10, .cls-11, .cls-14, .cls-16, .cls-22, .cls-35, .cls-37, .cls-45, .cls-49, .cls-51, .cls-52, .cls-54, .cls-55, .cls-56, .cls-60, .cls-66, .cls-71, .cls-74, .cls-75, .cls-76, .cls-85, .cls-91, .cls-95 {
        isolation: isolate;
      }

      .cls-6, .cls-7, .cls-10, .cls-11, .cls-14, .cls-16, .cls-22, .cls-45, .cls-49, .cls-54, .cls-60, .cls-75, .cls-85, .cls-91, .cls-95 {
        opacity: .5;
      }

      .cls-7 {
        fill: url(#linear-gradient-10);
      }

      .cls-8 {
        fill: url(#linear-gradient-67);
      }

      .cls-9 {
        fill: url(#linear-gradient-57);
      }

      .cls-10 {
        fill: url(#linear-gradient-11);
      }

      .cls-11 {
        fill: url(#linear-gradient-20);
      }

      .cls-12 {
        fill: url(#linear-gradient-76);
      }

      .cls-13 {
        fill: #f4f7fa;
      }

      .cls-14 {
        fill: url(#linear-gradient-14);
      }

      .cls-15 {
        fill: url(#linear-gradient-42);
      }

      .cls-16 {
        fill: url(#linear-gradient-13);
      }

      .cls-17 {
        fill: #97a6b7;
      }

      .cls-18 {
        fill: url(#linear-gradient-81);
      }

      .cls-19 {
        fill: url(#linear-gradient-73);
      }

      .cls-20 {
        fill: url(#linear-gradient-31);
      }

      .cls-21 {
        fill: url(#linear-gradient-71);
      }

      .cls-22 {
        fill: url(#linear-gradient-19);
      }

      .cls-23 {
        fill: url(#linear-gradient-58);
      }

      .cls-24 {
        fill: url(#linear-gradient-63);
      }

      .cls-25 {
        fill: url(#linear-gradient-34);
      }

      .cls-26 {
        fill: url(#linear-gradient-40);
      }

      .cls-97, .cls-35, .cls-37, .cls-55, .cls-56, .cls-66, .cls-71, .cls-74 {
        opacity: .3;
      }

      .cls-27 {
        fill: url(#linear-gradient-66);
      }

      .cls-28 {
        fill: url(#linear-gradient-23);
      }

      .cls-29 {
        fill: url(#linear-gradient-25);
      }

      .cls-30 {
        fill: url(#linear-gradient-43);
      }

      .cls-31 {
        fill: url(#linear-gradient-22);
      }

      .cls-32 {
        fill: url(#linear-gradient-54);
      }

      .cls-33 {
        fill: url(#linear-gradient-55);
      }

      .cls-34 {
        fill: url(#linear-gradient-35);
      }

      .cls-35 {
        fill: url(#linear-gradient-62);
      }

      .cls-36 {
        fill: url(#linear-gradient-50);
      }

      .cls-37 {
        fill: url(#linear-gradient-72);
      }

      .cls-38 {
        fill: url(#linear-gradient-32);
      }

      .cls-39 {
        fill: url(#linear-gradient-60);
      }

      .cls-40 {
        fill: url(#linear-gradient-59);
      }

      .cls-41 {
        fill: url(#linear-gradient-2);
      }

      .cls-42 {
        fill: url(#linear-gradient-52);
      }

      .cls-43 {
        fill: #26264f;
      }

      .cls-44 {
        fill: url(#linear-gradient-45);
      }

      .cls-45 {
        fill: url(#linear-gradient-4);
      }

      .cls-46 {
        fill: url(#linear-gradient-7);
      }

      .cls-47 {
        fill: url(#linear-gradient-39);
      }

      .cls-48 {
        fill: url(#linear-gradient-3);
      }

      .cls-49 {
        fill: url(#linear-gradient-6);
      }

      .cls-50 {
        fill: url(#linear-gradient-77);
      }

      .cls-51 {
        opacity: .6;
      }

      .cls-51, .cls-52, .cls-76, .cls-77 {
        fill: #fff;
      }

      .cls-52 {
        opacity: .4;
      }

      .cls-53 {
        fill: url(#linear-gradient-27);
      }

      .cls-54 {
        fill: url(#linear-gradient-5);
      }

      .cls-55 {
        fill: url(#linear-gradient-24);
      }

      .cls-57 {
        fill: url(#linear-gradient-82);
      }

      .cls-58 {
        fill: url(#linear-gradient-83);
      }

      .cls-59 {
        fill: url(#linear-gradient-53);
      }

      .cls-60 {
        fill: url(#linear-gradient-9);
      }

      .cls-61 {
        fill: url(#linear-gradient-85);
      }

      .cls-62 {
        fill: url(#linear-gradient-65);
      }

      .cls-63 {
        fill: url(#linear-gradient-36);
      }

      .cls-64 {
        fill: url(#linear-gradient-48);
      }

      .cls-65 {
        fill: url(#linear-gradient-49);
      }

      .cls-66 {
        fill: url(#linear-gradient-69);
      }

      .cls-67 {
        fill: url(#linear-gradient-47);
      }

      .cls-68 {
        fill: url(#linear-gradient-26);
      }

      .cls-69 {
        fill: url(#linear-gradient-61);
      }

      .cls-70 {
        fill: url(#linear-gradient-18);
      }

      .cls-71 {
        fill: url(#linear-gradient-56);
      }

      .cls-72 {
        fill: url(#linear-gradient-51);
      }

      .cls-73 {
        fill: url(#linear-gradient-30);
      }

      .cls-74 {
        fill: url(#linear-gradient-41);
      }

      .cls-75 {
        fill: url(#linear-gradient-15);
      }

      .cls-76 {
        opacity: .3;
      }

      .cls-78 {
        fill: url(#linear-gradient-44);
      }

      .cls-98 {
        opacity: .2;
      }

      .cls-79 {
        fill: url(#linear-gradient-84);
      }

      .cls-80 {
        fill: url(#linear-gradient-68);
      }

      .cls-81 {
        fill: url(#linear-gradient-29);
      }

      .cls-82 {
        fill: url(#linear-gradient-46);
      }

      .cls-83 {
        fill: url(#linear-gradient-64);
      }

      .cls-84 {
        fill: url(#linear-gradient-28);
      }

      .cls-85 {
        fill: url(#linear-gradient-17);
      }

      .cls-86 {
        fill: url(#linear-gradient-87);
      }

      .cls-87 {
        fill: url(#linear-gradient-70);
      }

      .cls-88 {
        fill: url(#linear-gradient-78);
      }

      .cls-89 {
        fill: url(#linear-gradient-86);
      }

      .cls-90 {
        fill: url(#linear-gradient-74);
      }

      .cls-91 {
        fill: url(#linear-gradient-21);
      }

      .cls-92 {
        fill: url(#linear-gradient-37);
      }

      .cls-93 {
        fill: url(#linear-gradient-80);
      }

      .cls-94 {
        fill: url(#linear-gradient-79);
      }

      .cls-95 {
        fill: url(#linear-gradient-16);
      }

      .cls-96 {
        fill: url(#linear-gradient-75);
      }
    </style>
    <linearGradient id="linear-gradient" x1="216.3" y1="3290.7" x2="217.1" y2="3357.2" gradientTransform="translate(0 3710) scale(1 -1)" gradientUnits="userSpaceOnUse">
      <stop offset=".5" stop-color="#ebeff2"/>
      <stop offset="1" stop-color="#fff"/>
    </linearGradient>
    <linearGradient id="linear-gradient-2" x1="183.4" y1="3505.3" x2="312.2" y2="3269.1" gradientTransform="translate(0 3710) scale(1 -1)" gradientUnits="userSpaceOnUse">
      <stop offset="0" stop-color="#444b8c"/>
      <stop offset="1" stop-color="#26264f"/>
    </linearGradient>
    <linearGradient id="linear-gradient-3" x1="202.6" y1="3574.5" x2="225.7" y2="3433.6" gradientTransform="translate(0 3710) scale(1 -1)" gradientUnits="userSpaceOnUse">
      <stop offset="0" stop-color="#e38ddd"/>
      <stop offset="1" stop-color="#9571f6"/>
    </linearGradient>
    <linearGradient id="linear-gradient-4" x1="190.6" y1="3533.4" x2="244.8" y2="3533.4" gradientTransform="translate(0 3710) scale(1 -1)" gradientUnits="userSpaceOnUse">
      <stop offset="0" stop-color="#ff9085"/>
      <stop offset="1" stop-color="#fb6fbb"/>
    </linearGradient>
    <linearGradient id="linear-gradient-5" x1="190.6" y1="3528.1" x2="244.8" y2="3528.1" gradientTransform="translate(0 3710) scale(1 -1)" gradientUnits="userSpaceOnUse">
      <stop offset="0" stop-color="#ff9085"/>
      <stop offset="1" stop-color="#fb6fbb"/>
    </linearGradient>
    <linearGradient id="linear-gradient-6" x1="181.1" y1="3512.3" x2="219.6" y2="3512.3" gradientTransform="translate(0 3710) scale(1 -1)" gradientUnits="userSpaceOnUse">
      <stop offset="0" stop-color="#ff9085"/>
      <stop offset="1" stop-color="#fb6fbb"/>
    </linearGradient>
    <linearGradient id="linear-gradient-7" x1="203.1" y1="3574.4" x2="224.3" y2="3445.4" gradientTransform="translate(0 3710) scale(1 -1)" gradientUnits="userSpaceOnUse">
      <stop offset="0" stop-color="#e38ddd"/>
      <stop offset="1" stop-color="#9571f6"/>
    </linearGradient>
    <linearGradient id="linear-gradient-8" x1="168.5" y1="3545" x2="207" y2="3545" gradientTransform="translate(0 3710) scale(1 -1)" gradientUnits="userSpaceOnUse">
      <stop offset="0" stop-color="#ff9085"/>
      <stop offset="1" stop-color="#fb6fbb"/>
    </linearGradient>
    <linearGradient id="linear-gradient-9" x1="190.6" y1="3426.6" x2="244.8" y2="3426.6" gradientTransform="translate(0 3710) scale(1 -1)" gradientUnits="userSpaceOnUse">
      <stop offset="0" stop-color="#ff9085"/>
      <stop offset="1" stop-color="#fb6fbb"/>
    </linearGradient>
    <linearGradient id="linear-gradient-10" x1="190.6" y1="3421.3" x2="244.8" y2="3421.3" gradientTransform="translate(0 3710) scale(1 -1)" gradientUnits="userSpaceOnUse">
      <stop offset="0" stop-color="#ff9085"/>
      <stop offset="1" stop-color="#fb6fbb"/>
    </linearGradient>
    <linearGradient id="linear-gradient-11" x1="215.4" y1="3416.8" x2="268.2" y2="3416.8" gradientTransform="translate(0 3710) scale(1 -1)" gradientUnits="userSpaceOnUse">
      <stop offset="0" stop-color="#ff9085"/>
      <stop offset="1" stop-color="#fb6fbb"/>
    </linearGradient>
    <linearGradient id="linear-gradient-12" x1="219.6" y1="3547" x2="236.1" y2="3446.2" gradientTransform="translate(0 3710) scale(1 -1)" gradientUnits="userSpaceOnUse">
      <stop offset="0" stop-color="#e38ddd"/>
      <stop offset="1" stop-color="#9571f6"/>
    </linearGradient>
    <linearGradient id="linear-gradient-13" x1="168.5" y1="3436.5" x2="207" y2="3436.5" gradientTransform="translate(0 3710) scale(1 -1)" gradientUnits="userSpaceOnUse">
      <stop offset="0" stop-color="#ff9085"/>
      <stop offset="1" stop-color="#fb6fbb"/>
    </linearGradient>
    <linearGradient id="linear-gradient-14" x1="181.1" y1="3490.7" x2="235.8" y2="3490.7" gradientTransform="translate(0 3710) scale(1 -1)" gradientUnits="userSpaceOnUse">
      <stop offset="0" stop-color="#ff9085"/>
      <stop offset="1" stop-color="#fb6fbb"/>
    </linearGradient>
    <linearGradient id="linear-gradient-15" x1="190.6" y1="3480" x2="244.8" y2="3480" gradientTransform="translate(0 3710) scale(1 -1)" gradientUnits="userSpaceOnUse">
      <stop offset="0" stop-color="#ff9085"/>
      <stop offset="1" stop-color="#fb6fbb"/>
    </linearGradient>
    <linearGradient id="linear-gradient-16" x1="190.6" y1="3474.6" x2="244.8" y2="3474.6" gradientTransform="translate(0 3710) scale(1 -1)" gradientUnits="userSpaceOnUse">
      <stop offset="0" stop-color="#ff9085"/>
      <stop offset="1" stop-color="#fb6fbb"/>
    </linearGradient>
    <linearGradient id="linear-gradient-17" x1="168.6" y1="3469" x2="203.3" y2="3469" gradientTransform="translate(0 3710) scale(1 -1)" gradientUnits="userSpaceOnUse">
      <stop offset="0" stop-color="#ff9085"/>
      <stop offset="1" stop-color="#fb6fbb"/>
    </linearGradient>
    <linearGradient id="linear-gradient-18" x1="197.5" y1="3565.9" x2="216.7" y2="3448.8" gradientTransform="translate(0 3710) scale(1 -1)" gradientUnits="userSpaceOnUse">
      <stop offset="0" stop-color="#e38ddd"/>
      <stop offset="1" stop-color="#9571f6"/>
    </linearGradient>
    <linearGradient id="linear-gradient-19" x1="190.6" y1="3453.2" x2="239.6" y2="3453.2" gradientTransform="translate(0 3710) scale(1 -1)" gradientUnits="userSpaceOnUse">
      <stop offset="0" stop-color="#ff9085"/>
      <stop offset="1" stop-color="#fb6fbb"/>
    </linearGradient>
    <linearGradient id="linear-gradient-20" x1="202.1" y1="3448.1" x2="250.5" y2="3448.1" gradientTransform="translate(0 3710) scale(1 -1)" gradientUnits="userSpaceOnUse">
      <stop offset="0" stop-color="#ff9085"/>
      <stop offset="1" stop-color="#fb6fbb"/>
    </linearGradient>
    <linearGradient id="linear-gradient-21" x1="202.1" y1="3442.8" x2="250.5" y2="3442.8" gradientTransform="translate(0 3710) scale(1 -1)" gradientUnits="userSpaceOnUse">
      <stop offset="0" stop-color="#ff9085"/>
      <stop offset="1" stop-color="#fb6fbb"/>
    </linearGradient>
    <linearGradient id="linear-gradient-22" x1="175.5" y1="3570.9" x2="196.7" y2="3441.2" gradientTransform="translate(0 3710) scale(1 -1)" gradientUnits="userSpaceOnUse">
      <stop offset="0" stop-color="#e38ddd"/>
      <stop offset="1" stop-color="#9571f6"/>
    </linearGradient>
    <linearGradient id="linear-gradient-23" x1="6798.8" y1="3059.6" x2="6841.6" y2="2954.9" gradientTransform="translate(6622.2 4153.4) rotate(-171.2)" gradientUnits="userSpaceOnUse">
      <stop offset="0" stop-color="#aa80f9"/>
      <stop offset="1" stop-color="#6165d7"/>
    </linearGradient>
    <linearGradient id="linear-gradient-24" x1="6834.3" y1="2936.5" x2="6835.9" y2="2982.1" gradientTransform="translate(6622.2 4153.4) rotate(-171.2)" gradientUnits="userSpaceOnUse">
      <stop offset="0" stop-color="#aa80f9"/>
      <stop offset="1" stop-color="#6165d7"/>
    </linearGradient>
    <linearGradient id="linear-gradient-25" x1="4829.7" y1="2276.7" x2="4822.2" y2="2221" gradientTransform="translate(2684.5 4924) rotate(-141.1)" gradientUnits="userSpaceOnUse">
      <stop offset="0" stop-color="#aa80f9"/>
      <stop offset="1" stop-color="#6165d7"/>
    </linearGradient>
    <linearGradient id="linear-gradient-26" x1="4828.6" y1="2292.4" x2="4818.9" y2="2168.6" gradientTransform="translate(2684.5 4924) rotate(-141.1)" gradientUnits="userSpaceOnUse">
      <stop offset="0" stop-color="#aa80f9"/>
      <stop offset="1" stop-color="#6165d7"/>
    </linearGradient>
    <linearGradient id="linear-gradient-27" x1="6806.2" y1="2926.3" x2="6813.3" y2="2993.2" gradientTransform="translate(6622.2 4153.4) rotate(-171.2)" gradientUnits="userSpaceOnUse">
      <stop offset="0" stop-color="#ffc444"/>
      <stop offset="1" stop-color="#f36f56"/>
    </linearGradient>
    <linearGradient id="linear-gradient-28" x1="4005.1" y1="2531.6" x2="4009.4" y2="2571.6" gradientTransform="translate(-3862.4 2418.7) rotate(5) scale(1 -1)" gradientUnits="userSpaceOnUse">
      <stop offset="0" stop-color="#ffc444"/>
      <stop offset="1" stop-color="#f36f56"/>
    </linearGradient>
    <linearGradient id="linear-gradient-29" x1="8436.7" y1="3491.3" x2="8404.4" y2="3336.5" gradientTransform="translate(8738.6 3710) rotate(-180)" gradientUnits="userSpaceOnUse">
      <stop offset="0" stop-color="#ff9085"/>
      <stop offset="1" stop-color="#fb6fbb"/>
    </linearGradient>
    <linearGradient id="linear-gradient-30" x1="-2823.1" y1="3167.3" x2="-2813.4" y2="3167.3" gradientTransform="translate(3049.9 3628.5) rotate(1.7) scale(1 -1)" gradientUnits="userSpaceOnUse">
      <stop offset="0" stop-color="#311944"/>
      <stop offset="1" stop-color="#893976"/>
    </linearGradient>
    <linearGradient id="linear-gradient-31" x1="-2908.5" y1="1785.7" x2="-2898.2" y2="1785.7" gradientTransform="translate(2619 2871.1) rotate(15.4) scale(1 -1)" gradientUnits="userSpaceOnUse">
      <stop offset="0" stop-color="#311944"/>
      <stop offset="1" stop-color="#893976"/>
    </linearGradient>
    <linearGradient id="linear-gradient-32" x1="8447.2" y1="3348.5" x2="8419.7" y2="3410.3" gradientTransform="translate(8738.6 3710) rotate(-180)" gradientUnits="userSpaceOnUse">
      <stop offset="0" stop-color="#311944"/>
      <stop offset="1" stop-color="#893976"/>
    </linearGradient>
    <linearGradient id="linear-gradient-33" x1="8462" y1="2630.4" x2="8434.6" y2="2692.2" gradientTransform="translate(8381.2 4011.7) rotate(-173)" gradientUnits="userSpaceOnUse">
      <stop offset="0" stop-color="#311944"/>
      <stop offset="1" stop-color="#893976"/>
    </linearGradient>
    <linearGradient id="linear-gradient-34" x1="8425.5" y1="3493.7" x2="8393.2" y2="3338.8" gradientTransform="translate(8738.6 3710) rotate(-180)" gradientUnits="userSpaceOnUse">
      <stop offset="0" stop-color="#ff9085"/>
      <stop offset="1" stop-color="#fb6fbb"/>
    </linearGradient>
    <linearGradient id="linear-gradient-35" x1="8397.8" y1="3361.2" x2="8410" y2="3419.4" gradientTransform="translate(8738.6 3710) rotate(-180)" gradientUnits="userSpaceOnUse">
      <stop offset="0" stop-color="#ff9085"/>
      <stop offset="1" stop-color="#fb6fbb"/>
    </linearGradient>
    <linearGradient id="linear-gradient-36" x1="8403.4" y1="3498.3" x2="8371.1" y2="3343.4" gradientTransform="translate(8738.6 3710) rotate(-180)" gradientUnits="userSpaceOnUse">
      <stop offset="0" stop-color="#ff9085"/>
      <stop offset="1" stop-color="#fb6fbb"/>
    </linearGradient>
    <linearGradient id="linear-gradient-37" x1="8431" y1="3411.8" x2="8425.7" y2="3426.6" gradientTransform="translate(8738.6 3710) rotate(-180)" gradientUnits="userSpaceOnUse">
      <stop offset="0" stop-color="#e38ddd"/>
      <stop offset="1" stop-color="#9571f6"/>
    </linearGradient>
    <linearGradient id="linear-gradient-38" x1="8408.1" y1="3433.3" x2="8410" y2="3420" gradientTransform="translate(8738.6 3710) rotate(-180)" gradientUnits="userSpaceOnUse">
      <stop offset="0" stop-color="#e38ddd"/>
      <stop offset="1" stop-color="#9571f6"/>
    </linearGradient>
    <linearGradient id="linear-gradient-39" x1="8446.1" y1="3432.1" x2="8435.9" y2="3446.6" gradientTransform="translate(8738.6 3710) rotate(-180)" gradientUnits="userSpaceOnUse">
      <stop offset="0" stop-color="#e38ddd"/>
      <stop offset="1" stop-color="#9571f6"/>
    </linearGradient>
    <linearGradient id="linear-gradient-40" x1="8426.5" y1="3408.2" x2="8448.8" y2="3453.5" gradientTransform="translate(8738.6 3710) rotate(-180)" gradientUnits="userSpaceOnUse">
      <stop offset="0" stop-color="#e38ddd"/>
      <stop offset="1" stop-color="#9571f6"/>
    </linearGradient>
    <linearGradient id="linear-gradient-41" x1="8415.7" y1="3437.2" x2="8464.6" y2="3437.2" gradientTransform="translate(8738.6 3710) rotate(-180)" gradientUnits="userSpaceOnUse">
      <stop offset="0" stop-color="#e38ddd"/>
      <stop offset="1" stop-color="#9571f6"/>
    </linearGradient>
    <linearGradient id="linear-gradient-42" x1="-2951.4" y1="3616.2" x2="-2958.7" y2="3634.8" gradientTransform="translate(3269.7 3866.6) rotate(.2) scale(1 -1)" gradientUnits="userSpaceOnUse">
      <stop offset="0" stop-color="#311944"/>
      <stop offset="1" stop-color="#6b3976"/>
    </linearGradient>
    <linearGradient id="linear-gradient-43" x1="-2953.6" y1="3615.3" x2="-2961" y2="3633.9" gradientTransform="translate(3269.7 3866.6) rotate(.2) scale(1 -1)" gradientUnits="userSpaceOnUse">
      <stop offset="0" stop-color="#311944"/>
      <stop offset="1" stop-color="#6b3976"/>
    </linearGradient>
    <linearGradient id="linear-gradient-44" x1="5817.4" y1="3428.3" x2="5827.5" y2="3468.8" gradientTransform="translate(5919.4 3710) rotate(-180)" gradientUnits="userSpaceOnUse">
      <stop offset="0" stop-color="#6165d7"/>
      <stop offset="1" stop-color="#aa80f9"/>
    </linearGradient>
    <linearGradient id="linear-gradient-45" x1="6085.1" y1="2937" x2="6089.9" y2="2932.7" gradientTransform="translate(5706.6 4135.6) rotate(-172)" gradientUnits="userSpaceOnUse">
      <stop offset="0" stop-color="#444b8c"/>
      <stop offset="1" stop-color="#26264f"/>
    </linearGradient>
    <linearGradient id="linear-gradient-46" x1="5164.4" y1="2932.8" x2="5164.4" y2="2941.1" gradientTransform="translate(4790.4 4006) rotate(-172)" gradientUnits="userSpaceOnUse">
      <stop offset="0" stop-color="#ffc444"/>
      <stop offset="1" stop-color="#f36f56"/>
    </linearGradient>
    <linearGradient id="linear-gradient-47" x1="6085.6" y1="2937.6" x2="6090.4" y2="2933.3" gradientTransform="translate(5706.6 4135.6) rotate(-172)" gradientUnits="userSpaceOnUse">
      <stop offset="0" stop-color="#444b8c"/>
      <stop offset="1" stop-color="#26264f"/>
    </linearGradient>
    <linearGradient id="linear-gradient-48" x1="5793.1" y1="3331.9" x2="5797.9" y2="3327.7" gradientTransform="translate(5919.4 3710) rotate(-180)" gradientUnits="userSpaceOnUse">
      <stop offset="0" stop-color="#444b8c"/>
      <stop offset="1" stop-color="#26264f"/>
    </linearGradient>
    <linearGradient id="linear-gradient-49" x1="4872.4" y1="3327.7" x2="4872.4" y2="3336" gradientTransform="translate(4994.1 3710) rotate(-180)" gradientUnits="userSpaceOnUse">
      <stop offset="0" stop-color="#ffc444"/>
      <stop offset="1" stop-color="#f36f56"/>
    </linearGradient>
    <linearGradient id="linear-gradient-50" x1="-99.6" y1="3323.8" x2="-130.9" y2="3450.2" gradientTransform="translate(221.7 3710) scale(1 -1)" gradientUnits="userSpaceOnUse">
      <stop offset="0" stop-color="#444b8c"/>
      <stop offset="1" stop-color="#26264f"/>
    </linearGradient>
    <linearGradient id="linear-gradient-51" x1="147.5" y1="3418" x2="68.4" y2="3473" gradientTransform="translate(0 3710) scale(1 -1)" gradientUnits="userSpaceOnUse">
      <stop offset="0" stop-color="#6165d7"/>
      <stop offset="1" stop-color="#aa80f9"/>
    </linearGradient>
    <linearGradient id="linear-gradient-52" x1="5793.6" y1="3332.5" x2="5798.4" y2="3328.2" gradientTransform="translate(5919.4 3710) rotate(-180)" gradientUnits="userSpaceOnUse">
      <stop offset="0" stop-color="#444b8c"/>
      <stop offset="1" stop-color="#26264f"/>
    </linearGradient>
    <linearGradient id="linear-gradient-53" x1="5652" y1="3784.2" x2="5678" y2="3751.5" gradientTransform="translate(6023.4 3606.1) rotate(176)" gradientUnits="userSpaceOnUse">
      <stop offset="0" stop-color="#ffc444"/>
      <stop offset="1" stop-color="#f36f56"/>
    </linearGradient>
    <linearGradient id="linear-gradient-54" x1="5653.1" y1="3785.1" x2="5679.1" y2="3752.4" gradientTransform="translate(6023.4 3606.1) rotate(176)" gradientUnits="userSpaceOnUse">
      <stop offset="0" stop-color="#ffc444"/>
      <stop offset="1" stop-color="#f36f56"/>
    </linearGradient>
    <linearGradient id="linear-gradient-55" x1="92.7" y1="3437" x2="97.4" y2="3437" gradientTransform="translate(0 3710) scale(1 -1)" gradientUnits="userSpaceOnUse">
      <stop offset="0" stop-color="#6165d7"/>
      <stop offset="1" stop-color="#aa80f9"/>
    </linearGradient>
    <linearGradient id="linear-gradient-56" x1="96.1" y1="3429.6" x2="132.1" y2="3429.6" gradientTransform="translate(0 3710) scale(1 -1)" gradientUnits="userSpaceOnUse">
      <stop offset="0" stop-color="#6165d7"/>
      <stop offset="1" stop-color="#aa80f9"/>
    </linearGradient>
    <linearGradient id="linear-gradient-57" x1="159.9" y1="3453.9" x2="167.1" y2="3444.9" gradientTransform="translate(0 3710) scale(1 -1)" gradientUnits="userSpaceOnUse">
      <stop offset="0" stop-color="#ffc444"/>
      <stop offset="1" stop-color="#f36f56"/>
    </linearGradient>
    <linearGradient id="linear-gradient-58" x1="5838.9" y1="3413.6" x2="5763.3" y2="3466.2" gradientTransform="translate(5919.4 3710) rotate(-180)" gradientUnits="userSpaceOnUse">
      <stop offset="0" stop-color="#6165d7"/>
      <stop offset="1" stop-color="#aa80f9"/>
    </linearGradient>
    <linearGradient id="linear-gradient-59" x1="-4696.5" y1="3581.8" x2="-4676.7" y2="3581.8" gradientTransform="translate(4938.6 3710) scale(1 -1)" gradientUnits="userSpaceOnUse">
      <stop offset="0" stop-color="#ffc444"/>
      <stop offset="1" stop-color="#f36f56"/>
    </linearGradient>
    <linearGradient id="linear-gradient-60" x1="-3729.1" y1="3544.6" x2="-3690.6" y2="3544.6" gradientTransform="translate(3937 3710) scale(1 -1)" gradientUnits="userSpaceOnUse">
      <stop offset="0" stop-color="#aa80f9"/>
      <stop offset="1" stop-color="#6165d7"/>
    </linearGradient>
    <linearGradient id="linear-gradient-61" x1="9021.6" y1="5384.4" x2="9023.2" y2="5354.5" gradientTransform="translate(10441.2 2725.6) rotate(163)" gradientUnits="userSpaceOnUse">
      <stop offset="0" stop-color="#e38ddd"/>
      <stop offset="1" stop-color="#9571f6"/>
    </linearGradient>
    <linearGradient id="linear-gradient-62" x1="-3711" y1="3543.2" x2="-3672.6" y2="3543.2" gradientTransform="translate(3937 3710) scale(1 -1)" gradientUnits="userSpaceOnUse">
      <stop offset="0" stop-color="#aa80f9"/>
      <stop offset="1" stop-color="#6165d7"/>
    </linearGradient>
    <linearGradient id="linear-gradient-63" x1="243" y1="3493" x2="245.5" y2="3493" gradientTransform="translate(0 3710) scale(1 -1)" gradientUnits="userSpaceOnUse">
      <stop offset="0" stop-color="#311944"/>
      <stop offset="1" stop-color="#a03976"/>
    </linearGradient>
    <linearGradient id="linear-gradient-64" x1="-3708.6" y1="3568.5" x2="-3674.1" y2="3526.6" gradientTransform="translate(3937 3710) scale(1 -1)" gradientUnits="userSpaceOnUse">
      <stop offset="0" stop-color="#aa80f9"/>
      <stop offset="1" stop-color="#6165d7"/>
    </linearGradient>
    <linearGradient id="linear-gradient-65" x1="-3434.1" y1="3917.6" x2="-3479.7" y2="3879.4" gradientTransform="translate(3953.7 3821.5) rotate(-2.9) scale(1 -1)" gradientUnits="userSpaceOnUse">
      <stop offset="0" stop-color="#444b8c"/>
      <stop offset="1" stop-color="#26264f"/>
    </linearGradient>
    <linearGradient id="linear-gradient-66" x1="6968.2" y1="3567.3" x2="7005.2" y2="3600.5" gradientTransform="translate(7256 3710) rotate(-180)" gradientUnits="userSpaceOnUse">
      <stop offset="0" stop-color="#ffc444"/>
      <stop offset="1" stop-color="#f36f56"/>
    </linearGradient>
    <linearGradient id="linear-gradient-67" x1="264.2" y1="3605.5" x2="277.2" y2="3605.5" gradientTransform="translate(0 3710) scale(1 -1)" gradientUnits="userSpaceOnUse">
      <stop offset="0" stop-color="#311944"/>
      <stop offset="1" stop-color="#a03976"/>
    </linearGradient>
    <linearGradient id="linear-gradient-68" x1="265.8" y1="3571.6" x2="265.5" y2="3597.4" gradientTransform="translate(0 3710) scale(1 -1)" gradientUnits="userSpaceOnUse">
      <stop offset="0" stop-color="#311944"/>
      <stop offset="1" stop-color="#a03976"/>
    </linearGradient>
    <linearGradient id="linear-gradient-69" x1="6969.4" y1="3565.9" x2="7006.4" y2="3599.2" gradientTransform="translate(7256 3710) rotate(-180)" gradientUnits="userSpaceOnUse">
      <stop offset="0" stop-color="#ffc444"/>
      <stop offset="1" stop-color="#f36f56"/>
    </linearGradient>
    <linearGradient id="linear-gradient-70" x1="6981.6" y1="3560.6" x2="7015.3" y2="3560.6" gradientTransform="translate(7256 3710) rotate(-180)" gradientUnits="userSpaceOnUse">
      <stop offset="0" stop-color="#e38ddd"/>
      <stop offset="1" stop-color="#9571f6"/>
    </linearGradient>
    <linearGradient id="linear-gradient-71" x1="6997.6" y1="3569.5" x2="7043.8" y2="3569.5" gradientTransform="translate(7256 3710) rotate(-180)" gradientUnits="userSpaceOnUse">
      <stop offset="0" stop-color="#e38ddd"/>
      <stop offset="1" stop-color="#9571f6"/>
    </linearGradient>
    <linearGradient id="linear-gradient-72" x1="-1870.8" y1="3581.7" x2="-1848.7" y2="3559.8" gradientTransform="translate(2093.7 3710) scale(1 -1)" gradientUnits="userSpaceOnUse">
      <stop offset="0" stop-color="#e38ddd"/>
      <stop offset="1" stop-color="#9571f6"/>
    </linearGradient>
    <linearGradient id="linear-gradient-73" x1="6983.5" y1="3567.5" x2="6955.2" y2="3595.3" gradientTransform="translate(7256 3710) rotate(-180)" gradientUnits="userSpaceOnUse">
      <stop offset="0" stop-color="#ffc444"/>
      <stop offset="1" stop-color="#f36f56"/>
    </linearGradient>
    <linearGradient id="linear-gradient-74" x1="257.9" y1="3564.2" x2="267.6" y2="3564.2" gradientTransform="translate(0 3710) scale(1 -1)" gradientUnits="userSpaceOnUse">
      <stop offset="0" stop-color="#311944"/>
      <stop offset="1" stop-color="#a03976"/>
    </linearGradient>
    <linearGradient id="linear-gradient-75" x1="4619.6" y1="3374.4" x2="4588.3" y2="3337.1" gradientTransform="translate(4784.9 3710) rotate(-180)" gradientUnits="userSpaceOnUse">
      <stop offset="0" stop-color="#e38ddd"/>
      <stop offset="1" stop-color="#9571f6"/>
    </linearGradient>
    <linearGradient id="linear-gradient-76" x1="4556.2" y1="3511.9" x2="4553.8" y2="3534.5" gradientTransform="translate(4902.9 3645.4) rotate(177)" gradientUnits="userSpaceOnUse">
      <stop offset="0" stop-color="#aa80f9"/>
      <stop offset="1" stop-color="#6165d7"/>
    </linearGradient>
    <linearGradient id="linear-gradient-77" x1="163.7" y1="3634.4" x2="200.4" y2="3625.7" gradientTransform="translate(0 3710) scale(1 -1)" gradientUnits="userSpaceOnUse">
      <stop offset="0" stop-color="#311944"/>
      <stop offset="1" stop-color="#893976"/>
    </linearGradient>
    <linearGradient id="linear-gradient-78" x1="2969.4" y1="3644.4" x2="3000.8" y2="3586" gradientTransform="translate(3163.7 3710) rotate(-180)" gradientUnits="userSpaceOnUse">
      <stop offset="0" stop-color="#e38ddd"/>
      <stop offset="1" stop-color="#9571f6"/>
    </linearGradient>
    <linearGradient id="linear-gradient-79" x1="2960.2" y1="3640.5" x2="2991" y2="3578.7" gradientTransform="translate(3163.7 3710) rotate(-180)" gradientUnits="userSpaceOnUse">
      <stop offset="0" stop-color="#e38ddd"/>
      <stop offset="1" stop-color="#9571f6"/>
    </linearGradient>
    <linearGradient id="linear-gradient-80" x1="188.5" y1="3626.8" x2="125.8" y2="3589.3" gradientTransform="translate(0 3710) scale(1 -1)" gradientUnits="userSpaceOnUse">
      <stop offset="0" stop-color="#311944"/>
      <stop offset="1" stop-color="#893976"/>
    </linearGradient>
    <linearGradient id="linear-gradient-81" x1="3021.5" y1="3612.7" x2="3056.5" y2="3547.7" gradientTransform="translate(3163.7 3710) rotate(-180)" gradientUnits="userSpaceOnUse">
      <stop offset="0" stop-color="#ff9085"/>
      <stop offset="1" stop-color="#fb6fbb"/>
    </linearGradient>
    <linearGradient id="linear-gradient-82" x1="3011.3" y1="3608.4" x2="3045.6" y2="3539.5" gradientTransform="translate(3163.7 3710) rotate(-180)" gradientUnits="userSpaceOnUse">
      <stop offset="0" stop-color="#ff9085"/>
      <stop offset="1" stop-color="#fb6fbb"/>
    </linearGradient>
    <linearGradient id="linear-gradient-83" x1="159.2" y1="3562" x2="195.9" y2="3553.3" gradientTransform="translate(0 3710) scale(1 -1)" gradientUnits="userSpaceOnUse">
      <stop offset="0" stop-color="#ffc444"/>
      <stop offset="1" stop-color="#f36f56"/>
    </linearGradient>
    <linearGradient id="linear-gradient-84" x1="2973.9" y1="3572" x2="3005.3" y2="3513.6" gradientTransform="translate(3163.7 3710) rotate(-180)" gradientUnits="userSpaceOnUse">
      <stop offset="0" stop-color="#ffc444"/>
      <stop offset="1" stop-color="#f36f56"/>
    </linearGradient>
    <linearGradient id="linear-gradient-85" x1="2964.6" y1="3568.1" x2="2995.5" y2="3506.2" gradientTransform="translate(3163.7 3710) rotate(-180)" gradientUnits="userSpaceOnUse">
      <stop offset="0" stop-color="#ffc444"/>
      <stop offset="1" stop-color="#f36f56"/>
    </linearGradient>
    <linearGradient id="linear-gradient-86" x1="148.3" y1="3509.4" x2="151.7" y2="3410.7" gradientTransform="translate(0 3710) scale(1 -1)" gradientUnits="userSpaceOnUse">
      <stop offset="0" stop-color="#e38ddd"/>
      <stop offset="1" stop-color="#9571f6"/>
    </linearGradient>
    <linearGradient id="linear-gradient-87" x1="5024.8" y1="3512.7" x2="5069.3" y2="3454.2" gradientTransform="translate(5192.3 3710) rotate(-180)" gradientUnits="userSpaceOnUse">
      <stop offset="0" stop-color="#e38ddd"/>
      <stop offset="1" stop-color="#9571f6"/>
    </linearGradient>
  </defs>
  <g id="Illustration">
    <g>
      <path class="cls-13" d="M209.8,48.1c-82-2.5-153,58.7-163.7,138.9-11.7,87.8,52.8,166.7,132.3,179.4,98.8,15.7,194.7-75.3,186-174-6.5-74.4-71.3-141.8-154.6-144.3Z"/>
      <g>
        <g>
          <path class="cls-17" d="M244.9,362.2c-4.4-1.4-7.6-5.2-8.5-9.7l-6.4-31.4-54.3,1.9-6.7,32.8c-.9,4.6,2.8,9.2,7.1,10.9l22.7,8.9c4.2,1.7,8.8,2.3,13.3,1.9l48-4.1c1.4-.1,2.5-1.2,2.7-2.6s1.1-3-.2-3.5l-17.8-5Z"/>
          <path class="cls-4" d="M245.4,360.3c-4.4-1.4-7.6-5.1-8.5-9.6l-6.3-31-53,1.9-6.7,32.3c-.9,4.5,1.5,9.1,5.9,10.7l22.7,8.8c4.2,1.6,8.8,2.3,13.3,1.9l48-4.1c1.4-.1,2.5-1.2,2.7-2.6.2-1.4-.7-2.7-2-3.2l-15.9-5.2Z"/>
        </g>
        <g>
          <g>
            <path class="cls-17" d="M64.6,342c-5.9.4-10.7-3.5-10.7-8.5v-182.1c0-5.1,4.8-9,10.7-8.7l273.7,18.9c4.3.2,6.6-3.3,6.6,1v154.9c0,4.3-3.5,8-7.8,8.3l-272.5,16.2Z"/>
            <path class="cls-77" d="M67,342c-5.9.4-10.7-3.5-10.7-8.5v-182.1c0-5.1,4.8-9,10.7-8.7l272.5,11.8c4.3.2,7.8,3.8,7.8,8.1v154.9c0,4.3-3.5,8-7.8,8.3l-272.5,16.2Z"/>
            <path class="cls-56" d="M339.5,158.1l-272.5-11.2c-3.2-.1-5.7,2-5.7,4.6v181.6c0,2.7,2.6,4.7,5.7,4.6l272.5-15.6c2.3-.1,4.2-2.1,4.2-4.4v-155.2c0-2.3-1.9-4.3-4.2-4.3Z"/>
          </g>
          <g>
            <path class="cls-41" d="M337.5,309l-267.5,13.2c-2.8.1-5.1-1.7-5.1-4.1v-164.1c0-2.4,2.3-4.3,5.1-4.2l267.5,9.9c2.1,0,3.8,1.8,3.8,3.9v141.4c0,2.1-1.7,3.9-3.8,4Z"/>
            <polygon class="cls-51" points="136.7 167 75.6 165.2 75.6 159.4 136.7 161.4 136.7 167"/>
            <polygon class="cls-52" points="165.5 166.3 151.4 165.9 151.4 161.9 165.5 162.3 165.5 166.3"/>
            <polygon class="cls-52" points="165.5 171.8 151.4 171.4 151.4 167.4 165.5 167.8 165.5 171.8"/>
            <polygon class="cls-48" points="235.8 173.7 181.1 172.2 181.1 168.3 235.8 169.9 235.8 173.7"/>
            <polygon class="cls-45" points="244.8 179.2 190.6 177.9 190.6 174 244.8 175.4 244.8 179.2"/>
            <polygon class="cls-54" points="244.8 184.5 190.6 183.3 190.6 179.4 244.8 180.7 244.8 184.5"/>
            <polygon class="cls-51" points="244.8 189.7 190.6 188.7 190.6 184.8 244.8 185.9 244.8 189.7"/>
            <polygon class="cls-52" points="165.5 177.3 151.4 176.9 151.4 172.9 165.5 173.3 165.5 177.3"/>
            <polygon class="cls-52" points="165.5 182.7 151.4 182.4 151.4 178.5 165.5 178.8 165.5 182.7"/>
            <polygon class="cls-52" points="165.5 188.2 151.4 188 151.4 184 165.5 184.3 165.5 188.2"/>
            <polygon class="cls-52" points="165.5 193.7 151.4 193.5 151.4 189.5 165.5 189.8 165.5 193.7"/>
            <polygon class="cls-51" points="203.3 194.3 168.6 193.8 168.6 189.8 203.3 190.5 203.3 194.3"/>
            <polygon class="cls-52" points="165.5 199.2 151.4 199 151.4 195.1 165.5 195.3 165.5 199.2"/>
            <polygon class="cls-52" points="165.5 204.7 151.4 204.6 151.4 200.6 165.5 200.8 165.5 204.7"/>
            <polygon class="cls-52" points="165.5 210.2 151.4 210.1 151.4 206.1 165.5 206.2 165.5 210.2"/>
            <polygon class="cls-49" points="219.6 199.9 181.1 199.4 181.1 195.5 219.6 196.1 219.6 199.9"/>
            <polygon class="cls-51" points="239.6 205.4 190.6 205 190.6 201.1 239.6 201.6 239.6 205.4"/>
            <polygon class="cls-46" points="239.6 210.7 190.6 210.4 190.6 206.5 239.6 206.9 239.6 210.7"/>
            <polygon class="cls-52" points="165.5 215.7 151.4 215.6 151.4 211.6 165.5 211.7 165.5 215.7"/>
            <polygon class="cls-52" points="165.5 221.2 151.4 221.2 151.4 217.2 165.5 217.2 165.5 221.2"/>
            <polygon class="cls-52" points="165.5 226.7 151.4 226.7 151.4 222.7 165.5 222.7 165.5 226.7"/>
            <polygon class="cls-52" points="165.5 232.1 151.4 232.2 151.4 228.2 165.5 228.2 165.5 232.1"/>
            <polygon class="cls-52" points="165.5 237.6 151.4 237.7 151.4 233.8 165.5 233.7 165.5 237.6"/>
            <polygon class="cls-52" points="165.5 243.1 151.4 243.3 151.4 239.3 165.5 239.2 165.5 243.1"/>
            <polygon class="cls-52" points="165.5 248.6 151.4 248.8 151.4 244.8 165.5 244.7 165.5 248.6"/>
            <polygon class="cls-52" points="165.5 254.1 151.4 254.3 151.4 250.3 165.5 250.2 165.5 254.1"/>
            <polygon class="cls-52" points="165.5 259.6 151.4 259.9 151.4 255.9 165.5 255.6 165.5 259.6"/>
            <polygon class="cls-52" points="165.5 265.1 151.4 265.4 151.4 261.4 165.5 261.1 165.5 265.1"/>
            <polygon class="cls-52" points="165.5 270.6 151.4 270.9 151.4 266.9 165.5 266.6 165.5 270.6"/>
            <polygon class="cls-52" points="165.5 276.1 151.4 276.4 151.4 272.5 165.5 272.1 165.5 276.1"/>
            <polygon class="cls-52" points="165.5 281.5 151.4 282 151.4 278 165.5 277.6 165.5 281.5"/>
            <polygon class="cls-52" points="165.5 287 151.4 287.5 151.4 283.5 165.5 283.1 165.5 287"/>
            <polygon class="cls-52" points="165.5 292.5 151.4 293 151.4 289.1 165.5 288.6 165.5 292.5"/>
            <polygon class="cls-52" points="165.5 298 151.4 298.6 151.4 294.6 165.5 294.1 165.5 298"/>
            <polygon class="cls-52" points="165.5 303.5 151.4 304.1 151.4 300.1 165.5 299.6 165.5 303.5"/>
            <polygon class="cls-52" points="165.5 309 151.4 309.6 151.4 305.6 165.5 305 165.5 309"/>
            <polygon class="cls-6" points="207 167.5 168.5 166.4 168.5 162.4 207 163.7 207 167.5"/>
            <polygon class="cls-51" points="235.8 279.4 181.1 281.1 181.1 277.2 235.8 275.6 235.8 279.4"/>
            <polygon class="cls-60" points="244.8 284.4 190.6 286.2 190.6 282.3 244.8 280.6 244.8 284.4"/>
            <polygon class="cls-7" points="244.8 289.7 190.6 291.6 190.6 287.7 244.8 285.9 244.8 289.7"/>
            <polygon class="cls-10" points="268.2 294 215.4 296.1 215.4 292.2 268.2 290.3 268.2 294"/>
            <polygon class="cls-2" points="268.2 299.2 215.4 301.4 215.4 297.6 268.2 295.5 268.2 299.2"/>
            <polygon class="cls-51" points="268.2 304.4 215.4 306.8 215.4 302.9 268.2 300.6 268.2 304.4"/>
            <polygon class="cls-16" points="207 274.9 168.5 276 168.5 272 207 271.1 207 274.9"/>
            <polygon class="cls-14" points="235.8 221.3 181.1 221.2 181.1 217.3 235.8 217.5 235.8 221.3"/>
            <polygon class="cls-51" points="244.8 226.5 190.6 226.6 190.6 222.7 244.8 222.8 244.8 226.5"/>
            <polygon class="cls-75" points="244.8 231.8 190.6 232 190.6 228.1 244.8 228 244.8 231.8"/>
            <polygon class="cls-95" points="244.8 237.1 190.6 237.5 190.6 233.6 244.8 233.3 244.8 237.1"/>
            <polygon class="cls-85" points="203.3 242.7 168.6 243.1 168.6 239.1 203.3 238.9 203.3 242.7"/>
            <polygon class="cls-51" points="219.6 247.9 181.1 248.4 181.1 244.5 219.6 244.1 219.6 247.9"/>
            <polygon class="cls-70" points="239.6 252.9 190.6 253.7 190.6 249.8 239.6 249.1 239.6 252.9"/>
            <polygon class="cls-22" points="239.6 258.2 190.6 259.1 190.6 255.2 239.6 254.4 239.6 258.2"/>
            <polygon class="cls-11" points="250.5 263.2 202.1 264.3 202.1 260.4 250.5 259.5 250.5 263.2"/>
            <polygon class="cls-91" points="250.5 268.5 202.1 269.7 202.1 265.8 250.5 264.7 250.5 268.5"/>
            <polygon class="cls-31" points="207 215.9 168.5 215.7 168.5 211.7 207 212 207 215.9"/>
            <polygon class="cls-77" points="136.7 175.9 101.7 175 101.7 169.3 136.7 170.2 136.7 175.9"/>
            <polygon class="cls-51" points="92.7 174.8 99.3 174.9 99.3 169.2 92.7 169 92.7 174.8"/>
            <polygon class="cls-51" points="136.7 184 101.7 183.3 101.7 177.5 136.7 178.3 136.7 184"/>
            <polygon class="cls-51" points="92.7 183.1 99.3 183.2 99.3 177.5 92.7 177.3 92.7 183.1"/>
            <polygon class="cls-51" points="136.7 192.1 101.7 191.5 101.7 185.8 136.7 186.5 136.7 192.1"/>
            <polygon class="cls-51" points="92.7 191.4 99.3 191.5 99.3 185.7 92.7 185.6 92.7 191.4"/>
            <polygon class="cls-77" points="136.7 249.7 75.6 250.5 75.6 244.7 136.7 244.1 136.7 249.7"/>
            <polygon class="cls-51" points="136.7 258.5 101.7 259.2 101.7 253.4 136.7 252.9 136.7 258.5"/>
            <polygon class="cls-51" points="92.7 259.3 99.3 259.2 99.3 253.5 92.7 253.6 92.7 259.3"/>
            <polygon class="cls-51" points="136.7 266.7 101.7 267.4 101.7 261.7 136.7 261 136.7 266.7"/>
            <polygon class="cls-51" points="92.7 267.6 99.3 267.5 99.3 261.7 92.7 261.9 92.7 267.6"/>
            <polygon class="cls-51" points="136.7 274.8 101.7 275.7 101.7 269.9 136.7 269.1 136.7 274.8"/>
            <polygon class="cls-51" points="92.7 275.9 99.3 275.8 99.3 270 92.7 270.2 92.7 275.9"/>
            <polygon class="cls-77" points="136.7 200.3 75.6 199.5 75.6 193.7 136.7 194.6 136.7 200.3"/>
            <polygon class="cls-51" points="136.7 209.1 101.7 208.8 101.7 203.1 136.7 203.4 136.7 209.1"/>
            <polygon class="cls-51" points="92.7 208.8 99.3 208.8 99.3 203.1 92.7 203 92.7 208.8"/>
            <polygon class="cls-51" points="136.7 217.2 101.7 217.1 101.7 211.3 136.7 211.6 136.7 217.2"/>
            <polygon class="cls-51" points="92.7 217.1 99.3 217.1 99.3 211.3 92.7 211.3 92.7 217.1"/>
            <polygon class="cls-51" points="136.7 233.6 101.7 233.7 101.7 228 136.7 227.9 136.7 233.6"/>
            <polygon class="cls-51" points="92.7 233.8 99.3 233.7 99.3 228 92.7 228 92.7 233.8"/>
            <polygon class="cls-51" points="136.7 241.7 101.7 242 101.7 236.2 136.7 236 136.7 241.7"/>
            <polygon class="cls-51" points="92.7 242.1 99.3 242 99.3 236.3 92.7 236.3 92.7 242.1"/>
            <polygon class="cls-51" points="136.7 225.3 101.7 225.4 101.7 219.6 136.7 219.7 136.7 225.3"/>
            <polygon class="cls-51" points="92.7 225.4 99.3 225.4 99.3 219.6 92.7 219.6 92.7 225.4"/>
            <polygon class="cls-77" points="136.7 282.9 75.6 284.8 75.6 278.9 136.7 277.2 136.7 282.9"/>
            <polygon class="cls-51" points="136.7 291.7 101.7 292.9 101.7 287.2 136.7 286.1 136.7 291.7"/>
            <polygon class="cls-51" points="92.7 293.3 99.3 293 99.3 287.3 92.7 287.5 92.7 293.3"/>
            <polygon class="cls-51" points="136.7 299.8 101.7 301.2 101.7 295.5 136.7 294.2 136.7 299.8"/>
            <polygon class="cls-51" points="92.7 301.6 99.3 301.3 99.3 295.5 92.7 295.8 92.7 301.6"/>
            <polygon class="cls-51" points="136.7 307.9 101.7 309.5 101.7 303.7 136.7 302.3 136.7 307.9"/>
            <polygon class="cls-51" points="92.7 309.9 99.3 309.6 99.3 303.8 92.7 304.1 92.7 309.9"/>
            <polygon class="cls-51" points="144.1 307.6 142.8 307.7 142.8 161.6 144.1 161.6 144.1 307.6"/>
          </g>
          <path class="cls-51" d="M311.1,314.4c-59.3,1.2-72.7,9.7-89.5-.4-23.2-13.9-12.6-38.8-35.2-51.8-28.4-16.4-61.1,13.6-75.9-1-14.7-14.5,13.1-48.8-3-86.9-6.5-15.3-17.5-25.3-25.1-31l-15.4-.7c-5.9-.3-10.7,3.6-10.7,8.7v182.1c0,5.1,4.8,8.9,10.7,8.5l272.5-16.2c4.3-.3,7.8-4,7.8-8.3v-2.8c-8.2-.3-20.8-.6-36.3-.3Z"/>
        </g>
      </g>
      <g>
        <g>
          <path class="cls-28" d="M303.7,190.4c14.6,13.2,33.2,16.7,42.5,8.3h0s0,0,0,0c.4-.3.8-.7,1.1-1.1.4-.5.8-1,1.2-1.5l11.3-12.7,2.3-2.6-16.9-14.9c-2.5-3.8-5.6-7.6-9.3-11-4.2-3.8-8.8-6.8-13.3-9l-16.9-14.9-13.2,16.5c0,0-.1.1-.2.2-.5.5-1,1.1-1.4,1.7-.7,1-1.2,2-1.6,3.1-4.2,10.4,1.4,26.2,14.4,38Z"/>
          <path class="cls-55" d="M303.6,190.6c3.9,3.7,8.4,6.9,13.3,9.1,5,2.2,12,4.2,17.5,3.7,9.1-.8,13.5-6.6,19.1-12.8,2.2-2.4,4.5-4.7,6.5-7.2-5.3-.7-12.2,1.1-17.2,2.8-4.3,1.5-8.4,4-13,4.7-10.1,1.5-20.8-4.7-25.8-13.3-3.1-5.2-1.9-12-5.8-16.9-2.6-3.1-6.5-4.8-8.8-8.2.4.6-1,4.9-1.1,5.8-.2,2.1-.2,4.2,0,6.3.7,4.9,2.8,9.5,5.3,13.6,2.7,4.4,6.1,8.7,10,12.4Z"/>
        </g>
        <polygon class="cls-29" points="292.6 119.5 351.4 132.7 376.7 187.4 378.3 188.7 377.7 189.4 377.7 189.4 316.6 175.7 290.3 118.9 290.3 118.9 290.9 118.2 292.6 119.5"/>
        <polygon class="cls-68" points="352.2 131.7 378.5 188.6 317.3 174.9 291 118 352.2 131.7"/>
        <path class="cls-53" d="M354.6,216.9c.5,0,.9-.2,1-.7l6.6-30.2c0-.2,0-.5-.1-.7l-25.2-36.2c-.3-.4-.8-.5-1.2-.2-.4.3-.5.8-.2,1.2l25,35.9-6.6,29.9c-.1.5.2,1,.7,1.1,0,0,0,0,0,0Z"/>
        <path class="cls-84" d="M356.7,215.4l-.5-1.2c-.2-.4-.6-.7-1.1-.8-.5,0-1,.2-1.2.6l-.6,1.1c-.2.3-.2.6-.2.9l-.9,9.9c0,.2.8.5,1.9.6,1.1,0,2,0,2-.2l.9-9.9c0-.3,0-.7-.2-1Z"/>
      </g>
      <g>
        <path class="cls-81" d="M294.7,263.1c-2.8-3,5-14.3,9.1-19.2,3.6-4.3,7.4-8.7,12-8.2,4,.5,8,4.7,8.2,8.8.6,11-25.3,22.8-29.3,18.6Z"/>
        <path class="cls-73" d="M328.4,378.9c.5.4.6,1.5.7,2.2,0,.3,0,.5,0,.6-.3.8-1.8.9-4.3,1.1-3.9.4-5,.7-5.3.1-.3-.5.4-1.4.5-1.5.4-.5.9-.7,1.9-1,1.8-.6,3.1-.9,3.4-1,2.3-.6,2.7-.7,3.1-.5Z"/>
        <path class="cls-5" d="M326.1,375.3l-.4,4.4c.1.2,1.4.9,2.5.3l1-4.3-3.1-.4Z"/>
        <path class="cls-20" d="M297.6,378.3c.6.7.8,2,.2,2.6-.5.6-1.4.2-3.7.2-2.5,0-3.1.7-4.8.2-.7-.2-1.9-.6-1.9-1.1,0-.3.6-.5,2.7-1.2,2.9-1,2.9-1,3.5-1.1,1.5-.3,3.1-.5,3.9.4Z"/>
        <path class="cls-5" d="M296,374.3l-1.2,4.1c0,.2,1.4,1,2.4.5l1.8-4-3-.6Z"/>
        <path class="cls-38" d="M307.1,283.8c-.2,13.9-1.1,29.5-3.4,46.4-2.2,16.8-5.4,31.9-8.8,45.2,1.6.4,3.2.9,4.8,1.3,4-3.7,9.1-9.6,11.5-18,1.5-5.2,1-7.8,2-14.2,1.5-10.1,4.6-15.4,7.8-23.6,2.9-7.3,6.3-18.1,8.1-32.5-7.3-1.5-14.7-3.1-22-4.6Z"/>
        <path class="cls-3" d="M321.4,282.5c1,17.7,1.8,35.6,2.4,53.9.5,13.7.8,27.3,1,40.7,1.6.2,3.2.4,4.9.6,1.6-2.9,3.6-7.4,5.1-13.1,1.7-6.9,1.3-11,2.1-18.2.9-8.1,2.1-9.8,4.3-20,4.4-20.6,6.7-30.9,1.7-37.3-1.6-2.1-6.6-7.3-21.4-6.6Z"/>
        <path class="cls-25" d="M344.9,238.1c-3.8-1.1-9.3-2.3-16.1-2.7-9.7-.5-14.6-.8-18,1.5-7.9,5.3-1.8,17.7-5,48.2-.5,4.4-.6,8.8-.9,13.1-.6,7.2-.7,7.6-.2,8.4,3.2,4.6,14.9-2.3,32.2.4,9.7,1.5,14,5.1,16.7,2.5,3.1-3,.4-11-1.8-17.9-2.6-7.9-4.2-8-5.7-14-1.6-6.2-.6-9.4-.4-19.2.1-4.7,0-11.7-.7-20.3Z"/>
        <g class="cls-97">
          <path class="cls-34" d="M321.5,295.5c4.5-.4,7.4,2.2,11.3.2,5.3-2.7,7.1-11.2,6.7-17.2-.5-9.1-5.7-11.5-4.8-17.4.5-3.2,2.8-7.4,10.9-11.8.1,3.6,0,6.7,0,9.2-.2,9.8-1.2,13,.4,19.2,1.5,6,3.1,6.1,5.7,14,2.3,6.9,4.9,14.9,1.8,17.9-2.6,2.5-7-1-16.7-2.5-14.9-2.4-25.7,2.5-30.4.9,5.7-9.4,10.9-12.1,15-12.4Z"/>
        </g>
        <path class="cls-63" d="M338.8,238.8c3.2-2.6,9.7.3,11.4,1.2,9.7,4.5,18.3,16.5,16.2,29.2-.3,1.9-1.8,10.8-9.4,15.2-6.8,3.9-16,2.9-23.4-2.6-1-.9-2-1.8-3-2.7-1-1.1-2-2.1-3-3.2,1.6-1.3,4.2-3.2,7.9-4.4,4.9-1.6,8.5,1.3,10.8-.9,1.6-1.5,1.6-4.1,1.2-5.7-.8-3.2-3.6-4.1-6-6.4-5.6-5.4-6.6-16.5-2.7-19.6Z"/>
        <g>
          <polygon class="cls-92" points="292.5 280.3 335.7 279.7 324.2 285.2 292.4 283.1 292.5 280.3"/>
          <path class="cls-1" d="M337.2,280.8h0c0,.8-.5,1.5-1.3,1.8l-13.8,5.4v-3.8c0,0,13.5-4.6,13.5-4.6.8-.2,1.5.4,1.5,1.1Z"/>
        </g>
        <path class="cls-77" d="M330.5,278.3c.3,0-1.3-3.2-2.5-2.8-1.2.4-7.2,3.8-7.7,5.2l-.5,1.4s2.6.2,4.2-.3c1.6-.5,4.4-3.1,6.6-3.5Z"/>
        <g>
          <g>
            <path class="cls-47" d="M320.9,258l3,27.7c.1,1-1.2,2.4-2.2,2.3l-44.7-2.7c-.7,0-1.3-.6-1.5-1.3l-5.6-26.8c-.2-1,1.6-2,2.6-2l46.8,1.3c.8,0,1.4.6,1.5,1.4Z"/>
            <path class="cls-26" d="M319.9,258.8l3,27.7c.1,1-.7,1.8-1.6,1.7l-45.2-2.1c-.7,0-1.3-.6-1.5-1.3l-4.6-26.9c-.2-1,.6-1.9,1.6-1.8l46.8,1.3c.8,0,1.4.6,1.5,1.4Z"/>
          </g>
          <path class="cls-74" d="M293.3,279.6c4-1.7,2.6-4.9,7.2-8.8,6.2-5.2,12.4-3,14.6-7,.7-1.3,1-3.2-.2-6.4h3.4c.8.1,1.4.7,1.5,1.5l3,27.7c.1,1-.7,1.8-1.6,1.7l-45.2-2.1c-.7,0-1.3-.6-1.5-1.3l-.6-3.7c1.4-.8,3-1.5,4.9-1.8,6.6-1.3,9.9,2.3,14.4.4Z"/>
        </g>
        <path class="cls-77" d="M273.2,282.2c0-.2,0-.5.3-.5,1,0,3.2,0,4.4.7,1.6,1,3.6,2.8,1.9,3.6l-1.6.8c0,0-.2,0-.2,0-.6-.1-3-.7-3.3-.8-.2-.1-1.2-2.9-1.5-3.9Z"/>
        <g>
          <path class="cls-77" d="M328.1,224.8c0,2.9.3,5.2.6,6.7.3,1.8.6,2.3.9,2.6.5.6,1.2,1,5.3,2.1,2.2.6,2.5.5,2.6.8.2,1.1-5.9,4.8-12.2,3.9-3.9-.5-7.4-2.8-7.2-3.9.2-1.2,4.1-.5,5.2-2.6.8-1.5,0-3.6-1.2-5.3,1-1.9,4.8-2.3,5.9-4.2Z"/>
          <g>
            <path class="cls-15" d="M320.9,226c-.9-1.2-1-3.3,0-4.7.9-1.2,2.3-1.3,3.2-1.4,2.5-.3,5.6.7,6.7,3,.6,1.3-.7,4.1-1,4.7-.2.6-.7.8-1.1,1.2-.6.6-1.5,1.5-2.9,3.1-.1-.5-.3-1-.6-1.7-.1-.2-.5-1.2-1.2-2-1.3-1.6-2.3-1.1-3.2-2.3Z"/>
            <path class="cls-77" d="M327.9,230.6s-1.6,2.7-4.9,2.5c-2.9-.2-3.3-6.7-1.5-8.1.6-.5,1.9-.7,2.9-.4.6.2.8.4,1.8.7.9.2,1.2.1,1.4.4.3.3.6,1,0,2.9.6-.6,1.2-.8,1.7-.6,0,0,.3.2.4.4.4.7-.3,1.7-1.8,2.2Z"/>
            <path class="cls-30" d="M327.8,225.2c-.1.1.3.6.3,1.4,0,1.4-1.4,3.1-2.9,3.3-.9,0-1.1-.4-2.6-.6-.9,0-1.6,0-2.1.1-.5,1.6,0,3.1,1,3.9,1.1.8,2.6.3,3.2.1.4-.1,1.7-.6,2.4-1.7.7-1.2,0-2,.8-2.8.4-.4.9-.6,1.5-1.4.1-.2.2-.4.3-.5-.7-.8-1.7-1.8-1.9-1.6Z"/>
            <path class="cls-77" d="M321.6,230s.6.3,1.7.3c0,0,.1,0,.1,0,0,.1-.7.6-1.3.4-.5-.1-.8-.6-.7-.7,0,0,.1,0,.2,0Z"/>
          </g>
        </g>
      </g>
      <g>
        <path class="cls-78" d="M95.6,241.4c-.8.3-12.5,4.9-14.9,17.2-.2,1-2.1,11.5,5,18.9,8,8.3,23.4,8.1,29.5,1.2,1.4-1.6,2.2-3.4,2.6-4.9h0l-1.6-4.3c-2-2.4-4.6-2.9-6.1-3.3-3.5-.9-6.2.7-8.2-1-1.1-.9-1.3-2.3-1.5-3.5-.7-4.1,1.6-6.6,1.8-9.2.1-1.9.8-6-1.7-8.8-1.6-1.7-3.7-2.2-5-2.3Z"/>
        <path class="cls-44" d="M91,377.6c-.1-.8-2.6-1.4-3.8-.4-.6.5-1,1.5-.7,2,.1.2-.4.5.1.5,1.6,0,4.5-1.3,4.3-2Z"/>
        <path class="cls-82" d="M88.5,377.9l-2.5-.4c1.2-1.4.9-5.8.9-5.8l2.7.6s-.3,1.2-.8,3c-.2.6-.3,1.6-.3,2.6Z"/>
        <path class="cls-67" d="M88.7,377.5s-3-.7-3.3,0c-.3.6-.6,2.2,1.3,2.1,1.9,0,2.2-1.5,2-2Z"/>
        <path class="cls-64" d="M125.3,380.4c-.2-.7-2.7-1.1-3.8.1-.5.6-.8,1.6-.4,2,.1.1-.3.5.2.4,1.6-.2,4.2-1.9,4-2.6Z"/>
        <path class="cls-65" d="M122.8,381h-2.5c1-1.5.1-5.9.1-5.9l2.7.2s-.1,1.2-.4,3.1c0,.6,0,1.6,0,2.6Z"/>
        <path class="cls-36" d="M129.3,285.6c1.2,3.9,2.8,10.1,3.9,17.9,3.1,22.3-3.4,23-2.2,47.7.4,7.9-6.8,26.1-7.5,26.5-.3,0-.6,0-1,0-.6,0-1.5-.1-2.5-.4-1.1-.2-5.3-11.4-4.3-18,.7-4.7.5-9.7,0-19.8,0-1.6-4.2-31.8-4.2-31.8h0c-1.3,11.2-2.7,20.7-4,28-4.1,23.6-17.3,37.9-18,38.2-.1,0-1.4.5-2.4-.2-.5-.3-.6-.7-.6-.7-.4-.3.1-23.6,4.1-41.1,5.9-25.5,3.3-31.4,5.2-42.8,1.6-9.8,33.5-3.4,33.5-3.4Z"/>
        <path class="cls-72" d="M130.9,289.5c-3.5,1.8-12.6,5-23.4,3.4-4.8-.7-8.7-2.3-11.4-3.7,0,0-.2,0-.2-.1,2.8-8.5.6-13-.4-17.2-1.5-6-1.5-5.5-2.7-10.3-2-7.8-2.3-15.8-1-17.5,3.7-4.4,10.4-4.6,13.9-4.7,3.9-.1,12.8-1.5,17.8,2.9,0,0-.9.6-.4,1.2.5.5,2,2.4,3.5,5,1,1.9,2,4,2.9,7.2,1.7,5.7,2.1,10.5,2.3,12.6,0,.7,0,1.4.1,2,.7,10.5-.2,15.5-.9,19Z"/>
        <path class="cls-42" d="M123,380.7s-3.1-.3-3.3.4c-.2.6-.3,2.3,1.6,1.9,1.9-.3,1.9-1.8,1.7-2.3Z"/>
        <g>
          <path class="cls-59" d="M116.9,234.4c1.1-2.1.4-4.4.2-4.9-.7-2.1-.9-2.4-1.3-2.8l-.6-.5s0,0,0,0c-.4-.2-1.9-.6-2.2-.6-1,0-2.8,3.7-3.5,9.2,0,.2-.2.4-.2.6-.5,1.3-.9,2.5-1.2,3.7-6.6,1-7.5,1.9-7.5,2.3,0,1,3.9,1.8,6.8,2,6.3.5,12.6-1.6,12.5-2.8,0-.5-1.3-1.1-6.7-1.4,0-.9.1-1.8.2-2.7.4-.1,2.9-.7,3.6-2.3Z"/>
          <path class="cls-43" d="M117.5,225c-.3,1.7-1.5,3.4-1.9,3.6,0,0-.4.2-.7.6,0,0,0,.1-.1.2-.6,1,.9,2.6.5,3-.3.3-1.4-.4-1.6-.1-.2.3.7,1,.5,1.3-.2.2-.7-.1-1.2.2-.2.2-.2.3-.5.9-.2.3-.4.7-.6.8-.8.9-2.5.9-2.8.5,0-.1,0-.2,0-.6,0,0,0-.4-.2-.8-.2-.6-1-1.2-1.7-2-1.3-1.4-1.6-2.5-1.6-2.8,0-.1,0-.2,0-.3-.2-1.3.2-3.2,1-4.2,1.3-1.7,3.3-.4,5.4-1.9,2.4-1.8,1.8-5,3-5.1,1.3-.1,3.4,3.6,2.7,6.8Z"/>
          <path class="cls-32" d="M114.6,231.8c-.3-.7-1.1-.3-1.3.5-.1.7.4,1.6,1.1,1.6.7,0,.6-1.2.1-2.1Z"/>
        </g>
        <path class="cls-33" d="M97.1,283.8s0,0,0,0c-.1,0-.2-.1-.2-.3.5-4.1-.4-7.1-1.2-9.8-.2-.6-.4-1.3-.5-1.9-.8-3.4-1.2-4.7-1.6-6.1-.3-.9-.5-1.8-.9-3.4,0-.1,0-.2.2-.3.1,0,.2,0,.3.2.4,1.6.7,2.5.9,3.4.4,1.4.8,2.7,1.6,6.1.2.6.3,1.2.5,1.9.8,2.7,1.6,5.7,1.2,9.9,0,.1-.1.2-.2.2Z"/>
        <path class="cls-71" d="M130.9,289.5c-3.5,1.8-12.6,5-23.4,3.4-4.8-.7-8.7-2.3-11.4-3.7,1.3-1,2.8-2.6,5.4-5.4,3.1-3.4,6.7-2.1,8.9-.8,1.5.9,3.4.9,5,0,1.6-.9,2.6-2.5,2.6-4.3,0-.8,0-1.8-.1-2.8-.7-7.6,9.9-8.3,9.9-8.3,1.5-.8,2.9.5,4.2,2.8.7,10.5-.2,15.5-.9,19Z"/>
        <path class="cls-9" d="M168,255.4c-.4,0-.9.5-1.3.7-.5.3-1,.6-1.6.9-1,.5-2.1.9-3.3.9,0-.2,0-.3.2-.5.2-.5.5-.9.3-1-.2-.2-1.2.2-2.1,1.1-.4.3-.7.8-1,1.2-.5.8-.4,1.2-.8,1.8-.6.5-1,.6-1,.6v.4c-.4.4-1,.6-1.5.8.8.2,1.6.4,2.4.6l.5.9s3-.6,4.8-1.7c.8-.5,1.1-1.1,1.2-1.7,0-.4,0-.7,0-.8,0-.1,0-.2,0-.2,0,0,2.5-1,3.4-3.2.1-.3.2-.7-.3-.7Z"/>
        <path class="cls-23" d="M157.5,260.2c1.4,1,2.2,2.3,2.6,3.2-1,2.4-3.4,6.9-8.2,10.3-8,5.5-19.7,5.6-27.8-.6-9.7-7.4-11.4-21.7-7.3-27.8.5-.7,2-3,4.4-3.3,1.5-.2,3.6.5,6.8,4.3,6.8,8,4.4,12.9,8.4,15.2,6,3.5,15-5.6,21.1-1.3Z"/>
      </g>
      <g>
        <path class="cls-40" d="M258.5,107.6c-2.5-.7-5.8,3.9-8.6,7.7-4.1,5.7-9,12.4-7.7,20.4,1.3,7.9,8,14,10,13.1,1.6-.7-1.5-6,.9-13.1,2-5.7,5.2-5.7,7.4-11.3,2.7-7,1.1-15.8-1.9-16.7Z"/>
        <path class="cls-39" d="M257.3,143.8c-12.9,3.1-21.3,8.1-26.3,11.7-2.7,1.9-3.9,3.1-4.6,4.9-3.8,10,15.8,25,17.8,26.6.9-2.1,1.8-4.2,2.7-6.4-2-11.1-5.4-14.6-8.2-15.6-.8-.3-2.1-.6-2.1-1,0-.9,7.5.4,14.6-2.2,7.1-2.6,14.2-9.1,12.9-13.5-.2-.8-1.2-3.1-7-4.4Z"/>
        <path class="cls-69" d="M244.8,216.6s1.2.4,1.2,1.4c0,.9-1.2,5.1-2.5,6.6-1.3,1.5-1.4-.7-1.4-2.2,0-1.4.4-4.6.8-5.2.3-.6,1.9-.6,1.9-.6Z"/>
        <path class="cls-35" d="M241,158.4c-2.3,0-7.8-.5-9.3,2.2-1.2,2.3.9,5.7,2.2,7.8,3.6,5.7,7,6.3,9.5,9.8.9,1.4,1.8,3.3,2.1,6,.5-1.2,1-2.4,1.6-3.6-2-11.1-5.4-14.6-8.2-15.6-.8-.3-2.1-.6-2.1-1,0-.9,7.5.4,14.6-2.2,6.5-2.4,12.9-8,13.1-12.3-10.2,7.3-17.9,9-23.4,8.9Z"/>
        <path class="cls-24" d="M245.5,212.5c0,1.5-.2,2.7-.3,3.6-.2,2-.5,2.8-.8,3.5-.3.6-.9,2-1.3,1.9-.3,0,0-1.6.3-5.8,0-.6.2-2.6.2-2.6h0l1.9-.6Z"/>
        <path class="cls-83" d="M264.7,144.7c-7.4,4.5-12.2,9.5-15,13-3.3,4-8.3,10.2-10.1,19.4-1,4.9-.5,9.3.5,17.9,1,8.5,2.4,15.5,3.5,20.2.6.2,1.1.5,1.7.7,1.5-2.8,3.5-7.2,4.2-12.9,1.2-9.3-2.3-12.2-.6-18.8,1.4-5.7,5.6-9.2,14-16.2,6.9-5.7,13.2-9.2,15.6-16.3.4-1.2.7-2.7,0-4.1-1.4-2.9-6.8-4-13.8-2.8Z"/>
        <path class="cls-62" d="M270.6,108.1c-1.9-.4-5.1-.3-8.1-2.7-.9-.7-4.1-3.2-3.7-6.9.3-3.2,3.4-4.9,3.7-5.1,2.1-1.2,4.3-.9,6.6-.6,3.1.4,4.1,1.3,6.2,1.8,5.3,1.4,7.1-1.5,12.4-1.3,6.8.3,7.4,5.3,13.1,5.5,6.4.1,7.6-6.1,14-7.2,8.8-1.5,22.1,8,21.8,18.9-.2,6.3-4.8,13.5-10.8,15.7-3.5,1.3-7.3.9-8.3,3.1-.8,1.6,1,2.9.8,5.7-.2,3.6-3.3,6.2-3.8,6.6-4.7,3.8-15.2,1.9-22.4-3.5-12.9-9.7-11-27.7-21.4-30Z"/>
        <path class="cls-27" d="M285.5,106.8c-4.4-.5-9.4-.9-15-1-11.8-.2-13.5,1.3-13.9,2.4-.8,2.1.6,3.1-.2,6.7-.5,2.2,0,3.1-.9,5.4-.9,2.3-.2,3.5.6,8.7,1,6.8,1.5,10.2-.4,12.9-1.3,1.9-2.8,2.1-2.6,3,.3,1.9,6.9.9,15.3,4.5,2.4,1.1,4.7,2.4,6.5,3.5,4.4,2.6,5.2,3.6,7.2,4.7,6.4,3.7,16.1,4,21.1-.4,1.9-1.7,3.3-4.1,2.6-5-.8-1.2-4.6,1.5-8.1-.1-2.3-1.1-1.9-2.9-4.5-5.1-3.2-2.6-5.4-1.2-7.6-2.9-3.4-2.6-1.8-8.8-.9-19.3.4-4.3.8-10.5.7-18.1Z"/>
        <path class="cls-8" d="M272.7,104.4c1.6,1,4.2,2.3,4.5,2.7.3.4-7.9,1.8-13-.8,0,0-.8-.4,2.3-1,.7-.1.5-1.4.4-2.7l.6-1.1s3.5,2.1,5.1,3.1Z"/>
        <path class="cls-80" d="M268.7,100.6s.6,2.7-1.7,4c-2.1,1.2-5.7-3.7-5-5.5.2-.6,1-1.4,1.8-1.6.6-.2,2.8-.1,3.7,1.7.2-.5.7-.8,1-.7.4.1.4.8.4,1,0,.5-.2,1-.3,1.1Z"/>
        <path class="cls-66" d="M265,143.5c2.4,1,2.8,3.2,6.1,4.4,3.2,1.2,4.3-.3,7.5.7,4.8,1.5,6.6,6.1,7.4,5.7.7-.4,0-4.8-3.1-7.7-3.5-3.3-7.4-1.8-9.6-5.2-.9-1.3-1.6-3.5-.8-5.1,1-2.2,3.8-1.4,5.2-3.3,2.6-3.3-3.5-9.2-1.8-14.3.7-2,2.8-4.5,9.6-6.2,0,5-.4,9.2-.7,12.4-.9,10.5-2.5,16.7.9,19.3,2.2,1.7,4.4.3,7.6,2.9,2.6,2.1,2.2,3.9,4.5,5.1,3.5,1.7,7.2-1.1,8.1.1.6.9-.8,3.3-2.6,5-5.1,4.5-14.7,4.1-21.1.4-2-1.2-2.8-2.2-7.2-4.7-1.9-1.1-4.1-2.4-6.5-3.5-5.9-2.6-10.9-2.8-13.5-3.4,5.1-3.4,8.2-3.5,10.2-2.6Z"/>
        <g>
          <path class="cls-87" d="M241.6,146.9l30.8,1.5c.4,0,.8.2,1,.6l.9,1.4c.4.7,0,1.6-.9,1.5l-32.6-1.2.8-3.8Z"/>
          <path class="cls-21" d="M213.3,129.9l31.8.6c.9,0,1.8.5,2.3,1.4l11,19.4-33.6-1.3c-.9,0-1.8-.5-2.2-1.3l-10.2-17.1c-.4-.7,0-1.6.9-1.6Z"/>
          <path class="cls-37" d="M247.4,131.8c-.5-.8-1.3-1.3-2.3-1.4h-.7c-.1,1-.4,2-1,2.7-2,2.4-5.2.9-7.7,3.4-2.7,2.8-.2,6-2.6,8.6-2.5,2.7-6.6.5-11.2,2.2l.7,1.1c.5.8,1.3,1.3,2.2,1.3l33.6,1.3-11-19.4Z"/>
        </g>
        <path class="cls-19" d="M267.3,146.9c-.3-.9-.7-1.8-1-2.8,3.8-1.1,9.1-2.6,14.6-4.6,1.3-.5,1.8-1.1,2.2-1.6,2.8-3.7-4.3-10.2-4.2-18.7,0-5.9,3.6-12.6,6.8-12.7,6.4-.2,20.4,26.9,8.6,38.5-5.9,5.7-16.9,6.4-26.9,1.8Z"/>
        <path class="cls-90" d="M266.3,144.1c-2.4-1.3-5.3,0-5.5.1-.5.2-1.3.7-2.1,1.5,0,.1-1.1,1.6-.8,2,.3.4,1.5,0,2.9-.8.6,0,1.5-.2,2.5,0,1.9.2,2.8.8,3.6.3.5-.4.7-1.2.5-1.8-.2-.7-.8-1-1.2-1.2Z"/>
      </g>
      <g>
        <g>
          <path class="cls-96" d="M167.7,375.5c-1.9-9.3-1.1-16.8-.2-21.4,1-5.5,3.2-16.7,12-22.9.7-.5,7.6-5.3,10.8-2.9,1.6,1.2,2,4.2,1.3,6.5-1.8,6-10,5.4-12.7,12.2-.9,2.3-1.1,5.1-.4,5.3.8.3,3-3.1,3.2-3.4,2-3,2-4.8,3.5-5.2.9-.3,2.1,0,2.7.7,1.2,1.7-1.2,5.5-1.9,6.5-1.8,2.8-3.3,3.4-3.7,5.8-.2,1-.1,2.5.5,2.8.8.3,2.4-1.8,3.4-3.2,2.7-3.7,3-5.8,4.3-5.9,1.2-.1,2.6,1.5,3,2.5,1,2.8-3,8.7-25.7,22.5Z"/>
          <path class="cls-76" d="M167.9,373.9c-.3-8.7,1.1-15.5,2.4-20,1.6-5.8,4.7-16.7,13.3-21.4.6-.3,5.1-2.8,6.4-1.5.8.9,0,3.3-1.1,4.9-2.1,2.7-4.5,1.6-8,4.3-3.1,2.4-4.2,5.6-4.4,6.5-1,3.1-.5,5.8-.3,6.8.5,3.8-.6,10-8.2,20.4Z"/>
          <path class="cls-76" d="M171,371.8c4.8-4.3,6-7.9,6-10.4,0-1.9-.5-4.2,1-6.4.9-1.4,1.7-1.1,3.3-2.6,3.4-3.1,3.9-7.2,4.6-7.1.4,0,.6,1.4.3,2.7-.5,2.7-2.6,2.9-4.7,6.2-1.4,2.2-1.9,4.3-2.2,5.5-.6,2.7-.2,3.7-.6,5.2-.5,2-2.2,4.5-7.9,6.8Z"/>
        </g>
        <g>
          <path class="cls-12" d="M170.6,377c8.4.5,10.9,1,14.8-.4,3.7-1.3,7.5-3.8,7.2-4.9-.2-.8-2.6-.8-4-.8-3.7,0-6.8,1.2-9,2.3,1.9-1.3,3.7-2.5,5.6-3.8,1.3-.5,3.5-1.5,5.5-3.5,1.2-1.3,4-4.8,3-6.5-1.1-1.8-6.3-1.4-9.4,1.1-1.4,1.2-1.4,2.1-3.4,4.2-1.8,1.9-3.6,3.1-4.9,3.9,1.2-1.5,2.8-3.8,4.1-7,1.9-4.8,3.4-12.4.9-13.8-1.6-.9-4.8,1-6.5,3.2-1.3,1.8-1.2,3.3-2.1,9.1-.4,2.5-.8,4.6-1,5.8-2.5-5.5-3.2-10.1-3.4-13.4-.2-4.3.5-7.7-1.1-8.7-1.5-.8-4.1.8-5.5,2.2-5.4,6,1.7,20,2.5,21.5-2-1.5-4.7-3.9-7.4-7.3-2.8-3.6-4-6.4-5.5-6.1-1.4.2-2.4,3.3-2.3,5.7.3,6.6,8.9,10.5,9.8,10.9-.7.1-2,.2-3.4,0-3.2-.6-4.2-2.6-7.5-3.2-1.2-.3-3.8-.5-4.1.3-.6,1.4,5.9,6.6,13.7,8.6,2.9.7,2.2,0,13.1.7Z"/>
          <path class="cls-76" d="M176.1,372.3c3.8-1.7,3.3-4,7.5-6.9,2.7-1.8,3.3-1.2,6.2-2.9,1.6-1,2.9-2.1,3.9-3.2,0,0,0,0,0,0,1.1,1.7-1.8,5.2-3,6.5-2,2.1-4.2,3.1-5.5,3.5-1.9,1.3-3.7,2.5-5.6,3.8,2.2-1.1,5.2-2.2,9-2.3,1.2,0,3.1,0,3.8.5-1.1.7-2.1,1-3,1.2-1.9.4-3,0-4.7.9-1.3.8-1.2,1.4-2.3,1.9-1.1.4-1.6,0-4.3-.5-2.6-.4-3.9-.6-4.9,0-.8.5-1.2,1.3-1.4,2-.3,0-.5,0-.8,0,.2-.8.6-1.8,1.3-2.6,1.2-1.3,2.4-1.5,3.8-2.2Z"/>
          <path class="cls-76" d="M165.2,375.2c-.6-.1-.9.3-1.7.4-1.6.2-2.1-1.1-4-1.7-2.2-.7-2.7.6-4.9,0-1.7-.5-1.5-1.4-3.7-2.7-2.4-1.4-3.4-.8-5.1-1.9-.6-.4-1.2-.9-1.8-1.7.8-.4,2.8-.2,3.8,0,3.3.7,4.3,2.6,7.5,3.2,1.4.3,2.7.2,3.4,0-.9-.4-9.5-4.3-9.8-10.9-.1-2.2.7-5,2-5.6-.2,1.5-.2,2.8-.1,3.9,0,2.4,0,3.6.9,4.6,1.3,1.7,2.9.8,5.1,2.6,2,1.6,1.3,2.9,3.4,4.5,1.8,1.4,2.8.9,4.5,2,1.1.7,2.3,2.1,3.1,4.9-.3,0-.7,0-1,0-.3-.8-.7-1.5-1.4-1.6Z"/>
          <path class="cls-76" d="M167.1,366.2c-1-2.8-2.9-2.6-3.6-5.1-.8-2.5.9-3.3.5-6.9-.3-2.7-1.3-3.1-1.4-4.9,0-1.4.4-3.2,2.6-5.5.7-.2,1.3-.2,1.8,0,1.7.9.9,4.3,1.1,8.7.1,3.4.9,8,3.4,13.4.2-1.3.6-3.3,1-5.8.9-5.8.8-7.3,2.1-9.1,1.6-2.2,4.8-4.1,6.5-3.2,0,0,.2.1.3.2-.8.6-1.6,1.2-2.2,2.1-2.1,2.9-.9,4.9-2.9,10.5-1.9,5.4-3.8,5.8-5.3,10.4-.5,1.5-.9,3.5-1,6-.5,0-1.1,0-1.6,0-.6-1.8-.8-3.5-.9-4.9-.2-3.1.3-3.9-.4-5.8Z"/>
        </g>
      </g>
      <g>
        <g>
          <path class="cls-50" d="M188,62c12.1.4,22.2,7.7,24.2,17.1,0,0,0,0,0,0,.1.5.2,1,.2,1.6,0,0,0,0,0,.1,0,.2,0,.5,0,.7,0,0,0,0,0,.1,0,.3,0,.5,0,.8,0,10.9-11.1,19.1-24.6,18.4-.4,0-.7,0-1.1,0,0,0,0,0-.1,0-.3,0-.7,0-1-.1,0,0-.1,0-.2,0-.3,0-.6,0-1-.1,0,0-.1,0-.2,0-.3,0-.6-.1-.9-.2,0,0-.1,0-.2,0-.3,0-.6-.1-.9-.2,0,0-.1,0-.2,0-.3,0-.6-.1-.9-.2,0,0-.1,0-.2,0-.3,0-.5-.2-.8-.2,0,0-.1,0-.2,0-.3,0-.5-.2-.8-.3,0,0-.1,0-.2,0,0,0,0,0,0,0-9-3.2-15.3-10.5-15.3-18.6,0-10.6,10.6-18.8,23.9-18.4Z"/>
          <path class="cls-88" d="M161.5,80.4c0,10.6,10.6,19.7,23.9,20.4,13.5.7,24.6-7.5,24.6-18.4s-11.1-20-24.6-20.4c-13.3-.4-23.9,7.8-23.9,18.4Z"/>
          <g class="cls-97">
            <path class="cls-94" d="M179.6,95.6c2.9-5.6,0-11,3.9-14.6,4-3.6,9.3.1,14.9-2.7,2.2-1.1,4.7-3.3,6.5-7.9,3.2,3.4,5.1,7.6,5.1,12.1,0,10.9-11.1,19.1-24.6,18.4-3.1-.2-6-.8-8.7-1.7,1.3-1.1,2.2-2.4,2.8-3.5Z"/>
          </g>
        </g>
        <g>
          <path class="cls-77" d="M173.3,76.1c-1,0-1.8.4-2.4,1.2-.6.8-.8,1.9-.8,3.4,0,3,1.1,4.5,3.3,4.6.9,0,2-.2,3.3-.7v2.4c-1.1.4-2.3.7-3.6.6-1.9,0-3.3-.7-4.3-1.9-1-1.2-1.5-2.9-1.5-5.1s.2-2.6.7-3.7c.5-1,1.2-1.9,2.1-2.4.9-.6,2-.8,3.2-.8s2.5.3,3.8,1l-.9,2.3c-.5-.2-1-.5-1.5-.6-.5-.2-1-.3-1.5-.3Z"/>
          <path class="cls-77" d="M188.3,83.9c0,1.2-.4,2.2-1.3,2.9-.9.7-2.1,1-3.7,1-1.4,0-2.7-.3-3.8-.9v-2.7c.9.4,1.7.7,2.3.9.6.2,1.2.3,1.7.3.6,0,1.1-.1,1.4-.3.3-.2.5-.6.5-1.1s0-.5-.2-.7c-.1-.2-.4-.4-.6-.6-.3-.2-.9-.5-1.7-.9-.8-.4-1.4-.8-1.8-1.2-.4-.4-.7-.8-1-1.3-.2-.5-.4-1-.4-1.7,0-1.2.4-2.2,1.2-2.8.8-.7,1.9-1,3.3-1s1.4,0,2,.3c.6.2,1.3.4,2,.7l-.9,2.3c-.7-.3-1.3-.5-1.8-.6-.5-.1-.9-.2-1.4-.2-.5,0-1,.1-1.2.4-.3.3-.4.6-.4,1s0,.5.2.7c.1.2.3.4.6.6.3.2.9.5,1.8,1,1.3.6,2.1,1.3,2.6,1.9.5.6.7,1.4.7,2.3Z"/>
          <path class="cls-77" d="M199.9,84.1c0,1.3-.5,2.3-1.4,3-.9.7-2.2,1-3.8,1-1.5,0-2.8-.3-3.9-.9v-2.7c.9.4,1.7.7,2.4.9.6.2,1.2.3,1.8.3.6,0,1.1-.1,1.5-.3.3-.2.5-.6.5-1.1s0-.5-.2-.7c-.2-.2-.4-.4-.7-.6-.3-.2-.9-.5-1.8-1-.8-.4-1.5-.8-1.9-1.2-.4-.4-.8-.8-1-1.3-.3-.5-.4-1.1-.4-1.7,0-1.2.4-2.2,1.2-2.9.8-.7,2-1.1,3.4-1.1s1.4,0,2.1.3c.7.2,1.3.4,2.1.7l-1,2.3c-.7-.3-1.4-.5-1.8-.6-.5-.1-1-.2-1.4-.2-.6,0-1,.1-1.3.4-.3.3-.4.6-.4,1s0,.5.2.7c.1.2.3.4.6.6.3.2.9.5,1.9,1,1.3.6,2.2,1.3,2.7,1.9.5.6.7,1.4.7,2.3Z"/>
        </g>
      </g>
      <g>
        <g>
          <path class="cls-93" d="M135.2,93.3c13.4.4,24.7,8.6,26.9,19,0,0,0,0,0,0,.1.6.2,1.1.3,1.7,0,0,0,0,0,.1,0,.3,0,.5,0,.8,0,0,0,0,0,.1,0,.3,0,.6,0,.8,0,12.1-12.3,21.2-27.3,20.5-.4,0-.8,0-1.2,0,0,0,0,0-.1,0-.4,0-.7,0-1.1-.1,0,0-.1,0-.2,0-.4,0-.7,0-1.1-.2,0,0-.1,0-.2,0-.3,0-.7-.1-1-.2,0,0-.1,0-.2,0-.3,0-.7-.1-1-.2,0,0-.1,0-.2,0-.3,0-.7-.2-1-.3,0,0-.1,0-.2,0-.3,0-.6-.2-.9-.3,0,0-.1,0-.2,0-.3,0-.6-.2-.9-.3,0,0-.1,0-.2,0,0,0,0,0,0,0-10-3.6-17-11.7-17-20.7,0-11.8,11.8-20.9,26.6-20.5Z"/>
          <path class="cls-18" d="M105.7,113.8c0,11.8,11.8,21.9,26.6,22.7,15,.8,27.3-8.4,27.3-20.5s-12.3-22.2-27.3-22.7c-14.8-.5-26.6,8.7-26.6,20.5Z"/>
          <g class="cls-97">
            <path class="cls-57" d="M125.8,130.7c3.2-6.2,0-12.3,4.3-16.2,4.5-4,10.3.1,16.6-3,2.5-1.2,5.2-3.7,7.2-8.8,3.5,3.8,5.7,8.5,5.7,13.5,0,12.1-12.3,21.2-27.3,20.5-3.4-.2-6.7-.9-9.6-1.9,1.5-1.3,2.4-2.6,3.1-3.9Z"/>
          </g>
        </g>
        <g>
          <path class="cls-77" d="M123.4,121l-10.8-5.2v-1.6l10.8-5.6v2.8l-7.5,3.6,7.5,3.4v2.8Z"/>
          <path class="cls-77" d="M134.9,106.5l-6.2,17h-3.1c0,0,6.1-17,6.1-17h3.2Z"/>
          <path class="cls-77" d="M137.3,118.6l8-3.2-8-3.9v-2.8l11.8,6v1.7l-11.8,5v-2.8h0Z"/>
        </g>
      </g>
      <g>
        <g>
          <path class="cls-58" d="M183.6,134.4c12.1.4,22.2,7.7,24.2,17.1,0,0,0,0,0,0,.1.5.2,1,.2,1.6,0,0,0,0,0,.1,0,.2,0,.5,0,.7,0,0,0,0,0,.1,0,.3,0,.5,0,.8,0,10.9-11.1,19.1-24.6,18.4-.4,0-.7,0-1.1,0,0,0,0,0-.1,0-.3,0-.7,0-1-.1,0,0-.1,0-.2,0-.3,0-.6,0-1-.1,0,0-.1,0-.2,0-.3,0-.6-.1-.9-.2,0,0-.1,0-.2,0-.3,0-.6-.1-.9-.2,0,0-.1,0-.2,0-.3,0-.6-.1-.9-.2,0,0-.1,0-.2,0-.3,0-.5-.2-.8-.2,0,0-.1,0-.2,0-.3,0-.5-.2-.8-.3,0,0-.1,0-.2,0,0,0,0,0,0,0-9-3.2-15.3-10.5-15.3-18.6,0-10.6,10.6-18.8,23.9-18.4Z"/>
          <path class="cls-79" d="M157.1,152.8c0,10.6,10.6,19.7,23.9,20.4,13.5.7,24.6-7.5,24.6-18.4s-11.1-20-24.6-20.4c-13.3-.4-23.9,7.8-23.9,18.4Z"/>
          <g class="cls-97">
            <path class="cls-61" d="M175.1,168c2.9-5.6,0-11,3.9-14.6,4-3.6,9.3.1,14.9-2.7,2.2-1.1,4.7-3.3,6.5-7.9,3.2,3.4,5.1,7.6,5.1,12.1,0,10.9-11.1,19.1-24.6,18.4-3.1-.2-6-.8-8.7-1.7,1.3-1.1,2.2-2.4,2.8-3.5Z"/>
          </g>
        </g>
        <g>
          <path class="cls-77" d="M169.4,149.2c-.9,0-1.7.4-2.2,1.2-.5.8-.8,2-.8,3.4,0,3,1,4.6,3,4.7.8,0,1.9-.2,3.1-.6v2.5c-1,.4-2.1.6-3.3.5-1.7,0-3-.8-3.9-2-.9-1.2-1.3-2.9-1.3-5.2s.2-2.6.6-3.7c.4-1.1,1.1-1.9,1.9-2.5.8-.6,1.8-.9,2.9-.9,1.2,0,2.4.3,3.6.9l-.8,2.4c-.5-.2-.9-.5-1.4-.6-.5-.2-.9-.3-1.3-.3Z"/>
          <path class="cls-77" d="M178.7,155.3h-3.4v-2.2h3.4s0-3.8,0-3.8h2s0,3.9,0,3.9h3.6v2.3h-3.6c0,0,0,3.8,0,3.8h-2v-3.9Z"/>
          <path class="cls-77" d="M191,155.5h-3.9v-2.4h3.9s0-4.1,0-4.1h2.3s0,4.2,0,4.2h4.1v2.4h-4.1c0,0,0,4,0,4h-2.3v-4.2Z"/>
        </g>
      </g>
      <g>
        <path class="cls-89" d="M126.8,220.9c-2.4-2.9-3.7-6.4-3.7-10.1,0-10.8,11.5-19.5,25.6-19.5s25.6,8.7,25.6,19.5-11.5,19.5-25.6,19.5-10.2-1.2-14.3-3.3c-2.7.5-6.9,1.2-9.1,1.6-.7.1-1.2-.5-1-1.1l2.5-6.6Z"/>
        <g class="cls-98">
          <path class="cls-86" d="M134.6,214.9c5.7-2.4,12,2.7,16-.9,4-3.6-.3-10.7,3.5-15.7,1.8-2.4,4.9-3.5,8.4-3.9,7.1,3.5,11.8,9.5,11.8,16.4,0,10.8-11.5,19.5-25.6,19.5s-10.2-1.2-14.3-3.3c-2.1.4-5.2.9-7.5,1.3,1.7-8.7,4.8-12.1,7.8-13.4Z"/>
        </g>
      </g>
      <g>
        <path class="cls-77" d="M165.2,204.6c0,.5-.4,1-1,1h-31.7c-.5,0-1-.4-1-1h0c0-.7.4-1.1,1-1.1h31.7c.5,0,1,.4,1,1h0q0,.1,0,.1Z"/>
        <path class="cls-77" d="M165.2,210.4c0,.5-.4,1-1,1h-31.7c-.5,0-1-.4-1-1h0c0-.7.4-1.1,1-1.1h31.7c.5,0,1,.4,1,1h0q0,.1,0,.1Z"/>
        <path class="cls-77" d="M149.2,216.1c0,.5-.4,1-1,1h-15.7c-.5,0-1-.4-1-1h0c0-.6.4-1.1,1-1.1h15.7c.5,0,1,.4,1,1h0Z"/>
      </g>
    </g>
  </g>
</svg>