<?xml version="1.0" encoding="UTF-8"?>
<svg xmlns="http://www.w3.org/2000/svg" version="1.1" xmlns:xlink="http://www.w3.org/1999/xlink" viewBox="0 0 1227 1227">
  <defs>
    <style>
      .cls-1 {
        fill: url(#linear-gradient);
      }

    </style>
    <linearGradient id="linear-gradient" x1="1188.4" y1="39" x2="38.6" y2="1188" gradientUnits="userSpaceOnUse">
      <stop offset="0" stop-color="#f76680"/>
      <stop offset="1" stop-color="#57007b"/>
    </linearGradient>
  </defs>
  <!-- Generator: Adobe Illustrator 28.6.0, SVG Export Plug-In . SVG Version: 1.2.0 Build 709)  -->
  <g>
    <g id="Capa_1">
      <path class="cls-1" d="M654.5,592.5l276.1,395h-113.3l-225.3-322.3h0s-33.1-47.3-33.1-47.3L295.7,241.4h113.3l212.4,303.9,33.1,47.3ZM1094.4,0H132.6C59.4,0,0,59.4,0,132.6v961.8C0,1167.6,59.4,1227,132.6,1227h961.8c73.2,0,132.6-59.4,132.6-132.6V132.6C1227,59.4,1167.6,0,1094.4,0h0ZM782.6,1040.5l-228-331.8-285.5,331.8h-73.8l326.5-379.5L195.4,185.9h249l215.9,314.2,270.3-314.2h73.8l-311.3,361.9h0l338.6,492.8h-249Z"/>
    </g>
  </g>
</svg>