<?xml version="1.0" encoding="UTF-8"?>
<svg xmlns="http://www.w3.org/2000/svg" version="1.1" xmlns:xlink="http://www.w3.org/1999/xlink" viewBox="0 0 64 18.7">
  <defs>
    <style>
      .cls-1 {
        fill: url(#linear-gradient);
      }
    </style>
    <linearGradient id="linear-gradient" x1="43.7" y1="-12.9" x2="21" y2="34.1" gradientUnits="userSpaceOnUse">
      <stop offset=".1" stop-color="#f76680" stop-opacity="1"/>
      <stop offset=".8" stop-color="#75137c" stop-opacity="1"/>
      <stop offset="1" stop-color="#57007b"/>
    </linearGradient>
  </defs>
  <!-- Generator: Adobe Illustrator 28.6.0, SVG Export Plug-In . SVG Version: 1.2.0 Build 709)  -->
  <g>
    <g id="Layer_1">
      <path class="cls-1" d="M56.4,5.8h1.6v3.5h-2.1c-1.3,0-2.3,1-2.3,2.3v7h-4.2v-9.3h-1.6c-1.3,0-2.3,1-2.3,2.3v7h-4.2V5.9h4.2v2c.4-1.1,1.3-2,2.7-2h1.6s3.7,0,3.7,0v2c.4-1.1,1.3-2,2.7-2ZM23.8,5.9l-2.2,7.4-2.2-7.4h-4.2l4.6,12.8h3.8l4.6-12.8h-4.2ZM6.6,5.9v-.9c0-.7.6-1.4,1.4-1.4h2.6V.1h-3.6C4.5.1,2.5,2.2,2.5,4.7v1.2H0v3.4h2.5v9.4h4.2v-9.4h4v9.4h4.2V5.9H6.6ZM40,11.7v1.3h-8.9c0,0,0,.2,0,.2h0s0,0,0,0c.1,1.1,1,2,2.8,2s2-1.3,2-1.3l3.7,1.1c-.8,2.1-2.8,3.5-5.2,3.5h-1.1c-3.4,0-6.2-2.8-6.2-6.2v-.7c0-3.4,2.8-6.2,6.2-6.2h.5c3.4,0,6.2,2.8,6.2,6.2ZM35.8,10.6c0-1.2-1-2.1-2.2-2.1h-.4c-1.2,0-2.1.9-2.2,2.1h4.7ZM61.4,13.4c-1.4,0-2.6,1.2-2.6,2.6s1.2,2.6,2.6,2.6,2.6-1.2,2.6-2.6-1.2-2.6-2.6-2.6Z"/>
    </g>
  </g>
</svg>