<svg xmlns="http://www.w3.org/2000/svg"  viewBox="0 0 64 64" width="96px" height="96px"><linearGradient id="7tOUfEC6yv3RqbEvvuP86a" x1="49.639" x2="49.639" y1="27.771" y2="41.194" gradientUnits="userSpaceOnUse"><stop offset="0" stop-color="#6dc7ff"/><stop offset="1" stop-color="#e6abff"/></linearGradient><path fill="url(#7tOUfEC6yv3RqbEvvuP86a)" d="M53.607,29.927v-1.973h-3.744l-1.646-0.029c-1.406,0-2.368,0.926-2.746,2.002v-1.973h-4.192 V40.75h4.192v-2.744v-4.248c0-1.276,1.034-2.31,2.31-2.31h1.634v9.302h4.192v-2.744v-4.248c0-1.276,1.034-2.31,2.31-2.31H58v-3.496 l-1.646-0.029C54.947,27.924,53.986,28.85,53.607,29.927z"/><linearGradient id="7tOUfEC6yv3RqbEvvuP86b" x1="21.524" x2="21.524" y1="27.771" y2="41.194" gradientUnits="userSpaceOnUse"><stop offset="0" stop-color="#6dc7ff"/><stop offset="1" stop-color="#e6abff"/></linearGradient><polygon fill="url(#7tOUfEC6yv3RqbEvvuP86b)" points="23.774,28.221 21.524,35.617 19.274,28.221 15.082,28.221 19.637,41.018 19.881,41.018 23.167,41.018 23.411,41.018 27.965,28.221"/><linearGradient id="7tOUfEC6yv3RqbEvvuP86c" x1="7.417" x2="7.417" y1="27.771" y2="41.194" gradientUnits="userSpaceOnUse"><stop offset="0" stop-color="#6dc7ff"/><stop offset="1" stop-color="#e6abff"/></linearGradient><path fill="url(#7tOUfEC6yv3RqbEvvuP86c)" d="M6.643,28.221v-0.853c0-0.747,0.606-1.353,1.353-1.353h2.647v-3.51H7.007 c-2.516,0-4.556,2.04-4.556,4.556v1.16H0v3.392h2.451v9.405h4.192v-9.405h3.999v9.405h4.192v-9.405v-3.392h-4.192H6.643z"/><linearGradient id="7tOUfEC6yv3RqbEvvuP86d" x1="33.524" x2="33.524" y1="27.771" y2="41.194" gradientUnits="userSpaceOnUse"><stop offset="0" stop-color="#6dc7ff"/><stop offset="1" stop-color="#e6abff"/></linearGradient><path fill="url(#7tOUfEC6yv3RqbEvvuP86d)" d="M33.778,28.049h-0.51c-3.435,0-6.219,2.784-6.219,6.219v0.703 c0,3.435,2.784,6.219,6.219,6.219h1.134c2.352,0,4.364-1.452,5.191-3.507l-3.698-1.08c0,0-0.443,1.267-1.985,1.267 c-1.741,0-2.664-0.954-2.785-2.034h-0.001v-0.007c-0.009-0.078-0.013-0.157-0.013-0.238h4.73h4.158v-1.323 C39.997,30.833,37.213,28.049,33.778,28.049z M31.115,33.124c0.051-1.151,0.997-2.069,2.16-2.069h0.4 c1.163,0,2.11,0.918,2.16,2.069H31.115z"/><linearGradient id="7tOUfEC6yv3RqbEvvuP86e" x1="61.393" x2="61.393" y1="35.247" y2="42.048" gradientUnits="userSpaceOnUse"><stop offset="0" stop-color="#1a6dff"/><stop offset="1" stop-color="#c822ff"/></linearGradient><path fill="url(#7tOUfEC6yv3RqbEvvuP86e)" d="M61.393,36.101c-1.44,0-2.607,1.167-2.607,2.607s1.167,2.607,2.607,2.607 S64,40.148,64,38.708C64,37.268,62.833,36.101,61.393,36.101z"/></svg>