<?xml version="1.0" encoding="UTF-8"?>
<svg xmlns="http://www.w3.org/2000/svg" version="1.1" xmlns:xlink="http://www.w3.org/1999/xlink" viewBox="0 0 512 512">
  <defs>
    <style>
      .cls-1 {
        fill: url(#linear-gradient-2);
      }

      .cls-2 {
        fill: url(#linear-gradient);
      }
    </style>
    <linearGradient id="linear-gradient" x1="489.6" y1="22.6" x2="22.4" y2="489.4" gradientUnits="userSpaceOnUse">
      <stop offset="0" stop-color="#f76680"/>
      <stop offset="1" stop-color="#57007b"/>
    </linearGradient>
    <linearGradient id="linear-gradient-2" x1="-38.8" y1="5" x2="-532.2" y2="498" xlink:href="#linear-gradient"/>
  </defs>
  <!-- Generator: Adobe Illustrator 28.6.0, SVG Export Plug-In . SVG Version: 1.2.0 Build 709)  -->
  <g>
    <g id="Layer_1">
      <path class="cls-2" d="M376,91h-240c-24.8,0-45,20.2-45,45v240c0,24.8,20.2,45,45,45h240c24.8,0,45-20.2,45-45v-240c0-24.8-20.2-45-45-45ZM256,361c-57.9,0-105-47.1-105-105s47.1-105,105-105,105,47.1,105,105-47.1,105-105,105ZM361,181c-16.5,0-30-13.5-30-30s13.5-30,30-30,30,13.5,30,30-13.5,30-30,30ZM256,181c-41.4,0-75,33.6-75,75s33.6,75,75,75,75-33.6,75-75-33.6-75-75-75ZM436,0H76C34.6,0,0,34.6,0,76v360c0,41.4,34.6,76,76,76h360c41.4,0,76-34.6,76-76V76c0-41.4-34.6-76-76-76ZM451,376c0,41.4-33.6,75-75,75h-240c-41.4,0-75-33.6-75-75v-240c0-41.4,33.6-75,75-75h240c41.4,0,75,33.6,75,75v240Z"/>
      <path id="Layer_2" class="cls-1" d="M-96.3-7.5h-372.4c-38.6,0-69.8,31.3-69.8,69.8v372.4c0,38.6,31.3,69.8,69.8,69.8H-96.3c38.6,0,69.8-31.3,69.8-69.8V62.3C-26.5,23.8-57.8-7.5-96.3-7.5ZM-232.3,401.4c-8.2,1.6-11-3.4-11-7.5s.2-22,.2-43.1-5.2-24.4-10.8-29.1c35.6-3.9,73-17.2,73-77.6.2-15.7-5.6-30.8-16.4-42.2,1.6-4,7-20-1.6-41.6,0,0-13.4-4.2-43.6,16.1-26.2-7.1-53.8-7.1-80,0-30.6-20.4-44-16.1-44-16.1-8.7,21.7-3.2,37.7-1.5,41.6-10.8,11.4-16.7,26.5-16.5,42.2,0,60.2,37.4,73.7,72.7,77.7-5.8,5.6-9.4,13-10.1,21-9.2,4-32.3,11-46.5-13.1,0,0-8.4-15.1-24.5-16.2,0,0-15.6-.2-1.1,9.5,0,0,10.5,4.9,17.8,23,0,0,9.4,30.6,53.9,21.1,0,13.1.2,23,.2,26.7s-2.9,9-10.9,7.5c-63.5-20.7-109.3-79.6-109.3-149.1s71.6-157.1,160-157.1S-122.5,165.7-122.5,252.5s-45.8,128.2-109.8,148.8h0Z"/>
    </g>
  </g>
</svg>