<?xml version="1.0" encoding="UTF-8"?>
<svg xmlns="http://www.w3.org/2000/svg" version="1.1" viewBox="0 0 512 512">
  <defs>
    <style>
      .cls-1 {
        fill: #57007b;
      }
    </style>
  </defs>
  <!-- Generator: Adobe Illustrator 28.6.0, SVG Export Plug-In . SVG Version: 1.2.0 Build 709)  -->
  <g>
    <g id="Layer_1">
      <g id="Layer_1-2" data-name="Layer_1">
        <path class="cls-1" d="M376,91h-240c-24.8,0-45,20.2-45,45v240c0,24.8,20.2,45,45,45h240c24.8,0,45-20.2,45-45v-240c0-24.8-20.2-45-45-45ZM256,361c-57.9,0-105-47.1-105-105s47.1-105,105-105,105,47.1,105,105-47.1,105-105,105ZM361,181c-16.5,0-30-13.5-30-30s13.5-30,30-30,30,13.5,30,30-13.5,30-30,30ZM256,181c-41.4,0-75,33.6-75,75s33.6,75,75,75,75-33.6,75-75-33.6-75-75-75ZM436,0H76C34.6,0,0,34.6,0,76v360c0,41.4,34.6,76,76,76h360c41.4,0,76-34.6,76-76V76c0-41.4-34.6-76-76-76ZM451,376c0,41.4-33.6,75-75,75h-240c-41.4,0-75-33.6-75-75v-240c0-41.4,33.6-75,75-75h240c41.4,0,75,33.6,75,75v240Z"/>
      </g>
    </g>
  </g>
</svg>