<?xml version="1.0" encoding="UTF-8"?>
<svg xmlns="http://www.w3.org/2000/svg" version="1.1" viewBox="0 0 512 512">
  <defs>
    <style>
      .cls-1 {
        fill: #57007b;
      }
    </style>
  </defs>
  <!-- Generator: Adobe Illustrator 28.6.0, SVG Export Plug-In . SVG Version: 1.2.0 Build 709)  -->
  <g>
    <g id="Layer_1">
      <g id="Layer_1-2" data-name="Layer_1">
        <path id="Layer_2" class="cls-1" d="M442.2,0H69.8C31.3,0,0,31.3,0,69.8v372.4c0,38.6,31.3,69.8,69.8,69.8h372.4c38.6,0,69.8-31.3,69.8-69.8V69.8c0-38.6-31.3-69.8-69.8-69.8ZM174.5,405.2c0,6-4.8,10.8-10.8,10.8h-46c-6,0-10.8-4.8-10.8-10.8h0v-192.8c0-6,4.8-10.8,10.8-10.8h46c6,0,10.8,4.9,10.8,10.8v192.8ZM140.7,183.3c-24.1,0-43.6-19.5-43.6-43.6s19.5-43.6,43.6-43.6,43.6,19.5,43.6,43.6-19.5,43.6-43.6,43.6h0ZM415,405.9c0,5.5-4.4,9.9-9.9,9.9h-49.5c-5.5,0-9.9-4.4-9.9-9.9h0v-90.3c0-13.5,4-59.1-35.3-59.1s-36.6,31.2-37.8,45.2v104.3c0,5.4-4.4,9.9-9.8,9.9h-47.8c-5.5,0-9.9-4.4-9.9-9.9h0v-194.5c0-5.5,4.4-9.9,9.9-9.9h47.8c5.5,0,9.9,4.5,9.9,9.9v16.8c11.3-17,28-30,63.7-30,79.1,0,78.5,73.8,78.5,114.4v93.2h0Z"/>
      </g>
    </g>
  </g>
</svg>