<?xml version="1.0" encoding="UTF-8"?>
<svg xmlns="http://www.w3.org/2000/svg" version="1.1" viewBox="0 0 512 512">
  <defs>
    <style>
      .cls-1 {
        fill: #57007b;
      }
    </style>
  </defs>
  <!-- Generator: Adobe Illustrator 28.6.0, SVG Export Plug-In . SVG Version: 1.2.0 Build 709)  -->
  <g>
    <g id="Layer_1">
      <g id="Layer_1-2" data-name="Layer_1">
        <g>
          <path class="cls-1" d="M0,130.6h512v-51.4c0-42.9-34.1-77.1-76.8-77.1H76.8c-42.7,0-76.8,34.3-76.8,77.1v51.4ZM168.5,45c10.7,0,21.3,8.5,21.3,21.4s-10.7,21.4-21.3,21.4-21.3-8.5-21.3-21.4,10.7-21.4,21.3-21.4ZM85.3,45c10.7,0,21.3,8.5,21.3,21.4s-10.7,21.4-21.3,21.4-21.3-8.5-21.3-21.4,8.5-21.4,21.3-21.4Z"/>
          <path class="cls-1" d="M0,434.9c0,42.9,34.1,77.1,76.8,77.1h358.4c42.7,0,76.8-34.2,76.8-77.1V173.5H0v261.4h0ZM256,239.9c23.5,0,44.8,19.3,44.8,42.9s-19.2,45-44.8,45-42.7-19.3-42.7-45,19.2-42.9,42.7-42.9h0ZM172.8,407c8.5-17.2,23.5-32.1,38.4-40.7,4.3-2.1,10.7-2.1,14.9,0,19.2,6.4,38.4,6.4,55.5,0,4.3-2.1,10.7-2.1,14.9,0,17.1,8.5,32,23.6,40.5,40.7,8.5,17.2-4.3,38.6-23.5,38.6h-117.3c-19.2,0-32-21.4-23.5-38.6h.1Z"/>
        </g>
      </g>
    </g>
  </g>
</svg>