<?xml version="1.0" encoding="UTF-8"?>
<svg xmlns="http://www.w3.org/2000/svg" version="1.1" xmlns:xlink="http://www.w3.org/1999/xlink" viewBox="0 0 512 512">
  <defs>
    <style>
      .cls-1 {
        fill: url(#linear-gradient-2);
      }

      .cls-2 {
        fill: url(#linear-gradient);
      }
    </style>
    <linearGradient id="linear-gradient" x1="404.9" y1="-60.2" x2="107.1" y2="237.3" gradientUnits="userSpaceOnUse">
      <stop offset="0" stop-color="#f76680"/>
      <stop offset="1" stop-color="#57007b"/>
    </linearGradient>
    <linearGradient id="linear-gradient-2" x1="457.2" y1="117.9" x2="54.9" y2="519.9" xlink:href="#linear-gradient"/>
  </defs>
  <!-- Generator: Adobe Illustrator 28.6.0, SVG Export Plug-In . SVG Version: 1.2.0 Build 709)  -->
  <g>
    <g id="Layer_1">
      <g>
        <path class="cls-2" d="M0,130.1h512v-51.2c0-42.7-34.1-76.8-76.8-76.8H76.8C34.1,2.1,0,36.3,0,78.9,0,78.9,0,130.1,0,130.1ZM168.5,44.8c10.7,0,21.3,8.5,21.3,21.3s-10.7,21.3-21.3,21.3-21.3-8.5-21.3-21.3,10.7-21.3,21.3-21.3ZM85.3,44.8c10.7,0,21.3,8.5,21.3,21.3s-10.7,21.3-21.3,21.3-21.3-8.5-21.3-21.3,8.5-21.3,21.3-21.3Z"/>
        <path class="cls-1" d="M0,433.1c0,42.7,34.1,76.8,76.8,76.8h358.4c42.7,0,76.8-34.1,76.8-76.8V172.8H0v260.3ZM256,238.9c23.5,0,44.8,19.2,44.8,42.7s-19.2,44.8-44.8,44.8-42.7-19.2-42.7-44.8,19.2-42.7,42.7-42.7ZM172.8,405.3c8.5-17.1,23.5-32,38.4-40.5,4.3-2.1,10.7-2.1,14.9,0,19.2,6.4,38.4,6.4,55.5,0,4.3-2.1,10.7-2.1,14.9,0,17.1,8.5,32,23.5,40.5,40.5,8.5,17.1-4.3,38.4-23.5,38.4h-117.3c-19.2,0-32-21.3-23.5-38.4Z"/>
      </g>
    </g>
  </g>
</svg>