<?xml version="1.0" encoding="UTF-8"?>
<svg xmlns="http://www.w3.org/2000/svg" version="1.1" viewBox="0 0 1227 1227">
  <defs>
    <style>
      .cls-1 {
        fill: #57007b;
      }
    </style>
  </defs>
  <!-- Generator: Adobe Illustrator 28.6.0, SVG Export Plug-In . SVG Version: 1.2.0 Build 709)  -->
  <g>
    <g id="Layer_1">
      <g id="Capa_1">
        <path class="cls-1" d="M654.5,592.5l276.1,395h-113.3l-225.3-322.3h0l-33.1-47.3L295.7,241.4h113.3l212.4,303.9,33.1,47.3h0ZM1094.4,0H132.6C59.4,0,0,59.4,0,132.6v961.8c0,73.2,59.4,132.6,132.6,132.6h961.8c73.2,0,132.6-59.4,132.6-132.6V132.6c0-73.2-59.4-132.6-132.6-132.6h0ZM782.6,1040.5l-228-331.8-285.5,331.8h-73.8l326.5-379.5L195.4,185.9h249l215.9,314.2,270.3-314.2h73.8l-311.3,361.9h0l338.6,492.8h-249.1Z"/>
      </g>
    </g>
  </g>
</svg>