<?xml version="1.0" encoding="UTF-8"?>
<svg xmlns="http://www.w3.org/2000/svg" version="1.1" viewBox="0 0 200 200">
  <defs>
    <style>
      .cls-1 {
        fill: #f76680;
      }

      .cls-2 {
        fill: #d8dee8;
      }
    </style>
  </defs>
  <!-- Generator: Adobe Illustrator 28.6.0, SVG Export Plug-In . SVG Version: 1.2.0 Build 709)  -->
  <g>
    <g id="Layer_1">
      <g>
        <path class="cls-2" d="M158.9,148.4c7.1,3.6,16,.3,19.9-7.4,3.9-7.7,1.3-16.8-5.8-20.4-.4-.2-.8-.4-1.1-.5,1.3-4.2,2.3-8.5,3-12.8h1.2c8.1-.7,14.5-8.1,14.3-16.6-.2-8.4-6.9-14.7-14.9-14-.4,0-.8.1-1.3.2-.8-4.2-2-8.3-3.5-12.2.4-.2.8-.4,1.1-.7,6.9-4.9,9.1-14.4,4.9-21.3-4.2-6.9-13.2-8.6-20.1-3.8-.4.3-.7.5-1,.8-2.7-3-5.7-5.8-9-8.4.2-.4.5-.8.6-1.2,3.9-7.7,9-16,1.8-19.5-16.5-8.1-23.6-1.2-27.5,6.5-.2.4-.4.8-.5,1.2-4-1.1-8-1.9-12.1-2.3v-1.3c-.2-8.4,2.3-13-5.8-13.2-17.7-.4-23.6,7.3-23.5,15.8,0,.4,0,.9,0,1.3-4.1,1.2-8,2.6-11.9,4.4-.2-.4-.4-.8-.6-1.1-4.2-6.9-13.2-8.6-20.1-3.8-6.9,4.9-9.1,14.4-4.9,21.3.2.4.4.7.7,1-3.1,3.1-5.9,6.4-8.6,10-.4-.2-.7-.4-1-.6-7.1-3.6-16-.3-19.9,7.4-3.9,7.7-1.3,16.8,5.8,20.4.4.2.8.4,1.1.5-1.3,4.2-2.3,8.5-3,12.8h-1.2c-8.1.7-14.5,8.1-14.3,16.6.2,8.4,6.9,14.7,14.9,14,.4,0,.8-.1,1.3-.2.8,4.2,2,8.3,3.5,12.2-.4.2-.8.4-1.1.7-6.9,4.9-9.1,14.4-4.9,21.3,4.2,6.9,18,10.2,25,5.3.4-.3-4.2-2.1-3.8-2.3,2.7,3,5.7,5.8,9,8.4-.2.4-.5.8-.6,1.2-3.9,7.7-1.3,16.8,5.8,20.4,7.1,3.6,16,.3,19.9-7.4.2-.4.4-.8.5-1.2,4,1.1,8,1.9,12.1,2.3v1.3c.2,8.4,6.9,14.7,14.9,14,8.1-.7,14.5-8.1,14.3-16.6,0-.4,0-.9,0-1.3,4.1-1.2,8-2.6,11.9-4.4.2.4.4.8.6,1.1,4.2,6.9,13.2,8.6,20.1,3.8,6.9-4.9,9.1-14.4,4.9-21.3-.2-.4-.4-.7-.7-1,3.1-3.1,5.9-6.4,8.6-10,.4.2.7.4,1,.6h0ZM70.6,149.6c-25.7-13.1-35.1-46.2-20.9-74,14.1-27.8,46.4-39.8,72.1-26.8,25.7,13.1,35.1,46.2,20.9,74-14.1,27.8-46.4,39.8-72.1,26.8Z"/>
        <path class="cls-2" d="M176,107.4c8.1-.7,14.5-8.1,14.3-16.6-.2-8.4-6.9-14.7-14.9-14-.4,0-.8.1-1.3.2-.8-4.2-2-8.3-3.5-12.2.4-.2.8-.4,1.1-.7,6.9-4.9,15.5-16.6,10.6-23-9.2-12.3-18.8-7-25.7-2.1-.4.3-.7.5-1,.8-2.7-3-5.7-5.8-9-8.4.2-.4.5-.8.6-1.2,2.1-4.2,2.3-8.8.9-12.7-6.7,11.8-13.3,23.5-19.7,35.4,20.5,15,27,44.7,14.2,69.9-10.9,21.4-32.5,33.4-53.5,31.9-.9,2.4-1.9,4.9-2.9,7.3-2.7,6.5-5.8,13-9,19.4,1.9.4,3.9.6,5.9.9v1.3c.2,8.4,5.3,15.6,19.9,14.8,8.1-.4,9.5-9,9.3-17.4,0-.4,0-.9,0-1.3,4.1-1.2,8-2.6,11.9-4.4.2.4.4.8.6,1.1,4.2,6.9,18.7,9.9,25.6,5.1,6.9-4.9,3.6-15.7-.6-22.6-.2-.4-.4-.7-.7-1,3.1-3.1,5.9-6.4,8.6-10,.4.2.7.4,1,.6,7.1,3.6,16,.3,19.9-7.4,3.9-7.7,1.3-16.8-5.8-20.4-.4-.2-.8-.4-1.1-.5,1.3-4.2,2.3-8.5,3-12.8h1.2-.1Z"/>
        <path class="cls-1" d="M166.5,149.3c7.1,3.6,16,.3,19.9-7.4,3.9-7.7,1.3-16.8-5.8-20.4-.4-.2-.8-.4-1.1-.5,1.3-4.2,2.3-8.5,3-12.8h1.2c8.1-.7,14.5-8.1,14.3-16.6-.2-8.4-6.9-14.7-14.9-14-.4,0-.8.1-1.3.2-.8-4.2-2-8.3-3.5-12.2.4-.2.8-.4,1.1-.7,6.9-4.9,9.1-14.4,4.9-21.3-4.2-6.9-13.2-8.6-20.1-3.8-.4.3-.7.5-1,.8-2.7-3-5.7-5.8-9-8.4.2-.4.5-.8.6-1.2,3.9-7.7,1.3-16.8-5.8-20.4-7.1-3.6-16-.3-19.9,7.4-.2.4-.4.8-.5,1.2-4-1.1-8-1.9-12.1-2.3v-1.3c-.2-8.4-6.9-14.7-14.9-14s-14.5,8.1-14.3,16.6c0,.4,0,.9,0,1.3-4.1,1.2-8,2.6-11.9,4.4-.2-.4-.4-.8-.6-1.1-4.2-6.9-13.2-8.6-20.1-3.8-6.9,4.9-9.1,14.4-4.9,21.3.2.4.4.7.7,1-3.1,3.1-5.9,6.4-8.6,10-.4-.2-.7-.4-1-.6-7.1-3.6-16-.3-19.9,7.4-3.9,7.7-1.3,16.8,5.8,20.4.4.2.8.4,1.1.5-1.3,4.2-2.3,8.5-3,12.8h-1.2c-8.1.7-14.5,8.1-14.3,16.6s6.9,14.7,14.9,14c.4,0,.8-.1,1.3-.2.8,4.2,2,8.3,3.5,12.2-.4.2-.8.4-1.1.7-6.9,4.9-9.1,14.4-4.9,21.3,4.2,6.9,13.2,8.6,20.1,3.8.4-.3.7-.5,1-.8,2.7,3,5.7,5.8,9,8.4-.2.4-.5.8-.6,1.2-3.9,7.7-1.3,16.8,5.8,20.4,7.1,3.6,16,.3,19.9-7.4.2-.4.4-.8.5-1.2,4,1.1,8,1.9,12.1,2.3v1.3c.2,8.4,6.9,14.7,14.9,14,8.1-.7,14.5-8.1,14.3-16.6,0-.4,0-.9,0-1.3,4.1-1.2,8-2.6,11.9-4.4.2.4.4.8.6,1.1,4.2,6.9,13.2,8.6,20.1,3.8,6.9-4.9,9.1-14.4,4.9-21.3-.2-.4-.4-.7-.7-1,3.1-3.1,5.9-6.4,8.6-10,.4.2.7.4,1,.6h0ZM78.2,150.4c-25.7-13.1-35.1-46.2-20.9-74,14.1-27.8,46.4-39.8,72.1-26.8,25.7,13.1,35.1,46.2,20.9,74-14.1,27.8-46.4,39.8-72.1,26.8Z"/>
      </g>
    </g>
  </g>
</svg>