<?xml version="1.0" encoding="UTF-8"?>
<svg xmlns="http://www.w3.org/2000/svg" version="1.1" viewBox="0 0 200 200">
  <defs>
    <style>
      .cls-1 {
        fill: #f76680;
      }

      .cls-2 {
        fill: #fff;
      }

      .cls-3 {
        fill: #3c417c;
      }
    </style>
  </defs>
  <!-- Generator: Adobe Illustrator 28.6.0, SVG Export Plug-In . SVG Version: 1.2.0 Build 709)  -->
  <g>
    <g id="Layer_1">
      <rect class="cls-2" x="-.5" y="0" width="200" height="200"/>
      <g>
        <path class="cls-3" d="M109.9,50.5h-3.9c-19.1,0-26,7-26,26v15h13.4c19.1,0,26-7,26-26V0h18.9v65.4c0,28.2-16.7,44.9-44.9,44.9h-32.3v-33.9c0-28.2,16.7-44.9,44.9-44.9h3.9v18.9h0Z"/>
        <g>
          <g>
            <path class="cls-1" d="M28.6,121h46.1c17.7,0,31.2,13.5,31.2,31.2h-18.9c0-8.5-3.8-12.3-12.3-12.3H28.6v-18.9Z"/>
            <path class="cls-3" d="M47.6,149.4v19.3c0,8.5,3.8,12.3,12.3,12.3h46.1v18.9h-46.1c-17.7,0-31.2-13.5-31.2-31.2v-19.3s18.9,0,18.9,0Z"/>
          </g>
          <path class="cls-3" d="M170.8,140h-8.2c-19.1,0-26,7-26,26v33.9h-18.9v-33.9c0-28.2,16.7-44.9,44.9-44.9h8.2v18.9Z"/>
        </g>
      </g>
    </g>
  </g>
</svg>