<?xml version="1.0" encoding="UTF-8"?>
<svg xmlns="http://www.w3.org/2000/svg" version="1.1" viewBox="0 0 573 287">
  <defs>
    <style>
      .cls-1 {
        fill: #f76680;
      }

      .cls-2 {
        fill: #3c417c;
      }
    </style>
  </defs>
  <!-- Generator: Adobe Illustrator 28.6.0, SVG Export Plug-In . SVG Version: 1.2.0 Build 709)  -->
  <g>
    <g id="Layer_1">
      <path class="cls-1" d="M6,86.2h113.9c43.7,0,77.2,33.5,77.2,77.2h-46.8c0-21.1-9.4-30.4-30.4-30.4H6v-46.8Z"/>
      <path class="cls-2" d="M52.8,156.4v47.6c0,21.1,9.4,30.4,30.4,30.4h113.9v46.8h-113.9c-43.7,0-77.2-33.5-77.2-77.2v-47.6h46.8Z"/>
      <path class="cls-2" d="M341.7,133h-9.7c-47.2,0-64.3,17.2-64.3,64.3v37h33.1c47.2,0,64.3-17.2,64.3-64.3V8.2h46.8v161.8c0,69.8-41.3,111.1-111.1,111.1h-79.9v-83.8c0-69.8,41.3-111.1,111.1-111.1h9.7v46.8Z"/>
      <path class="cls-2" d="M567,133h-20.3c-47.2,0-64.3,17.2-64.3,64.3v83.8h-46.8v-83.8c0-69.8,41.3-111.1,111.1-111.1h20.3v46.8Z"/>
    </g>
  </g>
</svg>