<?xml version="1.0" encoding="UTF-8"?>
<svg id="Layer_1" data-name="Layer 1" xmlns="http://www.w3.org/2000/svg" viewBox="0 0 115.609 63.036">
  <rect x="13.148" y="13.024" width="89.006" height="26.157" rx="1.294" ry="1.294" style="fill: #6e80fc; stroke-width: 0px;"/>
  <path d="M.939,9.903c0-1.296.24-2.495.72-3.6.479-1.104,1.116-2.052,1.908-2.844.792-.792,1.728-1.415,2.808-1.872,1.08-.456,2.196-.684,3.348-.684h47.304v12.096H14.827c-.79,0-1.431.641-1.431,1.431v23.391c0,.765.62,1.386,1.386,1.386h42.246v12.096H10.228c-1.296,0-2.52-.24-3.672-.72-1.152-.479-2.136-1.116-2.952-1.908-.817-.792-1.465-1.728-1.944-2.808-.48-1.08-.72-2.196-.72-3.348V9.903Z" style="fill: #f76680; stroke-width: 0px;"/>
  <path d="M114.666,42.303c0,1.296-.24,2.495-.72,3.6-.479,1.104-1.116,2.052-1.908,2.844-.792.792-1.728,1.415-2.808,1.872-1.08.456-2.196.684-3.348.684h-47.304v-12.096h42.201c.79,0,1.431-.641,1.431-1.431V14.385c0-.765-.62-1.386-1.386-1.386h-42.246V.903h46.8c1.296,0,2.52.24,3.672.72,1.152.479,2.136,1.116,2.952,1.908.817.792,1.465,1.728,1.944,2.808.48,1.08.72,2.196.72,3.348v32.616Z" style="fill: #57007b; stroke-width: 0px;"/>
  <line x1="50.979" y1="51.303" x2="50.978" y2="62.315" style="fill: #a7337e; stroke: #a7337e; stroke-miterlimit: 10; stroke-width: 12.1px;"/>
  <g>
    <polygon points="66.601 61.707 59.746 51.911 70.358 51.911 77.213 61.707 66.601 61.707" style="fill: #a7337e; stroke-width: 0px;"/>
    <path d="M70.041,52.519l6.005,8.581h-9.128l-6.005-8.581h9.128M70.675,51.303h-12.096l7.706,11.013h12.096l-7.706-11.013h0Z" style="fill: #a7337e; stroke-width: 0px;"/>
  </g>
  <g>
    <path d="M27.539,25.671l-.44.141.44.149,5.08,1.959v1.627l-7.039-3.146v-1.212l7.039-3.138v1.627l-5.08,1.992Z" style="fill: #fff; stroke-width: 0px;"/>
    <path d="M34.991,26.609c0-.669.084-1.285.253-1.847.168-.562.409-1.045.722-1.449.313-.404.69-.719,1.133-.946s.938-.34,1.486-.34c.537,0,1.006.09,1.407.27.401.18.748.441,1.042.785v-4.657h1.536v12.75h-1.411l-.066-.946c-.299.365-.656.642-1.071.83s-.899.282-1.453.282c-.542,0-1.033-.116-1.474-.349-.439-.232-.814-.553-1.125-.963s-.551-.893-.722-1.448c-.171-.557-.257-1.155-.257-1.797v-.174ZM36.526,26.783c0,.437.047.852.141,1.245s.239.739.436,1.038c.196.299.447.535.751.71.304.174.669.261,1.096.261.26,0,.495-.03.706-.091s.401-.148.573-.262c.171-.113.324-.249.457-.406.133-.158.249-.333.349-.527v-4.167c-.199-.365-.468-.666-.805-.9-.337-.235-.758-.353-1.262-.353-.432,0-.801.088-1.108.266-.307.177-.559.417-.755.718-.197.301-.342.65-.436,1.046-.094.396-.141.812-.141,1.249v.174Z" style="fill: #fff; stroke-width: 0px;"/>
    <path d="M49.369,31.34c-.631,0-1.21-.108-1.739-.324-.528-.216-.98-.518-1.357-.905s-.669-.847-.88-1.378-.315-1.109-.315-1.735v-.349c0-.725.116-1.374.349-1.947.232-.572.541-1.057.925-1.452.385-.396.822-.699,1.312-.909.49-.21.992-.315,1.507-.315.647,0,1.213.112,1.697.336.484.225.887.534,1.208.93.321.396.561.862.718,1.399.158.537.237,1.118.237,1.743v.689h-6.417c.017.41.096.794.236,1.154.142.36.335.674.581.942.247.269.541.48.884.635s.722.232,1.137.232c.548,0,1.035-.111,1.461-.332s.78-.515,1.062-.88l.938.73c-.149.227-.336.444-.56.652-.225.207-.483.391-.776.552s-.625.289-.996.386c-.371.097-.775.146-1.212.146ZM49.17,23.288c-.31,0-.603.057-.88.17-.277.114-.526.28-.747.498-.221.219-.408.487-.561.806-.152.318-.258.685-.319,1.1h4.831v-.116c-.017-.299-.073-.595-.17-.888-.097-.293-.24-.556-.428-.789s-.425-.42-.71-.564c-.285-.144-.624-.216-1.017-.216Z" style="fill: #fff; stroke-width: 0px;"/>
    <path d="M58.573,28.966l.141.556.149-.556,2.515-6.773h1.569l-3.661,8.981h-1.17l-3.694-8.981h1.577l2.573,6.773Z" style="fill: #fff; stroke-width: 0px;"/>
    <path d="M70.539,28.792c0-.183-.036-.347-.108-.494-.072-.147-.194-.281-.365-.403s-.398-.234-.681-.336c-.282-.102-.634-.195-1.054-.278-.515-.105-.984-.232-1.407-.382-.424-.149-.786-.328-1.088-.536-.301-.207-.535-.451-.701-.73-.166-.279-.249-.604-.249-.975,0-.365.086-.707.257-1.025.171-.318.412-.597.722-.834s.679-.426,1.108-.564c.429-.138.9-.208,1.415-.208.553,0,1.051.072,1.494.216s.819.343,1.129.598.549.552.718.893c.169.34.253.707.253,1.1h-1.536c0-.194-.05-.383-.149-.568-.1-.186-.238-.35-.415-.494s-.392-.26-.644-.349c-.251-.088-.535-.133-.851-.133-.327,0-.613.036-.859.108-.246.072-.451.169-.614.291-.163.122-.286.263-.369.423s-.125.327-.125.498c0,.177.033.335.1.473s.181.263.344.374c.164.111.382.21.656.299.273.088.621.174,1.042.257.553.116,1.049.25,1.486.402.437.152.805.335,1.104.548.299.213.527.461.685.743.157.282.236.609.236.979,0,.398-.09.761-.27,1.087-.18.327-.431.606-.751.838s-.706.412-1.154.54-.938.191-1.469.191c-.609,0-1.151-.082-1.627-.245-.476-.163-.878-.379-1.208-.647-.33-.268-.581-.58-.756-.934-.174-.354-.261-.722-.261-1.104h1.536c.022.315.106.581.253.797.147.216.33.39.548.523.219.133.461.227.727.282s.528.083.789.083c.647,0,1.159-.119,1.536-.357s.567-.553.573-.946Z" style="fill: #fff; stroke-width: 0px;"/>
    <path d="M75.5,32.212h-1.378l5.047-13.124h1.37l-5.039,13.124Z" style="fill: #fff; stroke-width: 0px;"/>
    <path d="M82.409,23.629v-1.585l7.33,3.138v1.212l-7.33,3.146v-1.594l5.371-2.025.498-.141-.498-.158-5.371-1.992Z" style="fill: #fff; stroke-width: 0px;"/>
  </g>
</svg>